<svg xmlns="http://www.w3.org/2000/svg" width="140" height="150"><polygon fill="#FF7040" points="65.036,45.182 65.036,40.217 60.071,40.217 60.071,45.182 55.106,45.182 50.143,45.182 50.143,50.147 50.143,55.112 50.143,60.077 50.143,65.04 55.106,65.04 55.106,60.077 55.106,55.112 55.106,50.147 60.071,50.147 65.036,50.147 70.001,50.147 70.001,45.182"/><polygon fill="#FF4046" points="60.071,30.287 60.071,35.252 55.106,35.252 55.106,40.217 50.143,40.217 50.143,45.182 55.106,45.182 60.071,45.182 60.071,40.217 65.036,40.217 65.036,35.252 65.036,30.287"/><rect x="65.036" y="25.322" fill="#FF4046" width="4.965" height="4.965"/><rect x="79.93" y="40.217" fill="#FF4046" width="4.964" height="4.965"/><rect x="74.965" y="35.252" fill="#FF4046" width="4.965" height="4.965"/><polygon fill="#FF7040" points="84.894,50.147 84.894,45.182 79.93,45.182 74.965,45.182 74.965,50.147 79.93,50.147 79.93,55.112 84.894,55.112 84.894,60.077 84.894,65.04 89.858,65.04 89.858,60.077 89.858,55.112 89.858,50.147"/><polygon fill="#FFAF40" points="79.93,55.112 79.93,50.147 74.965,50.147 70.001,50.147 65.036,50.147 60.071,50.147 55.106,50.147 55.106,55.112 55.106,60.077 55.106,65.04 55.106,70.007 60.071,70.007 60.071,65.04 60.071,60.077 60.071,55.112 65.036,55.112 70.001,55.112 74.965,55.112 74.965,60.077 79.93,60.077 79.93,65.04 79.93,70.007 84.894,70.007 84.894,65.04 84.894,60.077 84.894,55.112"/><path fill="#FFEF40" d="M74.965 60.077v-4.965h-14.894v19.86h19.859v-14.895h-4.965zm0 9.93h-9.929v-9.93h4.965v4.963h4.964v4.967z"/><polygon fill="#fff" points="70.001,65.04 70.001,60.077 65.036,60.077 65.036,65.04 65.036,70.007 70.001,70.007 74.965,70.007 74.965,65.04"/><path fill="#806D60" d="M109.717 82.419c0 4.113-3.335 7.448-7.447 7.448s-7.447-3.335-7.447-7.448 3.335-7.447 7.447-7.447 7.447 3.334 7.447 7.447z"/><path fill="#A68E7C" d="M100.343 104.508l4.001-14.347-64.684-14.936-.002.008c-.615-.165-1.259-.261-1.926-.261-4.113 0-7.275 3.333-7.275 7.447 0 3.393 2.544 6.251 5.544 7.149v.004l-.025.034.485.132 63.882 14.77z"/><polygon fill="#806D60" points="35.657,90.161 100.343,75.225 104.248,89.613 39.66,104.508"/><path fill="#A68E7C" d="M45.179 97.314c0 4.112-3.335 7.447-7.447 7.447-4.113 0-7.446-3.335-7.446-7.447 0-4.113 3.333-7.447 7.446-7.447 4.112 0 7.447 3.334 7.447 7.447z"/><path fill="#806D60" d="M109.717 97.314c0 4.112-3.335 7.447-7.447 7.447s-7.447-3.335-7.447-7.447c0-4.113 3.335-7.447 7.447-7.447s7.447 3.334 7.447 7.447z"/><path d="M133.628 40.786c-.42-.915-.86-1.82-1.318-2.714l-.885.455c.454.881.888 1.772 1.303 2.674l.9-.415zm-.044 58.539c.42-.908.82-1.827 1.201-2.755l-.918-.377c-.376.916-.771 1.82-1.185 2.715l.902.417zm4.113-47.192c-.256-.973-.533-1.938-.83-2.896l-.948.295c.293.942.565 1.895.819 2.854l.959-.253zm-1.786-5.759c-.34-.95-.7-1.89-1.081-2.819l-.918.375c.373.916.729 1.842 1.064 2.779l.935-.335zm2.089 11.814l.978-.169c-.171-.992-.363-1.978-.575-2.955l-.971.21c.21.963.397 1.935.568 2.914zm-10.333-27.875c-.569-.828-1.157-1.644-1.764-2.444l-.792.599c.598.79 1.176 1.593 1.739 2.409l.817-.564zm-7.656-9.29c-.702-.717-1.42-1.419-2.152-2.105l-.678.724c.721.677 1.429 1.369 2.122 2.076l.708-.695zm4.027 4.48c-.64-.775-1.294-1.537-1.966-2.283l-.738.664c.661.736 1.309 1.486 1.938 2.251l.766-.632zm-8.42-8.598c-.761-.653-1.536-1.292-2.323-1.912l-.615.779c.777.613 1.541 1.242 2.292 1.887l.646-.754zm15.255 18.514c-.497-.874-1.015-1.738-1.548-2.587l-.839.527c.525.838 1.033 1.688 1.523 2.552l.864-.492zm-3.246 74.341c.57-.825 1.122-1.662 1.658-2.512l-.841-.528c-.528.837-1.072 1.663-1.634 2.475l.817.565zm11.129-45.685l.988-.084c-.084-1.004-.191-2.002-.318-2.994l-.985.126c.126.979.231 1.961.315 2.952zm-138.189 14.874c.127.999.275 1.992.444 2.979l.979-.168c-.167-.973-.313-1.951-.439-2.936l-.984.125zm110.325-65.768c-.812-.586-1.639-1.154-2.477-1.706l-.547.828c.827.544 1.642 1.106 2.443 1.684l.581-.806zm-110.83 59.768c.042 1.008.104 2.009.189 3.005l.988-.083c-.083-.982-.144-1.97-.185-2.963l-.992.041zm6.002 23.072l-.919.374c.379.934.78 1.856 1.198 2.771l.902-.414c-.412-.899-.806-1.811-1.181-2.731zm132.936-26.014v-.007h1v.007c0-1.008-.021-2.012-.063-3.009l-.995.041c.039.984.058 1.972.058 2.968zm-130.456 31.421l-.883.453c.458.896.937 1.779 1.432 2.654l.863-.492c-.489-.859-.959-1.732-1.412-2.615zm-6.959-16.543c.214.984.447 1.961.702 2.93l.959-.253c-.25-.954-.481-1.917-.691-2.888l-.97.211zm3.418 8.355c-.335-.932-.648-1.873-.941-2.823l-.949.292c.296.959.617 1.922.956 2.865l.934-.334zm131.699-5.483l.96.255c.257-.969.494-1.943.709-2.928l-.969-.212c-.214.97-.445 1.931-.7 2.885zm-1.768 5.667l.935.337c.339-.943.66-1.896.958-2.854l-.946-.297c-.296.947-.612 1.884-.947 2.814zm4.997-20.271l-.992-.043c-.043.992-.108 1.98-.194 2.962l.99.086c.085-.996.152-1.997.196-3.005zm-128.451 33.445l-.841.527c.535.852 1.086 1.691 1.656 2.52l.818-.564c-.562-.815-1.106-1.643-1.633-2.483zm126.496-24.639l.979.171c.172-.985.323-1.978.454-2.978l-.984-.129c-.13.985-.28 1.964-.449 2.936zm-7.145 22.709c.497-.869.975-1.75 1.435-2.643l-.881-.455c-.454.881-.926 1.749-1.415 2.605l.861.493zm-115.942-76.2l-.792-.599c-.605.8-1.192 1.614-1.762 2.44l.817.564c.563-.814 1.142-1.616 1.737-2.405zm-6.301 10.033l-.884-.454c-.456.889-.896 1.79-1.315 2.702l.902.415c.413-.898.846-1.787 1.297-2.663zm2.934-5.151l-.841-.528c-.532.848-1.048 1.708-1.544 2.581l.862.491c.49-.859.998-1.708 1.523-2.544zm20.616-21.049l-.546-.831c-.84.553-1.667 1.124-2.481 1.71l.579.806c.803-.578 1.62-1.14 2.448-1.685zm-4.819 3.473l-.616-.78c-.789.622-1.564 1.261-2.326 1.915l.648.755c.752-.647 1.516-1.277 2.294-1.89zm-4.502 3.873l-.679-.725c-.733.688-1.45 1.389-2.152 2.106l.709.695c.692-.706 1.4-1.399 2.122-2.076zm-4.154 4.242l-.738-.664c-.671.746-1.326 1.506-1.965 2.282l.767.632c.628-.764 1.273-1.515 1.936-2.25zm-17.093 37.167l-.986-.127c-.128.991-.236 1.989-.322 2.993l.989.085c.085-.989.191-1.973.319-2.951zm-.51 5.946l-.992-.028c-.043.998-.067 2.026-.068 3.026h.994c.001-1 .023-2.014.066-2.998zm3.042-17.534l-.949-.296c-.297.958-.578 1.932-.832 2.896l.961.252c.253-.959.527-1.911.82-2.852zm2.009-5.587l-.92-.376c-.378.928-.739 1.864-1.08 2.812l.935.336c.335-.934.689-1.858 1.065-2.772zm-3.527 11.325l-.97-.21c-.214.977-.407 1.963-.579 2.956l.979.169c.169-.979.36-1.951.57-2.915zm45.562-50.681l-.314-.941c-.957.32-1.905.659-2.842 1.018l.355.927c.924-.354 1.859-.688 2.801-1.004zm21.855-3.532c.508 0 1.014.005 1.518.016l.022-.993c-.491-.011-.983-.016-1.476-.016-.516-.004-1.025.004-1.536.015l.02.992c.482-.009.968-.014 1.452-.014zm13.503.308c-.983-.191-1.972-.363-2.968-.513l-.148.982c.983.147 1.957.316 2.926.506l.19-.975zm-5.955-.899c-.993-.105-1.994-.192-3-.257l-.063.991c.992.064 1.978.149 2.958.253l.105-.987zm-40.308 8.849l-.473-.874c-.885.479-1.759.976-2.621 1.492l.508.852c.851-.508 1.713-.998 2.586-1.47zm57.826-4.627c-.935-.359-1.88-.698-2.835-1.018l-.313.942c.939.314 1.871.648 2.794 1.002l.354-.926zm5.512 2.391c-.9-.438-1.811-.856-2.73-1.255l-.396.91c.908.394 1.805.808 2.691 1.239l.435-.894zm-11.222-4.303c-.962-.277-1.933-.534-2.911-.769l-.233.965c.965.232 1.922.485 2.87.758l.274-.954zm16.51 7.163c-.859-.513-1.731-1.009-2.614-1.486l-.472.873c.869.471 1.729.96 2.576 1.466l.51-.853zm-63.277-3.223l-.396-.911c-.924.4-1.838.821-2.741 1.259l.436.895c.888-.434 1.789-.848 2.701-1.243zm17.09-4.892l-.146-.981c-.996.149-1.986.32-2.968.511l.188.975c.969-.19 1.944-.357 2.926-.505zm-5.826 1.134l-.231-.967c-.979.235-1.951.491-2.913.766l.272.956c.95-.273 1.907-.524 2.872-.755zm11.729-1.762l-.063-.99c-1.005.063-2.005.148-3 .254l.106.986c.98-.104 1.966-.187 2.957-.25z" fill="#806D60"/><path d="M20.615 133.021c0 1.438-.192 2.768-.58 3.993-.385 1.225-.937 2.287-1.652 3.188-.717.9-1.584 1.604-2.598 2.109-1.016.506-2.152.76-3.41.76-2.769 0-5.903-.351-9.4-1.052v-23.374l-1.141-.196-.628-.101-.271-.043c-.623-.133-.935-.524-.935-1.172v-2.204h7.59v10.987c.76-.813 1.62-1.459 2.579-1.94.96-.482 2.08-.723 3.364-.723 1.046 0 2.002.216 2.867.646.866.432 1.613 1.06 2.243 1.885.629.824 1.114 1.844 1.457 3.057.343 1.212.515 2.605.515 4.18zm-4.765 0c0-1.125-.091-2.077-.271-2.859-.182-.781-.439-1.416-.774-1.902-.338-.488-.746-.844-1.227-1.069-.479-.225-1.023-.338-1.634-.338-.959 0-1.778.203-2.458.609-.678.406-1.311.979-1.896 1.716v10.013c1.248.237 2.488.355 3.719.355.697 0 1.326-.131 1.887-.394.562-.263 1.038-.662 1.431-1.2.392-.537.694-1.215.905-2.034.211-.818.318-1.784.318-2.897zm16.742 7.565v2.204h-10.278v-2.204c0-.648.312-1.038.936-1.173l.235-.043.556-.101 1.104-.196v-11.803l-1.104-.196-.556-.101-.235-.043c-.624-.134-.936-.525-.936-1.173v-2.204h7.446v15.52l1.105.196.557.101.234.043c.623.135.936.525.936 1.173zm-2.383-21.514c-.162.351-.377.657-.645.919-.269.263-.583.472-.943.628-.361.156-.748.234-1.159.234-.398 0-.776-.078-1.132-.234-.354-.156-.662-.365-.924-.628-.262-.262-.471-.568-.626-.919-.155-.35-.233-.725-.233-1.125 0-.412.078-.8.233-1.163.155-.362.364-.675.626-.937.262-.263.57-.473.924-.628.355-.157.733-.235 1.132-.234.411 0 .798.078 1.159.234s.675.365.943.628c.268.262.482.574.645.937.162.363.242.751.242 1.163 0 .401-.08.776-.242 1.125zm7.293 22.603c-.896-.943-1.345-2.247-1.345-3.909v-10.744h-1.943c-.249 0-.464-.08-.646-.243-.18-.162-.27-.406-.27-.73v-1.839l3.083-.505.972-5.251c.05-.25.164-.443.346-.581.181-.138.408-.206.682-.206h2.393v6.056h5.045v3.3h-5.045v10.426c0 .6.148 1.068.449 1.405.298.338.696.507 1.195.507.285 0 .526-.035.719-.104.193-.068.361-.14.506-.216l.383-.216c.111-.068.224-.103.336-.103.137 0 .249.034.336.103.087.069.181.172.281.311l1.382 2.25c-.672.562-1.444.987-2.317 1.273-.872.289-1.774.432-2.709.432-1.658-.001-2.936-.473-3.833-1.416zm26.062-1.753c-.512.601-1.066 1.104-1.662 1.509-.599.406-1.219.731-1.86.976-.642.243-1.306.415-1.99.516-.687.1-1.366.149-2.036.149-1.184 0-2.3-.222-3.346-.666-1.047-.443-1.959-1.091-2.738-1.94-.778-.85-1.395-1.891-1.85-3.121-.454-1.231-.682-2.635-.682-4.209 0-1.413.201-2.723.606-3.929.405-1.205 1-2.249 1.785-3.131.785-.881 1.757-1.572 2.915-2.071 1.159-.5 2.492-.751 4-.751 1.551 0 3.563.463 6.037 1.388l-.002 5.918h-2.15c-.482.001-.772-.232-.872-.699-.056-.315-.155-1.221-.3-2.715-.974-.244-1.785-.366-2.434-.366-.809 0-1.52.146-2.131.441-.61.293-1.117.715-1.522 1.265s-.708 1.216-.907 1.997c-.198.781-.299 1.665-.299 2.653 0 1.024.109 1.938.327 2.737.218.799.533 1.471.944 2.016.411.543.909.955 1.496 1.237.584.28 1.244.421 1.98.421.734 0 1.329-.091 1.783-.271.455-.182.838-.381 1.149-.6.31-.218.581-.418.813-.601.23-.181.488-.271.775-.271.374 0 .654.144.841.432l1.33 1.686zm20.274.627v2.203h-4.396c-.436 0-.778-.065-1.028-.197-.249-.13-.436-.396-.561-.795l-.41-1.37c-.487.438-.963.822-1.431 1.153-.465.33-.948.609-1.448.835-.498.225-1.027.394-1.587.505-.562.113-1.185.17-1.869.17-.809 0-1.557-.109-2.243-.329-.685-.22-1.272-.549-1.765-.987-.492-.439-.876-.985-1.15-1.638-.273-.651-.411-1.411-.411-2.276 0-.727.19-1.444.569-2.153.381-.708 1.014-1.348 1.898-1.919.883-.57 2.061-1.044 3.53-1.42s3.295-.564 5.476-.564v-1.133c0-1.298-.271-2.258-.813-2.882-.542-.623-1.33-.936-2.363-.936-.748 0-1.371.088-1.869.264-.499.175-.932.371-1.299.59-.365.217-.704.414-1.019.591-.312.175-.653.262-1.028.262-.312 0-.578-.081-.803-.243s-.404-.362-.542-.6l-.841-1.481c2.205-2.025 4.864-3.038 7.979-3.038 1.121 0 2.121.185 3 .554.878.368 1.622.881 2.233 1.537.61.657 1.075 1.441 1.392 2.354.318.912.477 1.912.477 2.999v8.523l.984.177.402.072c.623.133.936.523.936 1.172zm-6.826-5.952c-1.347 0-2.471.085-3.372.254-.903.17-1.629.388-2.178.652-.548.265-.938.572-1.168.926-.23.352-.346.735-.346 1.15 0 .819.239 1.404.72 1.757.479.353 1.105.528 1.878.528.473 0 .909-.042 1.308-.128.399-.087.776-.216 1.132-.389.354-.172.696-.384 1.026-.637.331-.252.664-.55 1-.895v-3.218zm41.718 5.989v2.205h-7.447v-12.243c0-1.226-.268-2.146-.804-2.767-.535-.618-1.32-.928-2.354-.928-.474 0-.913.082-1.316.244-.406.163-.761.396-1.066.703-.305.307-.545.69-.719 1.153-.176.462-.262.993-.262 1.594v8.526l1.104.195.556.102.235.043c.623.134.935.524.935 1.172v2.205h-7.463v-12.243c0-1.288-.259-2.225-.776-2.813s-1.28-.881-2.289-.881c-.66 0-1.28.165-1.859.496-.58.332-1.118.785-1.616 1.359v10.364l1.101.195.556.102.234.043c.624.134.936.524.936 1.172v2.205h-10.272v-2.205c-.001-.647.312-1.038.935-1.172l.234-.043.558-.102 1.104-.195v-11.803l-1.104-.196-.558-.102-.234-.042c-.623-.135-.936-.525-.935-1.173v-2.205h5.652c.598 0 .99.281 1.178.844l.298 1.426c.338-.376.688-.72 1.057-1.032.369-.313.761-.582 1.178-.806.416-.226.865-.403 1.345-.534.479-.132 1.006-.197 1.58-.197 1.208 0 2.201.328 2.98.984.778.656 1.359 1.528 1.746 2.616.298-.638.672-1.185 1.121-1.641.448-.456.94-.828 1.477-1.115.535-.287 1.104-.501 1.711-.639.604-.138 1.211-.206 1.821-.206 1.058 0 1.998.163 2.821.487.822.325 1.514.801 2.074 1.426s.988 1.387 1.28 2.286c.293.901.439 1.933.439 3.095v8.526l1.104.195.557.103.234.042c.622.137.933.527.933 1.175zm21.27-7.565c0 1.438-.193 2.769-.579 3.994-.387 1.225-.938 2.287-1.654 3.187-.716.9-1.582 1.604-2.597 2.109-1.017.508-2.152.76-3.411.76-1.083 0-2.003-.166-2.756-.497-.754-.331-1.43-.79-2.028-1.378v4.157l1.104.197.556.102.234.042c.624.134.936.524.936 1.173v2.204h-10.276v-2.204c0-.647.311-1.039.935-1.173l.235-.042.557-.102 1.104-.197v-18.082l-1.104-.196-.557-.102-.235-.042c-.624-.135-.935-.525-.935-1.173v-2.205h5.653c.298 0 .554.068.766.206.211.138.349.351.412.638l.373 1.781c.771-.887 1.659-1.606 2.662-2.156s2.178-.825 3.522-.825c1.047 0 2.003.22 2.868.656.867.438 1.613 1.072 2.243 1.903.629.831 1.114 1.856 1.457 3.074.343 1.222.515 2.618.515 4.191zm-4.766 0c0-1.123-.091-2.076-.271-2.858-.182-.782-.439-1.417-.776-1.903-.336-.487-.743-.844-1.224-1.068-.479-.225-1.025-.338-1.636-.338-.958 0-1.777.203-2.456.609-.679.405-1.312.978-1.897 1.716v8.624c.523.65 1.094 1.104 1.709 1.36.617.256 1.28.384 1.991.384.697 0 1.33-.132 1.897-.394.566-.263 1.046-.662 1.438-1.2.393-.537.694-1.215.906-2.034s.319-1.784.319-2.898z" fill="#FF7040"/><rect width="140" height="150" fill="none"/></svg>