<?xml version="1.0" encoding="utf-8"?>
<!-- Generator: Adobe Illustrator 18.1.1, SVG Export Plug-In . SVG Version: 6.00 Build 0)  -->
<svg version="1.1" id="Layer_1" xmlns="http://www.w3.org/2000/svg" xmlns:xlink="http://www.w3.org/1999/xlink" x="0px" y="0px"
	 viewBox="-134 166 170 170" enable-background="new -134 166 170 170" xml:space="preserve">
<g id="guides">
</g>
<g id="Layer_2">
	<g>
		<g>
			<polygon fill="#231F20" points="-4.3,231 -9.9,251.6 -44.2,260.9 			"/>
			<polygon fill="#231F20" points="-94.2,231 -88.6,251.6 -54.3,260.9 			"/>
			<g>
				<path fill="#231F20" d="M-123.7,266.1h-3.9v3.8h3.9v-1.3l1.4,0.3v0.7c0,0.5-0.1,0.9-0.3,1.1c-0.2,0.2-0.6,0.3-1.2,0.3h-3.7
					c-0.6,0-1-0.1-1.2-0.3c-0.2-0.2-0.3-0.6-0.3-1.1v-3.2c0-0.5,0.1-0.9,0.3-1.1c0.2-0.2,0.6-0.3,1.2-0.3h3.7c0.6,0,1,0.1,1.2,0.3
					c0.2,0.2,0.3,0.6,0.3,1.1v0.6l-1.4,0.2V266.1z"/>
				<path fill="#231F20" d="M-120.5,271v-6h1.4v6H-120.5z"/>
				<path fill="#231F20" d="M-117,271v-6h5.3c0.5,0,0.8,0.1,1.1,0.3c0.2,0.2,0.3,0.5,0.3,0.9v1.3c0,0.4-0.1,0.7-0.3,0.9
					c-0.2,0.2-0.6,0.3-1.1,0.3h-3.9v2.4H-117z M-112.3,266h-3.3v1.6h3.3c0.2,0,0.4,0,0.5-0.1c0.1-0.1,0.1-0.2,0.1-0.4v-0.6
					c0-0.2,0-0.3-0.1-0.4C-111.9,266-112,266-112.3,266z"/>
				<path fill="#231F20" d="M-108.8,271v-6h1.4v2.3h4.5V265h1.4v6h-1.4v-2.5h-4.5v2.5H-108.8z"/>
				<path fill="#231F20" d="M-99.4,271v-6h6.3v1.1h-4.9v1.3h2.8v1h-2.8v1.5h4.9v1.1H-99.4z"/>
				<path fill="#231F20" d="M-91.5,271v-6h5.3c0.5,0,0.8,0.1,1.1,0.3c0.2,0.2,0.3,0.5,0.3,0.9v1.4c0,0.4-0.1,0.7-0.3,0.9
					c-0.2,0.2-0.6,0.3-1.1,0.3H-87l2.8,2.3h-2.1l-2.5-2.3h-1.4v2.3H-91.5z M-86.8,266h-3.3v1.7h3.3c0.2,0,0.4,0,0.5-0.1
					c0.1-0.1,0.1-0.2,0.1-0.4v-0.7c0-0.2,0-0.3-0.1-0.4C-86.4,266-86.6,266-86.8,266z"/>
				<path fill="#231F20" d="M-74.7,266v5h-1.4v-5H-79V265h7.1v1.1H-74.7z"/>
				<path fill="#231F20" d="M-70.5,271v-6h6.3v1.1h-4.9v1.3h2.8v1h-2.8v1.5h4.9v1.1H-70.5z"/>
				<path fill="#231F20" d="M-57.5,266.1h-3.9v3.8h3.9v-1.3l1.4,0.3v0.7c0,0.5-0.1,0.9-0.3,1.1s-0.6,0.3-1.2,0.3h-3.7
					c-0.6,0-1-0.1-1.2-0.3c-0.2-0.2-0.3-0.6-0.3-1.1v-3.2c0-0.5,0.1-0.9,0.3-1.1c0.2-0.2,0.6-0.3,1.2-0.3h3.7c0.6,0,1,0.1,1.2,0.3
					c0.2,0.2,0.3,0.6,0.3,1.1v0.6l-1.4,0.2V266.1z"/>
				<path fill="#231F20" d="M-54.3,271v-6h1.4v2.3h4.5V265h1.4v6h-1.4v-2.5h-4.5v2.5H-54.3z"/>
				<path fill="#231F20" d="M-34.6,266h-4v1.3h3.8c0.6,0,1,0.1,1.2,0.3c0.2,0.2,0.3,0.6,0.3,1.1v0.8c0,0.6-0.1,0.9-0.3,1.1
					c-0.2,0.2-0.6,0.3-1.2,0.3h-3.8c-0.6,0-1-0.1-1.2-0.3c-0.2-0.2-0.3-0.6-0.3-1.1v-0.2l1.3-0.2v0.7h4.3v-1.4h-3.8
					c-0.6,0-1-0.1-1.2-0.3c-0.2-0.2-0.3-0.6-0.3-1.1v-0.7c0-0.5,0.1-0.9,0.3-1.1c0.2-0.2,0.6-0.3,1.2-0.3h3.5c0.6,0,1,0.1,1.2,0.3
					c0.2,0.2,0.3,0.5,0.3,1v0.1l-1.2,0.3L-34.6,266L-34.6,266z"/>
				<path fill="#231F20" d="M-31.5,266.4c0-0.5,0.1-0.9,0.3-1.1c0.2-0.2,0.6-0.3,1.2-0.3h4.5c0.6,0,1,0.1,1.2,0.3
					c0.2,0.2,0.3,0.6,0.3,1.1v3.2c0,0.6-0.1,0.9-0.3,1.1c-0.2,0.2-0.6,0.3-1.2,0.3H-30c-0.6,0-1-0.1-1.2-0.3
					c-0.2-0.2-0.3-0.6-0.3-1.1L-31.5,266.4L-31.5,266.4z M-30.1,269.8h4.7v-3.8h-4.7V269.8z"/>
				<path fill="#231F20" d="M-22,271v-6h1.4v4.9h4.6v1.1H-22z"/>
				<path fill="#231F20" d="M-13.2,265v4.9h4.1V265h1.4v4.6c0,0.5-0.1,0.9-0.3,1.1c-0.2,0.2-0.6,0.3-1.2,0.3h-3.9
					c-0.6,0-1-0.1-1.2-0.3c-0.2-0.2-0.3-0.6-0.3-1.1V265H-13.2z"/>
				<path fill="#231F20" d="M-2.1,266v5h-1.4v-5h-2.8V265h7.1v1.1H-2.1z"/>
				<path fill="#231F20" d="M2.1,271v-6h1.4v6H2.1z"/>
				<path fill="#231F20" d="M5.4,266.4c0-0.5,0.1-0.9,0.3-1.1c0.2-0.2,0.6-0.3,1.2-0.3h4.5c0.6,0,1,0.1,1.2,0.3
					c0.2,0.2,0.3,0.6,0.3,1.1v3.2c0,0.6-0.1,0.9-0.3,1.1c-0.2,0.2-0.6,0.3-1.2,0.3H6.9c-0.6,0-1-0.1-1.2-0.3
					c-0.2-0.2-0.3-0.6-0.3-1.1L5.4,266.4L5.4,266.4z M6.8,269.8h4.7v-3.8H6.8L6.8,269.8L6.8,269.8z"/>
				<path fill="#231F20" d="M14.9,271v-6h1l5,4v-4h1.3v6h-1l-5-4.1v4.1H14.9z"/>
				<path fill="#231F20" d="M29.7,266h-4v1.3h3.8c0.6,0,1,0.1,1.2,0.3c0.2,0.2,0.3,0.6,0.3,1.1v0.8c0,0.6-0.1,0.9-0.3,1.1
					c-0.2,0.2-0.6,0.3-1.2,0.3h-3.8c-0.6,0-1-0.1-1.2-0.3c-0.2-0.2-0.3-0.6-0.3-1.1v-0.2l1.3-0.2v0.7h4.3v-1.4h-3.8
					c-0.6,0-1-0.1-1.2-0.3c-0.2-0.2-0.3-0.6-0.3-1.1v-0.7c0-0.5,0.1-0.9,0.3-1.1c0.2-0.2,0.6-0.3,1.2-0.3h3.5c0.6,0,1,0.1,1.2,0.3
					c0.2,0.2,0.3,0.5,0.3,1v0.1l-1.2,0.3L29.7,266L29.7,266z"/>
			</g>
		</g>
	</g>
</g>
</svg>
