<?xml version="1.0" encoding="utf-8"?>
<!-- Generator: Adobe Illustrator 18.1.1, SVG Export Plug-In . SVG Version: 6.00 Build 0)  -->
<svg version="1.1" id="Layer_1" xmlns="http://www.w3.org/2000/svg" xmlns:xlink="http://www.w3.org/1999/xlink" x="0px" y="0px"
	 viewBox="0 0 500 500" enable-background="new 0 0 500 500" xml:space="preserve">
<g>
	<path d="M32.8,243h-9.7v9.8h9.7v-3.3l3.6,0.7v1.8c0,1.4-0.3,2.4-0.8,2.9c-0.5,0.5-1.5,0.8-3,0.8h-9.2c-1.5,0-2.5-0.3-3-0.8
		c-0.5-0.5-0.8-1.5-0.8-2.9v-8.2c0-1.4,0.3-2.4,0.8-2.9c0.5-0.5,1.5-0.8,3-0.8h9.2c1.5,0,2.5,0.3,3,0.8c0.5,0.5,0.8,1.5,0.8,2.9v1.5
		l-3.6,0.6V243z"/>
	<path d="M42.7,255.7v-12.7h3.1v12.7H42.7z"/>
	<path d="M51.4,255.7v-12.7h11.4c1.1,0,1.8,0.2,2.3,0.6c0.5,0.4,0.7,1,0.7,1.9v2.8c0,0.9-0.2,1.5-0.7,1.9c-0.5,0.4-1.2,0.6-2.3,0.6
		h-8.4v4.9H51.4z M61.5,245.2h-7.1v3.4h7.1c0.5,0,0.9-0.1,1.1-0.2s0.3-0.4,0.3-0.8v-1.3c0-0.4-0.1-0.6-0.3-0.8
		C62.4,245.3,62.1,245.2,61.5,245.2z"/>
	<path d="M70.2,255.7v-12.7h3.1v4.8H83v-4.8h3.1v12.7H83v-5.3h-9.6v5.3H70.2z"/>
	<path d="M91.8,255.7v-12.7h13.6v2.2H94.9v2.8h6.1v2.2h-6.1v3.1h10.6v2.4H91.8z"/>
	<path d="M110,255.7v-12.7h11.4c1,0,1.8,0.2,2.3,0.6c0.5,0.4,0.7,1,0.7,1.9v3c0,0.9-0.2,1.5-0.7,1.9c-0.5,0.4-1.2,0.6-2.3,0.6h-1.7
		l6,4.8h-4.4l-5.3-4.8H113v4.8H110z M120.1,245.2H113v3.5h7.1c0.5,0,0.9-0.1,1.1-0.2s0.3-0.4,0.3-0.8v-1.5c0-0.4-0.1-0.6-0.3-0.8
		C121,245.3,120.6,245.2,120.1,245.2z"/>
	<path d="M149.4,243v12.7h-3.6V243h-7.1v-2.8h17.8v2.8H149.4z"/>
	<path d="M159.2,255.7v-12.7h13.6v2.2h-10.5v2.8h6.1v2.2h-6.1v3.1h10.6v2.4H159.2z"/>
	<path d="M188.5,245.4h-8.3v7.9h8.3v-2.7l3.1,0.6v1.5c0,1.2-0.2,1.9-0.7,2.4c-0.5,0.4-1.3,0.6-2.6,0.6h-7.9c-1.3,0-2.1-0.2-2.6-0.6
		c-0.5-0.4-0.7-1.2-0.7-2.4v-6.7c0-1.2,0.2-1.9,0.7-2.4c0.5-0.4,1.3-0.6,2.6-0.6h7.9c1.3,0,2.2,0.2,2.6,0.6c0.5,0.4,0.7,1.2,0.7,2.4
		v1.2l-3.1,0.5V245.4z"/>
	<path d="M196.7,255.7v-12.7h3.1v4.8h9.6v-4.8h3.1v12.7h-3.1v-5.3h-9.6v5.3H196.7z"/>
	<path d="M244.4,243h-10.1v3.3h9.6c1.5,0,2.5,0.3,3.1,0.8c0.5,0.5,0.8,1.5,0.8,2.9v2.1c0,1.4-0.3,2.4-0.8,2.9
		c-0.5,0.5-1.6,0.8-3.1,0.8h-9.6c-1.5,0-2.5-0.3-3.1-0.8c-0.5-0.5-0.8-1.5-0.8-2.9v-0.4l3.2-0.7v1.8h10.9v-3.5h-9.6
		c-1.5,0-2.5-0.3-3-0.8c-0.5-0.5-0.8-1.5-0.8-2.9v-1.7c0-1.4,0.3-2.4,0.8-2.9c0.5-0.5,1.5-0.8,3-0.8h8.8c1.5,0,2.5,0.2,3,0.7
		c0.6,0.5,0.8,1.4,0.8,2.6v0.3l-3.2,0.7V243z"/>
	<path d="M253.8,246.1c0-1.2,0.2-1.9,0.7-2.4c0.4-0.4,1.3-0.6,2.6-0.6h9.8c1.3,0,2.2,0.2,2.6,0.6c0.4,0.4,0.7,1.2,0.7,2.4v6.7
		c0,1.2-0.2,2-0.7,2.4c-0.5,0.4-1.3,0.6-2.6,0.6h-9.8c-1.3,0-2.2-0.2-2.6-0.6c-0.4-0.4-0.7-1.2-0.7-2.4V246.1z M256.9,253.3h10.2
		v-7.9h-10.2V253.3z"/>
	<path d="M275.5,255.7v-12.7h3.1v10.3h9.9v2.4H275.5z"/>
	<path d="M295.7,243.1v10.3h8.8v-10.3h3.1v9.7c0,1.2-0.2,1.9-0.7,2.4s-1.3,0.6-2.6,0.6h-8.4c-1.3,0-2.2-0.2-2.6-0.6
		c-0.5-0.4-0.7-1.2-0.7-2.4v-9.7H295.7z"/>
	<path d="M320.8,245.3v10.4h-3.1v-10.4h-6.1v-2.3H327v2.3H320.8z"/>
	<path d="M331,255.7v-12.7h3.1v12.7H331z"/>
	<path d="M339.4,246.1c0-1.2,0.2-1.9,0.7-2.4c0.4-0.4,1.3-0.6,2.6-0.6h9.8c1.3,0,2.2,0.2,2.6,0.6c0.4,0.4,0.7,1.2,0.7,2.4v6.7
		c0,1.2-0.2,2-0.7,2.4c-0.5,0.4-1.3,0.6-2.6,0.6h-9.8c-1.3,0-2.2-0.2-2.6-0.6c-0.4-0.4-0.7-1.2-0.7-2.4V246.1z M342.5,253.3h10.2
		v-7.9h-10.2V253.3z"/>
	<path d="M361.1,255.7v-12.7h2.1l10.8,8.4v-8.4h2.8v12.7h-2.1l-10.7-8.5v8.5H361.1z"/>
	<path d="M394.2,245.3h-8.7v2.7h8.3c1.3,0,2.2,0.2,2.6,0.6c0.4,0.4,0.7,1.2,0.7,2.4v1.7c0,1.2-0.2,2-0.7,2.4
		c-0.5,0.4-1.3,0.6-2.6,0.6h-8.2c-1.3,0-2.2-0.2-2.7-0.6c-0.5-0.4-0.7-1.2-0.7-2.4v-0.4l2.8-0.5v1.5h9.3v-2.9H386
		c-1.3,0-2.2-0.2-2.6-0.6c-0.5-0.4-0.7-1.2-0.7-2.4v-1.4c0-1.1,0.2-1.9,0.7-2.4c0.5-0.4,1.3-0.6,2.6-0.6h7.5c1.3,0,2.2,0.2,2.6,0.6
		c0.5,0.4,0.7,1.1,0.7,2.1v0.3l-2.7,0.6V245.3z"/>
	<path d="M405.6,251.1h0.5c0.3,0,0.5,0.1,0.6,0.2s0.2,0.4,0.2,0.9v3.1l-3,4.4H402l2.5-4.6h-1.7c-0.3,0-0.4-0.1-0.6-0.2
		c-0.1-0.2-0.2-0.4-0.2-0.9v-1.9c0-0.5,0.1-0.8,0.2-0.9s0.5-0.2,1.1-0.2H405.6z"/>
	<path d="M425,255.7v-15.5h3.6v15.5H425z"/>
	<path d="M435.4,255.7v-12.7h2.1l10.8,8.4v-8.4h2.8v12.7h-2.1l-10.7-8.5v8.5H435.4z"/>
	<path d="M467.8,245.4h-8.3v7.9h8.3v-2.7l3.1,0.6v1.5c0,1.2-0.2,1.9-0.7,2.4s-1.3,0.6-2.6,0.6h-7.9c-1.3,0-2.1-0.2-2.6-0.6
		c-0.5-0.4-0.7-1.2-0.7-2.4v-6.7c0-1.2,0.2-1.9,0.7-2.4c0.5-0.4,1.3-0.6,2.6-0.6h7.9c1.3,0,2.2,0.2,2.6,0.6c0.5,0.4,0.7,1.2,0.7,2.4
		v1.2l-3.1,0.5V245.4z"/>
	<path d="M479.3,251.1h0.5c0.3,0,0.4,0.1,0.6,0.2s0.2,0.4,0.2,0.9v2.4c0,0.5-0.1,0.8-0.2,0.9s-0.5,0.2-1.1,0.2h-2.7
		c-0.3,0-0.4-0.1-0.6-0.2s-0.2-0.4-0.2-0.9v-2.4c0-0.5,0.1-0.8,0.2-0.9s0.5-0.2,1.1-0.2H479.3z"/>
</g>
</svg>
