<?xml version="1.0" encoding="utf-8"?>
<!-- Generator: Adobe Illustrator 16.0.3, SVG Export Plug-In . SVG Version: 6.00 Build 0)  -->
<!DOCTYPE svg PUBLIC "-//W3C//DTD SVG 1.1//EN" "http://www.w3.org/Graphics/SVG/1.1/DTD/svg11.dtd">
<svg version="1.1" xmlns="http://www.w3.org/2000/svg" xmlns:xlink="http://www.w3.org/1999/xlink" x="0px" y="0px" width="150px"
	 height="150px" viewBox="0 0 150 150" enable-background="new 0 0 150 150" xml:space="preserve">
<g id="guides">
</g>
<g id="Layer_2">
	<g>
		<g>
			<g>
				<path fill="#182E6F" d="M131.66,80.581l2.037,0.2c0.19-1.923,0.283-3.849,0.283-5.781h-2.049
					C131.932,76.864,131.844,78.726,131.66,80.581z"/>
			</g>
			<g>
				<path fill="#182E6F" d="M130.847,86.108l2.008,0.4c0.375-1.896,0.657-3.809,0.843-5.726l-2.037-0.202
					C131.48,82.44,131.208,84.283,130.847,86.108z"/>
			</g>
			<g>
				<path fill="#182E6F" d="M129.496,91.531l1.955,0.594c0.562-1.847,1.03-3.722,1.403-5.616l-2.008-0.4
					C130.488,87.942,130.032,89.748,129.496,91.531z"/>
			</g>
			<g>
				<path fill="#182E6F" d="M127.609,96.791l1.893,0.782c0.74-1.779,1.389-3.602,1.949-5.447l-1.955-0.593
					C128.956,93.316,128.328,95.072,127.609,96.791z"/>
			</g>
			<g>
				<path fill="#182E6F" d="M125.218,101.84l1.808,0.969c0.91-1.705,1.736-3.45,2.477-5.235l-1.893-0.78
					C126.897,98.511,126.1,100.198,125.218,101.84z"/>
			</g>
			<g>
				<path fill="#182E6F" d="M122.344,106.63l1.7,1.138c1.071-1.604,2.071-3.261,2.981-4.958l-1.808-0.968
					C124.344,103.484,123.379,105.079,122.344,106.63z"/>
			</g>
			<g>
				<path fill="#182E6F" d="M119.009,111.118l1.585,1.299c1.223-1.495,2.378-3.042,3.45-4.648l-1.701-1.139
					C121.309,108.181,120.191,109.677,119.009,111.118z"/>
			</g>
			<g>
				<path fill="#182E6F" d="M115.254,115.255l1.449,1.447c1.363-1.362,2.664-2.794,3.891-4.284l-1.586-1.3
					C117.83,112.559,116.573,113.94,115.254,115.255z"/>
			</g>
			<g>
				<path fill="#182E6F" d="M111.118,119.008l1.3,1.584c1.49-1.229,2.922-2.525,4.284-3.889l-1.448-1.448
					C113.939,116.573,112.56,117.832,111.118,119.008z"/>
			</g>
			<g>
				<path fill="#182E6F" d="M106.635,122.342l1.132,1.702c1.608-1.073,3.155-2.228,4.651-3.452l-1.301-1.583
					C109.678,120.191,108.182,121.308,106.635,122.342z"/>
			</g>
			<g>
				<path fill="#182E6F" d="M101.844,125.217l0.965,1.807c1.7-0.91,3.357-1.908,4.955-2.979l-1.132-1.7
					C105.082,123.379,103.484,124.341,101.844,125.217z"/>
			</g>
			<g>
				<path fill="#182E6F" d="M96.791,127.611l0.782,1.892c1.784-0.741,3.53-1.569,5.235-2.479l-0.965-1.806
					C100.2,126.102,98.511,126.897,96.791,127.611z"/>
			</g>
			<g>
				<path fill="#182E6F" d="M91.531,129.496l0.595,1.955c1.847-0.559,3.668-1.207,5.446-1.948l-0.781-1.891
					C95.074,128.326,93.315,128.958,91.531,129.496z"/>
			</g>
			<g>
				<path fill="#182E6F" d="M86.111,130.846l0.398,2.008c1.896-0.373,3.771-0.842,5.615-1.402l-0.595-1.955
					C89.746,130.033,87.94,130.486,86.111,130.846z"/>
			</g>
			<g>
				<path fill="#182E6F" d="M80.581,131.66l0.202,2.037c1.917-0.186,3.832-0.468,5.726-0.844l-0.398-2.006
					C84.284,131.208,82.44,131.481,80.581,131.66z"/>
			</g>
			<g>
				<path fill="#182E6F" d="M75.001,131.932v2.047c1.932,0,3.859-0.092,5.781-0.281l-0.203-2.037
					C78.728,131.842,76.864,131.931,75.001,131.932z"/>
			</g>
			<g>
				<path fill="#182E6F" d="M80.5,130.765L80.5,130.765c1.824-0.173,3.639-0.441,5.438-0.798l0,0h0.001
					c0.001,0,0.002-0.001,0.003-0.001l0,0c1.793-0.356,3.574-0.8,5.326-1.333l0,0c1.757-0.529,3.483-1.149,5.18-1.853l0,0
					c0.001,0,0.002,0,0.005,0l0,0l0,0c1.691-0.703,3.346-1.486,4.966-2.354l0,0c1.615-0.862,3.186-1.809,4.71-2.832l0,0h0.001
					c0.001-0.001,0.002-0.002,0.003-0.002l0,0c1.522-1.018,2.999-2.115,4.415-3.277l0,0c1.418-1.164,2.777-2.396,4.073-3.693l0,0
					c0.001,0,0.002-0.001,0.002-0.001c0.001,0,0.001,0,0.002,0l0,0c1.296-1.299,2.529-2.657,3.691-4.074l0,0
					c1.164-1.418,2.261-2.895,3.275-4.418l0,0l0,0c0.003,0,0.003-0.001,0.003-0.001v-0.001c1.024-1.522,1.97-3.094,2.832-4.707l0,0
					h0.001c0-0.002,0.001-0.003,0.001-0.003l0,0c0.864-1.621,1.65-3.273,2.352-4.969l0,0l0.001-0.001
					c0-0.001,0.001-0.002,0.001-0.003l0,0c0.702-1.696,1.323-3.423,1.852-5.179l0,0c0.533-1.751,0.978-3.533,1.335-5.327l0,0
					c0-0.001,0-0.001,0-0.001v-0.002l0,0c0.354-1.8,0.623-3.612,0.796-5.44h0.001c0.18-1.823,0.269-3.661,0.269-5.494l0,0
					c0-0.001,0-0.002,0-0.003l0,0l0,0c0-1.833-0.089-3.67-0.27-5.492h0.001c-0.174-1.828-0.444-3.643-0.797-5.442l0,0v-0.002
					c0-0.001,0-0.002,0-0.003l0,0c-0.359-1.793-0.803-3.573-1.336-5.327l0,0c-0.528-1.754-1.15-3.482-1.853-5.179l0,0
					c0,0,0,0-0.001,0c0,0,0-0.001-0.001-0.003l0,0c-0.701-1.693-1.485-3.349-2.353-4.968l0,0c0,0,0-0.001-0.001-0.002
					c0,0,0-0.001-0.001-0.001l0,0c-0.859-1.615-1.807-3.184-2.832-4.707l0,0V43.87c0-0.001,0-0.001,0-0.003l0,0
					c-1.02-1.523-2.116-2.999-3.281-4.419l0,0c-1.162-1.416-2.393-2.772-3.689-4.069l0,0c-0.001-0.001-0.001-0.002-0.002-0.002
					l-0.001-0.002l0,0c-1.297-1.298-2.657-2.527-4.074-3.691l0,0c-1.417-1.163-2.896-2.26-4.421-3.28l0,0
					c-1.521-1.022-3.091-1.968-4.705-2.829v-0.001c-0.001,0-0.001-0.001-0.004-0.001l0,0v-0.001
					c-1.619-0.867-3.271-1.65-4.967-2.352l0,0c0,0,0-0.001-0.001-0.001s-0.002,0-0.003-0.001l0,0
					c-1.695-0.701-3.421-1.32-5.175-1.851l0,0l0,0c-0.001-0.001-0.001-0.001-0.002-0.001l0,0c-1.755-0.534-3.535-0.978-5.329-1.332
					v-0.001c-0.001,0-0.001,0-0.003,0c-0.001,0-0.001,0-0.002,0l0,0c-1.799-0.356-3.613-0.624-5.441-0.799l0,0
					c-1.823-0.181-3.66-0.267-5.491-0.267l0,0c-0.001,0-0.002,0-0.003,0c0,0,0,0-0.002,0l0,0c-1.831,0-3.668,0.087-5.49,0.267l0,0
					c-0.001,0-0.001,0.001-0.002,0.001c0,0,0,0-0.002,0l0,0c-1.825,0.174-3.64,0.441-5.438,0.799l0,0h-0.002
					c-0.001,0.001-0.002,0.001-0.003,0.002l0,0c-1.793,0.354-3.573,0.798-5.327,1.331l0,0c0,0-0.002,0.001-0.003,0.001l-0.001,0.001
					l0,0c-1.754,0.528-3.479,1.147-5.175,1.851l0,0l0,0c0,0-0.001,0-0.003,0l0,0c-1.693,0.703-3.349,1.487-4.968,2.354l0,0
					c-1.615,0.861-3.186,1.809-4.71,2.832l0,0l-0.001,0.001c-0.001,0.001-0.001,0.001-0.003,0.002l0,0
					c-1.522,1.018-3,2.114-4.415,3.276l0,0c-1.418,1.165-2.776,2.396-4.073,3.693l0,0c-0.001,0.001-0.002,0.001-0.002,0.001h-0.001
					h-0.001c-1.296,1.298-2.525,2.654-3.69,4.073l0,0c0,0,0,0,0,0.001c0,0,0,0-0.001,0l0,0c-1.164,1.418-2.26,2.895-3.277,4.418l0,0
					c0,0-0.002,0-0.003,0v0.002l0,0c-1.022,1.523-1.968,3.094-2.829,4.707h-0.001c-0.001,0-0.001,0.002-0.001,0.003H25.57l0,0
					c-0.866,1.621-1.649,3.273-2.351,4.969l0,0l-0.001,0.002c0,0.001-0.001,0.002-0.001,0.002l0,0
					c-0.701,1.695-1.321,3.421-1.851,5.174l0,0c0,0.001,0,0.002,0,0.003c-0.002,0.001-0.002,0.002-0.002,0.002l0,0
					c-0.533,1.752-0.977,3.533-1.331,5.327h-0.001c0,0.001,0,0.001,0,0.001s0,0.001,0,0.002l0,0c-0.356,1.8-0.625,3.612-0.799,5.44
					l0,0c0,0,0,0.001,0,0.002s0,0.001,0,0.001l0,0c-0.181,1.821-0.268,3.66-0.268,5.491l0,0c0,0,0,0.002,0,0.003l0,0l0,0
					c0,1.834,0.088,3.671,0.268,5.493l0,0c0.001,0,0.001,0.001,0.001,0.001l0,0l0,0c0.173,1.827,0.441,3.642,0.799,5.441l0,0v0.001
					c0.001,0.002,0.001,0.002,0.001,0.003l0,0c0.355,1.793,0.799,3.574,1.332,5.328l0,0l0.001,0.001c0,0,0.001,0.001,0.001,0.002
					l0,0c0.527,1.754,1.147,3.479,1.851,5.175l0,0l0,0c0,0,0,0.001,0,0.003l0,0c0.703,1.693,1.487,3.349,2.354,4.968l0,0
					c0.861,1.615,1.809,3.186,2.832,4.71l0,0c1.018,1.523,2.115,3.002,3.279,4.42l0,0c1.164,1.417,2.396,2.775,3.693,4.072l0,0
					c0,0.001,0.001,0.002,0.001,0.002v0.002l0,0c1.299,1.298,2.657,2.527,4.074,3.691l0,0c1.418,1.164,2.895,2.26,4.418,3.277l0,0
					l0,0l0.002,0.003l0,0c1.523,1.022,3.094,1.968,4.707,2.83l0,0v0.001c0.002,0,0.003,0,0.003,0.002l0,0
					c1.621,0.865,3.273,1.649,4.969,2.351l0,0c0,0.001,0.002,0.001,0.002,0.001l0.002,0.001l0,0
					c1.695,0.701,3.421,1.321,5.174,1.851l0,0c1.755,0.534,3.537,0.978,5.332,1.334l0,0c0.001,0,0.001,0,0.001,0s0.001,0,0.002,0
					l0,0c1.801,0.356,3.615,0.625,5.443,0.799l0,0c1.823,0.182,3.66,0.268,5.491,0.268l0,0
					C76.835,131.033,78.675,130.947,80.5,130.765z M53.604,126.67c-1.692-0.701-3.348-1.482-4.96-2.35
					c-1.611-0.863-3.186-1.805-4.705-2.826c-1.521-1.017-2.99-2.111-4.405-3.273l0,0c-1.415-1.16-2.775-2.388-4.069-3.684
					c-1.295-1.294-2.522-2.653-3.684-4.069c-1.161-1.414-2.256-2.882-3.271-4.401l0,0c-1.022-1.521-1.967-3.095-2.829-4.707
					c-0.864-1.611-1.647-3.268-2.349-4.961c-0.7-1.687-1.318-3.41-1.847-5.165c-0.533-1.75-0.976-3.522-1.331-5.318
					c-0.355-1.798-0.623-3.605-0.797-5.432c-0.181-1.817-0.268-3.651-0.268-5.48l0,0c0-1.828,0.086-3.663,0.267-5.483
					c0.175-1.824,0.442-3.634,0.796-5.43c0.356-1.798,0.799-3.569,1.332-5.32c0.527-1.756,1.146-3.48,1.846-5.166
					c0.702-1.692,1.482-3.347,2.35-4.959c0.863-1.612,1.805-3.187,2.827-4.707c1.016-1.519,2.109-2.987,3.271-4.401l0,0
					c1.162-1.413,2.39-2.775,3.684-4.069l0,0c1.295-1.295,2.655-2.524,4.071-3.685c1.415-1.163,2.883-2.257,4.402-3.275
					c1.521-1.02,3.093-1.963,4.704-2.823l0,0c1.611-0.867,3.27-1.649,4.963-2.352l0,0c1.687-0.7,3.41-1.317,5.165-1.847
					c1.75-0.533,3.522-0.976,5.318-1.331c1.795-0.355,3.605-0.622,5.428-0.797l0,0c1.82-0.181,3.654-0.268,5.482-0.268l0,0
					c1.832,0,3.665,0.086,5.484,0.267c1.824,0.175,3.635,0.442,5.431,0.797c1.798,0.355,3.571,0.798,5.321,1.331
					c1.756,0.528,3.478,1.146,5.164,1.847c1.692,0.7,3.35,1.482,4.962,2.35c1.611,0.862,3.184,1.805,4.705,2.826l0,0
					c1.521,1.017,2.989,2.109,4.401,3.271c1.415,1.162,2.775,2.389,4.071,3.686c1.295,1.292,2.521,2.652,3.684,4.066l0,0
					c1.16,1.415,2.256,2.882,3.27,4.403l0,0c1.023,1.521,1.969,3.095,2.828,4.707c0.867,1.609,1.65,3.267,2.351,4.958
					c0.7,1.688,1.323,3.413,1.848,5.169l0,0c0.533,1.75,0.976,3.521,1.332,5.317s0.621,3.605,0.798,5.429l0,0
					c0.18,1.82,0.266,3.654,0.266,5.483s-0.086,3.663-0.266,5.481l0,0c-0.176,1.825-0.441,3.635-0.797,5.432
					c-0.356,1.798-0.799,3.568-1.331,5.32l0,0c-0.526,1.756-1.147,3.479-1.848,5.166c-0.7,1.692-1.482,3.348-2.35,4.96
					c-0.862,1.612-1.804,3.186-2.825,4.704c-1.017,1.521-2.111,2.989-3.271,4.403l0,0c-1.16,1.414-2.391,2.777-3.684,4.071
					c-1.296,1.295-2.66,2.523-4.072,3.685l0,0c-1.412,1.161-2.883,2.257-4.403,3.272c-1.52,1.021-3.091,1.965-4.704,2.826
					c-1.613,0.865-3.266,1.648-4.959,2.349c-1.686,0.7-3.412,1.319-5.164,1.847l0,0c-1.753,0.534-3.524,0.977-5.321,1.332
					c-1.796,0.355-3.606,0.623-5.432,0.797l0,0c-1.818,0.182-3.652,0.268-5.48,0.268c-1.83,0-3.666-0.086-5.485-0.268l0,0
					c-1.823-0.174-3.633-0.441-5.428-0.795c-1.798-0.357-3.569-0.799-5.321-1.332l0,0C57.013,127.988,55.289,127.369,53.604,126.67z
					"/>
			</g>
			<g>
				<path fill="#182E6F" d="M69.219,133.697c1.922,0.189,3.849,0.281,5.781,0.281v-2.047c-1.864-0.001-3.726-0.09-5.579-0.271
					L69.219,133.697z"/>
			</g>
			<g>
				<path fill="#182E6F" d="M63.892,130.848l-0.4,2.006c1.895,0.376,3.809,0.658,5.726,0.844l0.202-2.037
					C67.56,131.481,65.717,131.208,63.892,130.848z"/>
			</g>
			<g>
				<path fill="#182E6F" d="M58.469,129.496l-0.594,1.955c1.847,0.561,3.722,1.029,5.616,1.402l0.4-2.008
					C62.058,130.486,60.252,130.033,58.469,129.496z"/>
			</g>
			<g>
				<path fill="#182E6F" d="M53.209,127.612l-0.782,1.891c1.779,0.741,3.602,1.39,5.447,1.948l0.594-1.955
					C56.684,128.958,54.928,128.326,53.209,127.612z"/>
			</g>
			<g>
				<path fill="#182E6F" d="M48.16,125.218l-0.969,1.806c1.705,0.91,3.45,1.738,5.235,2.479l0.781-1.892
					C51.489,126.897,49.802,126.102,48.16,125.218z"/>
			</g>
			<g>
				<path fill="#182E6F" d="M43.37,122.344l-1.138,1.7c1.604,1.071,3.261,2.069,4.959,2.979l0.967-1.807
					C46.516,124.341,44.921,123.379,43.37,122.344z"/>
			</g>
			<g>
				<path fill="#182E6F" d="M38.882,119.01l-1.299,1.582c1.495,1.225,3.042,2.38,4.648,3.452l1.139-1.701
					C41.819,121.308,40.322,120.191,38.882,119.01z"/>
			</g>
			<g>
				<path fill="#182E6F" d="M34.745,115.255l-1.447,1.448c1.362,1.363,2.795,2.661,4.284,3.889l1.3-1.584
					C37.441,117.832,36.06,116.573,34.745,115.255z"/>
			</g>
			<g>
				<path fill="#182E6F" d="M30.992,111.118l-1.583,1.3c1.228,1.49,2.524,2.922,3.888,4.284l1.448-1.447
					C33.428,113.941,32.168,112.559,30.992,111.118z"/>
			</g>
			<g>
				<path fill="#182E6F" d="M27.658,106.63l-1.701,1.139c1.072,1.606,2.227,3.153,3.451,4.649l1.583-1.3
					C29.809,109.677,28.693,108.181,27.658,106.63z"/>
			</g>
			<g>
				<path fill="#182E6F" d="M24.783,101.842l-1.806,0.969c0.909,1.696,1.907,3.354,2.979,4.958l1.699-1.139
					C26.621,105.08,25.66,103.484,24.783,101.842z"/>
			</g>
			<g>
				<path fill="#182E6F" d="M22.388,96.794l-1.891,0.78c0.741,1.784,1.569,3.529,2.479,5.234l1.806-0.968
					C23.899,100.198,23.103,98.511,22.388,96.794z"/>
			</g>
			<g>
				<path fill="#182E6F" d="M20.504,91.534l-1.955,0.592c0.559,1.847,1.207,3.668,1.948,5.447l1.89-0.782
					C21.674,95.072,21.042,93.316,20.504,91.534z"/>
			</g>
			<g>
				<path fill="#182E6F" d="M19.154,86.109l-2.008,0.4c0.373,1.894,0.842,3.769,1.402,5.615l1.955-0.594
					C19.966,89.749,19.512,87.942,19.154,86.109z"/>
			</g>
			<g>
				<path fill="#182E6F" d="M18.34,80.581l-2.037,0.202c0.185,1.918,0.468,3.83,0.844,5.726l2.006-0.4
					C18.792,84.284,18.519,82.44,18.34,80.581z"/>
			</g>
			<g>
				<path fill="#182E6F" d="M18.07,75.001h-2.049c0,1.932,0.092,3.858,0.281,5.781l2.037-0.201
					C18.158,78.726,18.07,76.864,18.07,75.001z"/>
			</g>
			<g>
				<path fill="#182E6F" d="M18.34,69.419l-2.037-0.2c-0.189,1.923-0.281,3.849-0.281,5.781h2.049
					C18.07,73.137,18.158,71.274,18.34,69.419z"/>
			</g>
			<g>
				<path fill="#182E6F" d="M19.152,63.892l-2.006-0.4c-0.376,1.896-0.659,3.809-0.844,5.726l2.037,0.202
					C18.519,67.56,18.792,65.717,19.152,63.892z"/>
			</g>
			<g>
				<path fill="#182E6F" d="M20.504,58.469l-1.955-0.594c-0.561,1.847-1.029,3.722-1.402,5.616l2.008,0.4
					C19.512,62.058,19.966,60.252,20.504,58.469z"/>
			</g>
			<g>
				<path fill="#182E6F" d="M22.387,53.209l-1.89-0.782c-0.741,1.779-1.39,3.602-1.948,5.447l1.955,0.594
					C21.042,56.684,21.674,54.928,22.387,53.209z"/>
			</g>
			<g>
				<path fill="#182E6F" d="M24.782,48.16l-1.806-0.969c-0.91,1.705-1.738,3.45-2.479,5.235l1.891,0.781
					C23.103,51.489,23.899,49.802,24.782,48.16z"/>
			</g>
			<g>
				<path fill="#182E6F" d="M27.656,43.37l-1.699-1.138c-1.072,1.604-2.07,3.261-2.98,4.959l1.807,0.967
					C25.66,46.516,26.621,44.921,27.656,43.37z"/>
			</g>
			<g>
				<path fill="#182E6F" d="M30.991,38.882l-1.583-1.299c-1.225,1.495-2.379,3.042-3.451,4.648l1.7,1.139
					C28.693,41.819,29.809,40.323,30.991,38.882z"/>
			</g>
			<g>
				<path fill="#182E6F" d="M34.745,34.745l-1.448-1.447c-1.363,1.362-2.66,2.795-3.889,4.284l1.584,1.3
					C32.168,37.441,33.427,36.06,34.745,34.745z"/>
			</g>
			<g>
				<path fill="#182E6F" d="M38.882,30.992l-1.3-1.583c-1.49,1.229-2.922,2.524-4.284,3.888l1.447,1.448
					C36.059,33.428,37.441,32.169,38.882,30.992z"/>
			</g>
			<g>
				<path fill="#182E6F" d="M43.37,27.658l-1.139-1.701c-1.606,1.072-3.153,2.227-4.648,3.451l1.299,1.583
					C40.322,29.809,41.819,28.694,43.37,27.658z"/>
			</g>
			<g>
				<path fill="#182E6F" d="M48.158,24.783l-0.968-1.806c-1.697,0.909-3.355,1.907-4.958,2.979l1.138,1.699
					C44.92,26.621,46.516,25.661,48.158,24.783z"/>
			</g>
			<g>
				<path fill="#182E6F" d="M53.207,22.388l-0.78-1.891c-1.785,0.741-3.53,1.569-5.235,2.479l0.969,1.806
					C49.802,23.899,51.489,23.103,53.207,22.388z"/>
			</g>
			<g>
				<path fill="#182E6F" d="M58.467,20.505l-0.593-1.956c-1.847,0.559-3.668,1.207-5.447,1.948l0.782,1.89
					C54.928,21.674,56.684,21.042,58.467,20.505z"/>
			</g>
			<g>
				<path fill="#182E6F" d="M63.891,19.154l-0.4-2.007c-1.894,0.372-3.769,0.841-5.615,1.401l0.594,1.956
					C60.251,19.966,62.058,19.512,63.891,19.154z"/>
			</g>
			<g>
				<path fill="#182E6F" d="M69.419,18.34l-0.202-2.037c-1.917,0.185-3.831,0.468-5.726,0.845l0.4,2.006
					C65.716,18.792,67.56,18.519,69.419,18.34z"/>
			</g>
			<g>
				<path fill="#182E6F" d="M74.999,18.07v-2.049c-1.932,0-3.858,0.093-5.781,0.281l0.201,2.037
					C71.274,18.158,73.136,18.07,74.999,18.07z"/>
			</g>
			<g>
				<path fill="#182E6F" d="M80.781,16.303c-1.921-0.188-3.849-0.281-5.78-0.281L75,18.07c1.864,0,3.728,0.088,5.579,0.27
					L80.781,16.303z"/>
			</g>
			<g>
				<path fill="#182E6F" d="M86.108,19.153l0.4-2.006c-1.894-0.377-3.809-0.66-5.726-0.845l-0.202,2.037
					C82.44,18.519,84.283,18.792,86.108,19.153z"/>
			</g>
			<g>
				<path fill="#182E6F" d="M91.53,20.505l0.595-1.956c-1.847-0.561-3.722-1.029-5.616-1.401l-0.397,2.007
					C87.939,19.512,89.746,19.966,91.53,20.505z"/>
			</g>
			<g>
				<path fill="#182E6F" d="M96.791,22.387l0.78-1.89c-1.777-0.741-3.6-1.39-5.445-1.948l-0.595,1.956
					C93.315,21.042,95.074,21.674,96.791,22.387z"/>
			</g>
			<g>
				<path fill="#182E6F" d="M101.844,24.782l0.965-1.806c-1.705-0.91-3.451-1.738-5.235-2.479l-0.782,1.891
					C98.51,23.103,100.199,23.899,101.844,24.782z"/>
			</g>
			<g>
				<path fill="#182E6F" d="M106.631,27.656l1.133-1.699c-1.598-1.072-3.255-2.07-4.955-2.98l-0.965,1.807
					C103.484,25.66,105.082,26.621,106.631,27.656z"/>
			</g>
			<g>
				<path fill="#182E6F" d="M111.117,30.991l1.301-1.583c-1.496-1.225-3.043-2.379-4.651-3.451l-1.135,1.7
					C108.181,28.694,109.677,29.809,111.117,30.991z"/>
			</g>
			<g>
				<path fill="#182E6F" d="M115.254,34.745l1.447-1.448c-1.361-1.363-2.794-2.659-4.283-3.889l-1.3,1.584
					C112.56,32.169,113.939,33.427,115.254,34.745z"/>
			</g>
			<g>
				<path fill="#182E6F" d="M119.008,38.882l1.586-1.3c-1.227-1.49-2.527-2.922-3.891-4.284l-1.449,1.447
					C116.573,36.059,117.83,37.441,119.008,38.882z"/>
			</g>
			<g>
				<path fill="#182E6F" d="M122.343,43.37l1.701-1.139c-1.072-1.606-2.228-3.153-3.45-4.648l-1.585,1.299
					C120.191,40.323,121.309,41.819,122.343,43.37z"/>
			</g>
			<g>
				<path fill="#182E6F" d="M125.217,48.158l1.809-0.968c-0.91-1.697-1.91-3.355-2.981-4.958l-1.7,1.138
					C123.379,44.92,124.344,46.516,125.217,48.158z"/>
			</g>
			<g>
				<path fill="#182E6F" d="M127.609,53.207l1.893-0.78c-0.74-1.785-1.566-3.53-2.477-5.235l-1.808,0.969
					C126.1,49.802,126.897,51.489,127.609,53.207z"/>
			</g>
			<g>
				<path fill="#182E6F" d="M129.495,58.467l1.956-0.593c-0.561-1.847-1.209-3.668-1.949-5.447l-1.893,0.782
					C128.328,54.928,128.956,56.684,129.495,58.467z"/>
			</g>
			<g>
				<path fill="#182E6F" d="M130.847,63.891l2.008-0.399c-0.373-1.895-0.842-3.77-1.403-5.616l-1.955,0.594
					C130.032,60.251,130.488,62.058,130.847,63.891z"/>
			</g>
			<g>
				<path fill="#182E6F" d="M131.66,69.419l2.037-0.202c-0.186-1.918-0.468-3.83-0.843-5.726l-2.008,0.4
					C131.208,65.716,131.48,67.56,131.66,69.419z"/>
			</g>
			<g>
				<path fill="#182E6F" d="M131.66,69.419c0.184,1.855,0.271,3.717,0.271,5.58h2.049c0-1.932-0.093-3.858-0.283-5.78L131.66,69.419
					z"/>
			</g>
			<g>
				<path fill="#182E6F" d="M135,74.997L135,74.997L135,74.997c-0.001-1.96-0.095-3.923-0.287-5.878l0,0l0,0
					c0-0.003,0-0.003,0-0.003v-0.001c-0.188-1.951-0.475-3.899-0.853-5.821h0.001c-0.385-1.931-0.861-3.836-1.434-5.717l0,0
					c-0.566-1.88-1.232-3.729-1.979-5.544l0,0c0-0.001-0.001-0.002-0.001-0.003l-0.001-0.002l0,0
					c-0.755-1.813-1.598-3.586-2.526-5.322l0,0c0,0,0,0,0-0.001v-0.001l0,0c-0.925-1.729-1.936-3.409-3.029-5.044l0,0
					c-1.089-1.634-2.261-3.207-3.51-4.724l0,0c-0.001-0.001-0.002-0.002-0.002-0.002c-0.001-0.001-0.002-0.002-0.002-0.002v-0.001
					c-1.242-1.515-2.564-2.972-3.949-4.357l0,0c-1.39-1.389-2.848-2.71-4.361-3.955l0,0c0,0-0.003-0.001-0.004-0.001
					c0,0-0.001,0-0.002,0l0,0c-1.517-1.25-3.09-2.421-4.721-3.51l0,0l0,0c0,0-0.001-0.001-0.003-0.002l0,0
					c-1.636-1.094-3.315-2.103-5.048-3.03l0,0v-0.001l0,0l0,0c-1.734-0.926-3.506-1.769-5.323-2.521l0,0
					c-0.001,0-0.002-0.001-0.003-0.003l0,0l0,0c-1.811-0.748-3.665-1.414-5.545-1.983l0,0c-0.001,0-0.003,0-0.004,0h-0.001l0,0
					c-1.876-0.568-3.78-1.045-5.708-1.426l0,0c-1.923-0.38-3.873-0.667-5.825-0.854l0,0c0,0-0.001,0-0.002,0
					c-0.002,0-0.002,0-0.002,0l0,0C78.925,15.093,76.958,15,75,15l0,0c-0.001,0-0.002,0-0.003,0c0,0-0.002,0-0.003,0l0,0
					c-1.958,0-3.92,0.093-5.874,0.287l0,0c-0.002,0-0.004,0-0.004,0h-0.001l0,0c-1.953,0.189-3.9,0.475-5.824,0.854l0,0
					c-1.929,0.382-3.833,0.858-5.71,1.426l0,0H57.58c-0.001,0-0.003,0.001-0.003,0.001v0.001c-1.88,0.569-3.729,1.235-5.544,1.984
					l0,0c-0.001,0-0.002,0-0.003,0c0,0-0.001,0-0.002,0l0,0c-1.813,0.755-3.586,1.598-5.322,2.523l0,0c0,0,0,0.001-0.001,0.002
					l-0.001,0.001l0,0c-1.729,0.927-3.409,1.936-5.044,3.028l0,0c0,0,0,0.002,0,0.003l0,0l0,0c-1.635,1.087-3.209,2.259-4.724,3.508
					l0,0c-0.001,0.001-0.001,0.002-0.001,0.002c-0.002,0.001-0.002,0.002-0.004,0.002l0,0c-1.515,1.243-2.972,2.564-4.357,3.952l0,0
					c-0.002,0-0.002,0-0.002,0l-0.002,0.001l0,0c-1.387,1.387-2.707,2.845-3.951,4.361l0,0l-0.002,0.001v0.001l0,0
					c-1.249,1.515-2.421,3.09-3.509,4.722l0,0c0,0,0,0-0.001,0c0,0,0,0.001-0.001,0.001l0,0c-1.094,1.638-2.103,3.317-3.03,5.046
					l0,0c-0.001,0.001-0.001,0.003-0.001,0.003v0.002l0,0c-0.926,1.734-1.769,3.504-2.522,5.321l0,0l0,0
					c0,0-0.001,0.001-0.002,0.003l0,0c-0.748,1.812-1.414,3.665-1.983,5.545l0,0l0,0c0,0,0,0.001,0,0.003l0,0
					c-0.568,1.881-1.045,3.782-1.427,5.71l0,0c-0.379,1.924-0.666,3.872-0.854,5.824l0,0c0,0,0,0.001,0,0.002s0,0.003,0,0.003l0,0
					C15.093,71.075,15,73.041,15,75l0,0c0,0.002,0,0.002,0,0.002v0.001l0,0c0,1.961,0.093,3.923,0.287,5.878l0,0
					c0,0.003,0,0.003,0,0.003v0.001l0,0c0.188,1.951,0.475,3.899,0.854,5.821l0,0c0,0.001,0,0.002,0,0.002s0,0,0,0.001l0,0
					c0.384,1.929,0.861,3.834,1.429,5.714l0,0c0.569,1.882,1.235,3.73,1.983,5.549l0,0c0.756,1.813,1.599,3.586,2.524,5.322l0,0
					c0,0,0.001,0,0.002,0.001l0.001,0.001l0,0c0.926,1.729,1.936,3.409,3.028,5.044l0,0c0,0,0.001,0,0.003,0.001l0,0l0,0
					c1.087,1.634,2.259,3.208,3.508,4.724l0,0c0,0,0.002,0,0.002,0.002c0.001,0,0.002,0.001,0.002,0.001v0.001
					c1.242,1.515,2.564,2.972,3.951,4.358l0,0c0,0,0,0.001,0,0.002l0.002,0.001l0,0c1.387,1.387,2.845,2.708,4.361,3.951l0,0
					c1.516,1.25,3.09,2.422,4.723,3.511l0,0v0.001c0.002,0,0.002,0.001,0.002,0.001l0,0c1.637,1.094,3.317,2.103,5.046,3.029l0,0
					l0.001,0.001c0.001,0.001,0.002,0.001,0.004,0.001l0,0c1.734,0.927,3.504,1.769,5.321,2.522l0,0v0.001
					c0,0,0.002,0.001,0.003,0.001l0,0c1.812,0.75,3.665,1.414,5.545,1.983l0,0l0,0c0,0,0.001,0,0.004,0l0,0
					c1.88,0.568,3.781,1.045,5.709,1.427l0,0c1.925,0.379,3.875,0.666,5.829,0.855v-0.002C71.075,134.907,73.042,135,75,135l0,0
					c0.001,0,0.002,0,0.003,0c0,0,0.002,0,0.003,0l0,0c1.958,0,3.92-0.093,5.874-0.287l0,0c1.955-0.189,3.905-0.475,5.831-0.854l0,0
					c1.927-0.383,3.828-0.859,5.708-1.427l0,0c0.002-0.001,0.003-0.002,0.004-0.003l0,0l0,0c1.879-0.568,3.729-1.234,5.544-1.982
					l0,0c0.002,0,0.003,0,0.004,0s0.001,0,0.001,0l0,0c1.813-0.756,3.586-1.599,5.317-2.524l0,0
					c0.004-0.001,0.005-0.001,0.006-0.001s0.001,0,0.001,0l0,0c1.729-0.928,3.41-1.938,5.044-3.03l0,0c0,0,0,0,0-0.001v-0.002l0,0
					c1.635-1.087,3.209-2.259,4.727-3.508l0,0c1.514-1.244,2.973-2.567,4.361-3.955l0,0c1.388-1.387,2.709-2.847,3.957-4.365l0,0
					c1.248-1.515,2.419-3.09,3.506-4.721l0,0c0.001-0.001,0.001-0.001,0.002-0.001l0.001-0.001l0,0
					c1.093-1.637,2.104-3.317,3.026-5.045l0,0v-0.001c0.003-0.001,0.004-0.003,0.005-0.005l0,0c0.926-1.733,1.767-3.504,2.523-5.32
					l0,0c0.001-0.001,0.001-0.001,0.001-0.002v-0.002l0,0c0.749-1.812,1.414-3.665,1.981-5.545l0,0l0,0
					c0.001-0.001,0.001-0.001,0.002-0.003l0,0c0.567-1.881,1.045-3.782,1.429-5.71l0,0c0.377-1.924,0.664-3.872,0.852-5.824l0,0
					C134.905,78.926,135,76.962,135,75l0,0C135,74.999,135,74.998,135,74.997z M133.739,86.681
					c-0.382,1.924-0.854,3.827-1.425,5.702l0,0c-0.566,1.877-1.229,3.724-1.979,5.531c-0.753,1.814-1.593,3.59-2.519,5.316
					c-0.922,1.726-1.934,3.408-3.024,5.036c-1.092,1.629-2.263,3.207-3.506,4.721l0,0c-1.237,1.513-2.558,2.968-3.941,4.351l0,0
					c-1.388,1.385-2.843,2.707-4.354,3.948l0,0c-1.515,1.241-3.092,2.411-4.719,3.503s-3.311,2.1-5.037,3.025
					c-1.728,0.924-3.5,1.766-5.314,2.519c-1.805,0.749-3.653,1.413-5.528,1.979c-1.877,0.568-3.784,1.044-5.711,1.427l0,0
					c-1.92,0.382-3.863,0.665-5.813,0.852c-1.946,0.192-3.909,0.286-5.862,0.286l0,0c-1.958,0-3.921-0.093-5.87-0.286
					c-1.949-0.187-3.896-0.47-5.816-0.852l0,0c-1.924-0.382-3.829-0.857-5.705-1.424c-1.877-0.568-3.724-1.233-5.531-1.981
					c-1.813-0.753-3.587-1.594-5.314-2.519l0,0c-1.726-0.925-3.409-1.933-5.038-3.025l0,0c-1.627-1.091-3.205-2.261-4.718-3.504l0,0
					c-1.513-1.239-2.968-2.558-4.351-3.942l0,0c-1.385-1.387-2.705-2.84-3.948-4.354c-1.241-1.515-2.409-3.09-3.502-4.718
					c-1.092-1.629-2.101-3.311-3.026-5.038c-0.924-1.726-1.765-3.5-2.518-5.313c-0.75-1.809-1.414-3.656-1.982-5.533
					c-0.566-1.876-1.042-3.781-1.424-5.708c-0.383-1.916-0.664-3.86-0.853-5.809c-0.192-1.948-0.286-3.912-0.286-5.869
					s0.094-3.92,0.286-5.866c0.187-1.949,0.47-3.894,0.851-5.813l0,0c0.383-1.927,0.858-3.834,1.425-5.711
					c0.568-1.876,1.233-3.723,1.98-5.53c0.753-1.813,1.595-3.584,2.519-5.312c0.926-1.728,1.933-3.412,3.026-5.041
					c1.091-1.627,2.261-3.203,3.502-4.716c1.241-1.515,2.56-2.97,3.945-4.354c1.386-1.384,2.84-2.704,4.353-3.946
					c1.514-1.24,3.092-2.411,4.72-3.502c1.627-1.093,3.31-2.101,5.036-3.025c1.726-0.924,3.5-1.766,5.313-2.519
					c1.809-0.748,3.654-1.413,5.531-1.98c1.878-0.567,3.783-1.044,5.71-1.427l0,0c1.92-0.381,3.863-0.664,5.813-0.852
					c1.947-0.191,3.91-0.286,5.865-0.286c1.959,0,3.922,0.095,5.869,0.286c1.949,0.188,3.893,0.471,5.81,0.851l0,0
					c1.926,0.383,3.833,0.858,5.711,1.425c1.876,0.567,3.721,1.234,5.527,1.979c1.814,0.755,3.592,1.597,5.317,2.522
					c1.725,0.925,3.409,1.931,5.038,3.024c1.627,1.092,3.203,2.261,4.718,3.503c1.513,1.24,2.967,2.56,4.353,3.943l0,0
					c1.384,1.387,2.705,2.841,3.946,4.355l0,0c1.242,1.513,2.412,3.091,3.503,4.718c1.092,1.627,2.1,3.31,3.024,5.036
					c0.926,1.726,1.766,3.5,2.521,5.313c0.747,1.809,1.411,3.654,1.979,5.531c0.569,1.878,1.044,3.783,1.427,5.71l0,0
					c0.382,1.919,0.664,3.864,0.852,5.811c0.193,1.949,0.284,3.911,0.284,5.867c0,1.957-0.088,3.922-0.284,5.871l0,0
					C134.403,82.815,134.121,84.761,133.739,86.681z"/>
			</g>
			<g>
				<path fill="#182E6F" d="M34.499,98.781c0.076-0.044,0.095-0.094,0.049-0.175c-0.144-0.272-0.274-0.546-0.421-0.834
					c-0.604,0.297-1.182,0.591-1.78,0.886c-0.331-0.654-0.647-1.294-0.982-1.92c-0.113-0.214-0.097-0.377,0.017-0.582
					c0.304-0.544,0.58-1.103,0.881-1.651c0.071-0.143,0.094-0.256,0.016-0.408c-0.323-0.592-0.639-1.185-0.803-1.841
					c-0.003-0.014-0.01-0.023-0.01-0.036c-0.033-0.121-0.11-0.17-0.235-0.187c-0.307-0.041-0.604-0.101-0.911-0.142
					c-0.141-0.017-0.221-0.068-0.262-0.199c-0.323-0.951-0.641-1.907-0.965-2.858c-0.047-0.135-0.022-0.229,0.077-0.327
					c0.218-0.213,0.426-0.44,0.646-0.663c0.076-0.081,0.134-0.149,0.085-0.285c-0.114-0.298-0.204-0.601-0.333-0.979
					c-0.137,0.149-0.226,0.248-0.322,0.345c-1.098,1.154-2.2,2.313-3.295,3.47c-0.199,0.202-0.467,0.382-0.556,0.622
					c-0.092,0.272,0.157,0.556,0.212,0.839c0.048,0.256,0.199,0.35,0.447,0.391c1.561,0.245,3.123,0.504,4.684,0.755
					c0.335,0.058,0.668,0.116,1.057,0.188c-0.409,0.741-0.795,1.446-1.174,2.15c-0.045-0.018-0.058-0.021-0.066-0.03
					c-0.033-0.033-0.072-0.065-0.109-0.096c-0.461-0.441-0.994-0.577-1.592-0.359c-0.645,0.227-1.109,0.635-1.231,1.337
					c-0.072,0.431,0.044,0.83,0.233,1.209c0.592,1.172,1.184,2.344,1.777,3.515c0.131,0.26,0.138,0.262,0.403,0.126
					c1.44-0.73,2.888-1.464,4.332-2.192C34.406,98.828,34.453,98.805,34.499,98.781z M26.643,91.278
					c0.086-0.239,0.843-1.073,1.623-1.78c0.271,0.701,0.482,1.409,0.744,2.171C28.183,91.534,27.41,91.403,26.643,91.278z
					 M31.253,99.224c-0.312,0.138-0.611,0.303-0.915,0.459c-0.128,0.07-0.192,0.049-0.261-0.079
					c-0.428-0.867-0.863-1.728-1.302-2.589c-0.07-0.149-0.096-0.304-0.117-0.466c0.008-0.317,0.193-0.514,0.47-0.631
					c0.28-0.119,0.496-0.084,0.708,0.121c0.105,0.109,0.189,0.23,0.254,0.357c0.423,0.831,0.836,1.664,1.26,2.49
					C31.437,99.049,31.45,99.141,31.253,99.224z"/>
			</g>
			<g>
				<path fill="#182E6F" d="M124.747,82.189c-0.208,0.375-0.364,0.772-0.482,1.188c-0.229,0.761-0.444,1.526-0.667,2.296
					c-0.067,0.223-0.146,0.441-0.283,0.636c-0.346,0.473-0.916,0.431-1.184-0.1c-0.119-0.232-0.163-0.486-0.17-0.744
					c-0.023-0.763,0.135-1.493,0.407-2.197c0.25-0.645,0.614-1.226,1.07-1.749c0.063-0.071,0.187-0.139,0.071-0.269
					c-0.223-0.243-0.441-0.49-0.664-0.731c-0.197,0.117-0.326,0.263-0.452,0.406c-0.516,0.567-0.861,1.226-1.096,1.943
					c-0.332,1.008-0.541,2.035-0.435,3.106c0.043,0.458,0.174,0.895,0.453,1.271c0.711,0.958,2.091,0.965,2.796,0.005
					c0.128-0.163,0.228-0.353,0.319-0.533c0.262-0.493,0.403-1.025,0.55-1.56c0.153-0.525,0.3-1.061,0.458-1.587
					c0.076-0.248,0.18-0.486,0.368-0.67c0.253-0.241,0.563-0.204,0.733,0.104c0.111,0.183,0.146,0.386,0.155,0.603
					c0.027,0.602-0.085,1.19-0.274,1.767c-0.203,0.667-0.532,1.268-0.951,1.818c-0.074,0.097-0.166,0.179-0.059,0.318
					c0.195,0.247,0.387,0.505,0.566,0.748c0.121-0.026,0.174-0.103,0.225-0.165c1.227-1.398,1.68-3.05,1.57-4.873
					c-0.025-0.406-0.183-0.78-0.41-1.13C126.873,81.353,125.412,80.987,124.747,82.189z"/>
			</g>
			<g>
				<path fill="#182E6F" d="M42.96,109.225c-0.976-1.031-1.954-2.064-2.938-3.1c-0.261-0.271-0.569-0.498-0.934-0.634
					c-0.448-0.17-0.867-0.11-1.248,0.179c-0.505,0.393-0.759,0.892-0.621,1.581c-0.098,0.006-0.154,0.013-0.22,0.014
					c-0.994,0.028-1.634,0.962-1.309,1.91c0.116,0.336,0.328,0.602,0.563,0.854c0.91,0.964,1.817,1.93,2.729,2.886
					c0.061,0.064,0.098,0.143,0.2,0.168c0.138-0.069,0.241-0.198,0.356-0.306c1.121-1.06,2.242-2.122,3.366-3.183
					C43.114,109.395,43.117,109.391,42.96,109.225z M39.857,111.014c-0.194,0.159-0.383,0.345-0.563,0.524
					c-0.098,0.101-0.179,0.103-0.275-0.006c-0.138-0.152-0.283-0.305-0.422-0.455c-0.563-0.587-1.118-1.178-1.672-1.769
					c-0.146-0.149-0.275-0.313-0.275-0.542c-0.002-0.42,0.445-0.673,0.857-0.493c0.126,0.06,0.225,0.149,0.316,0.248
					c0.672,0.713,1.351,1.431,2.028,2.142C39.979,110.794,40.018,110.881,39.857,111.014z M41.48,109.473
					c-0.241,0.229-0.484,0.448-0.721,0.668c-0.125-0.049-0.186-0.146-0.265-0.222c-0.665-0.705-1.331-1.41-1.999-2.117
					c-0.117-0.123-0.232-0.251-0.304-0.406c-0.12-0.27-0.074-0.482,0.151-0.7c0.192-0.193,0.414-0.229,0.669-0.104
					c0.158,0.082,0.292,0.191,0.409,0.321c0.691,0.725,1.383,1.455,2.072,2.189C41.667,109.284,41.662,109.293,41.48,109.473z"/>
			</g>
			<g>
				<path fill="#182E6F" d="M83.268,28.845c0.194,0.042,0.38,0.098,0.574,0.146c0.265,0.066,0.266,0.066,0.341-0.205
					c0.268-1.056,0.537-2.111,0.814-3.165c0.033-0.133,0.039-0.284,0.16-0.463c0.566,1.277,1.123,2.516,1.686,3.772
					c1.109-0.843,2.19-1.655,3.272-2.47c-0.012,0.317-0.071,0.586-0.145,0.858c-0.238,0.938-0.47,1.878-0.726,2.813
					c-0.049,0.195-0.003,0.263,0.178,0.298c0.178,0.038,0.355,0.097,0.533,0.136c0.265,0.065,0.267,0.065,0.339-0.217
					c0.247-0.95,0.491-1.9,0.732-2.851c0.165-0.611,0.32-1.23,0.477-1.85c0.071-0.27,0.068-0.271-0.206-0.345
					c-0.187-0.049-0.382-0.083-0.566-0.15c-0.241-0.082-0.433-0.041-0.639,0.121c-0.839,0.66-1.694,1.293-2.547,1.936
					c-0.097,0.071-0.183,0.166-0.32,0.199c-0.035-0.06-0.072-0.123-0.098-0.187c-0.468-1.04-0.937-2.084-1.396-3.126
					c-0.074-0.169-0.159-0.28-0.359-0.313c-0.23-0.041-0.45-0.119-0.678-0.172c-0.264-0.07-0.271-0.064-0.348,0.207
					c-0.168,0.663-0.34,1.325-0.508,1.993c-0.232,0.928-0.465,1.855-0.709,2.779C83.086,28.749,83.113,28.812,83.268,28.845z"/>
			</g>
			<g>
				<path fill="#182E6F" d="M90.972,30.725c-0.064,0.121-0.062,0.199,0.09,0.255c0.169,0.062,0.33,0.144,0.502,0.225
					c0.305,0.138,0.307,0.138,0.445-0.162c0.451-1.001,0.907-2.01,1.359-3.01c0.051-0.108,0.074-0.234,0.206-0.328
					c0.341,1.331,0.671,2.637,1.004,3.976c1.245-0.641,2.438-1.252,3.631-1.859c0.02,0.015,0.043,0.032,0.055,0.051
					c-0.535,1.2-1.073,2.4-1.625,3.616c0.286,0.13,0.547,0.235,0.797,0.366c0.149,0.076,0.217,0.024,0.271-0.114
					c0.165-0.371,0.333-0.739,0.503-1.104c0.512-1.143,1.017-2.282,1.537-3.418c0.076-0.171,0.076-0.263-0.107-0.332
					c-0.207-0.082-0.416-0.172-0.607-0.275c-0.205-0.114-0.381-0.094-0.582,0.015c-0.954,0.502-1.916,0.988-2.878,1.48
					c-0.106,0.058-0.202,0.141-0.343,0.137c-0.103-0.128-0.103-0.3-0.138-0.443c-0.267-1.027-0.52-2.047-0.78-3.066
					c-0.033-0.137-0.038-0.286-0.221-0.35c-0.319-0.123-0.628-0.277-0.933-0.413c-0.104,0.09-0.131,0.201-0.171,0.301
					c-0.607,1.335-1.209,2.678-1.817,4.022C91.104,30.435,91.038,30.581,90.972,30.725z"/>
			</g>
			<g>
				<path fill="#182E6F" d="M34.146,43.043c1.186,1.04,2.381,2.085,3.572,3.126c0.074,0.062,0.15,0.123,0.245,0.196
					c0.231-0.261,0.458-0.519,0.701-0.796c-0.252-0.221-0.493-0.43-0.731-0.641c-0.249-0.221-0.492-0.44-0.739-0.656
					c0.02-0.046,0.03-0.085,0.054-0.112c0.476-0.545,0.957-1.091,1.427-1.638c0.104-0.122,0.207-0.139,0.357-0.119
					c0.643,0.076,1.294,0.136,1.938,0.195c0.104,0.011,0.228,0.061,0.318-0.035c0.242-0.271,0.479-0.546,0.755-0.864
					c-0.856-0.101-1.646-0.198-2.419-0.288c-0.006-0.052-0.013-0.065-0.009-0.075c0.022-0.069,0.05-0.141,0.067-0.206
					c0.219-0.646,0.08-1.213-0.416-1.682c-0.502-0.477-1.076-0.676-1.753-0.441c-0.356,0.122-0.638,0.365-0.884,0.649
					c-0.845,0.965-1.692,1.938-2.544,2.91c-0.042,0.043-0.075,0.093-0.12,0.141c-0.059,0.064-0.051,0.125,0.013,0.186
					C34.037,42.945,34.088,42.991,34.146,43.043z M35.458,42.495c0.639-0.717,1.266-1.438,1.899-2.153
					c0.166-0.187,0.359-0.334,0.631-0.338c0.542-0.014,0.893,0.551,0.627,1.025c-0.063,0.117-0.147,0.226-0.236,0.327
					c-0.586,0.675-1.174,1.354-1.766,2.025c-0.192,0.212-0.195,0.212-0.396,0.036c-0.244-0.207-0.479-0.421-0.725-0.625
					C35.382,42.699,35.344,42.626,35.458,42.495z"/>
			</g>
			<g>
				<path fill="#182E6F" d="M23.129,74.253c0.043,0.001,0.096,0.005,0.143,0.007c0.979,0.075,1.961,0.144,2.937,0.212
					c0.575,0.035,1.155,0.07,1.729,0.112c0.159,0.007,0.248-0.017,0.246-0.214c0-0.207,0.021-0.413,0.051-0.62
					c0.024-0.161-0.03-0.216-0.189-0.227c-0.503-0.032-1.006-0.077-1.503-0.116c-0.278-0.024-0.284-0.028-0.269-0.299
					c0.041-0.632,0.104-1.27,0.135-1.91c0.01-0.211,0.088-0.329,0.259-0.433c0.556-0.319,1.096-0.655,1.636-0.989
					c0.107-0.063,0.231-0.108,0.232-0.259c0.021-0.35,0.041-0.698,0.068-1.107c-0.73,0.43-1.413,0.826-2.144,1.256
					c-0.028-0.111-0.036-0.168-0.056-0.228c-0.242-0.777-0.778-1.151-1.631-1.151c-0.809,0-1.368,0.409-1.609,1.15
					c-0.072,0.236-0.103,0.48-0.123,0.725c-0.084,1.237-0.166,2.473-0.248,3.711C22.77,74.226,22.77,74.226,23.129,74.253z
					 M23.839,73.008c0.075-0.977,0.129-1.954,0.229-2.932c0.048-0.529,0.396-0.777,0.879-0.687c0.308,0.056,0.469,0.225,0.521,0.533
					c0.028,0.211,0.007,0.42,0,0.627c-0.062,0.829-0.11,1.662-0.176,2.493c-0.021,0.271-0.028,0.274-0.309,0.26
					c-0.315-0.012-0.639-0.048-0.954-0.062C23.859,73.233,23.826,73.16,23.839,73.008z"/>
			</g>
			<g>
				<path fill="#182E6F" d="M99.162,118.239c-0.365,0.062-0.719,0.159-1.064,0.296c-0.604,0.234-1.203,0.477-1.81,0.718
					c-0.157,0.063-0.323,0.111-0.491,0.132c-0.233,0.027-0.448-0.004-0.582-0.214c-0.146-0.222-0.117-0.444,0.008-0.659
					c0.15-0.246,0.364-0.434,0.598-0.59c0.871-0.586,1.824-0.896,2.883-0.861c0.443,0.014,0.443,0.008,0.52-0.414
					c0.103-0.561,0.223-0.59-0.48-0.605c-1.613-0.039-2.975,0.592-4.157,1.658c-0.158,0.135-0.274,0.313-0.377,0.495
					c-0.32,0.585-0.278,1.161,0.094,1.702c0.359,0.515,0.888,0.617,1.473,0.535c0.438-0.063,0.855-0.199,1.268-0.365
					c0.491-0.2,0.976-0.398,1.463-0.594c0.217-0.09,0.45-0.157,0.685-0.144c0.349,0.017,0.486,0.282,0.321,0.592
					c-0.113,0.194-0.277,0.345-0.457,0.47c-0.502,0.351-1.036,0.599-1.632,0.737c-0.396,0.103-0.799,0.159-1.203,0.151
					c-0.15-0.006-0.221,0.053-0.256,0.194c-0.049,0.237-0.122,0.473-0.185,0.723c0.063,0.024,0.085,0.041,0.11,0.044
					c1.645,0.155,3.027-0.42,4.223-1.51c0.201-0.184,0.332-0.427,0.441-0.672C100.883,119.315,100.38,118.046,99.162,118.239z"/>
			</g>
			<g>
				<path fill="#182E6F" d="M103.799,112.431c-0.19-0.282-0.163-0.261-0.442-0.073c-1.277,0.877-2.554,1.746-3.829,2.619
					c-0.186,0.125-0.457,0.227-0.512,0.395c-0.061,0.207,0.204,0.387,0.326,0.582c0.152,0.238,0.158,0.236,0.42,0.061
					c1.075-0.734,2.142-1.463,3.22-2.199c0.098-0.069,0.187-0.16,0.334-0.18c0.196,0.275,0.388,0.559,0.575,0.841
					c0.15,0.216,0.15,0.221-0.057,0.369c-0.527,0.361-1.053,0.72-1.582,1.079c-0.193,0.132-0.379,0.264-0.578,0.393
					c-0.064,0.05-0.156,0.099-0.076,0.206c0.179,0.226,0.294,0.497,0.519,0.689c0.833-0.565,1.653-1.128,2.476-1.688
					c0.241,0.312,0.441,0.6,0.639,0.931c-1.227,0.838-2.413,1.654-3.611,2.471c0.199,0.293,0.373,0.544,0.546,0.797
					c0.066-0.026,0.107-0.049,0.15-0.075c1.388-0.947,2.77-1.896,4.161-2.846c0.213-0.141,0.213-0.147,0.047-0.393
					C105.621,115.08,104.707,113.752,103.799,112.431z"/>
			</g>
			<g>
				<path fill="#182E6F" d="M116.545,97.324c-0.02-0.012-0.037-0.024-0.058-0.042c-0.133-0.097-0.22-0.06-0.286,0.082
					c-0.014,0.044-0.044,0.079-0.076,0.125c-0.854,1.402-1.701,2.807-2.563,4.21c-0.043,0.063-0.076,0.126-0.112,0.191
					c-0.062,0.082-0.062,0.153,0.036,0.213c0.234,0.139,0.464,0.274,0.682,0.408c0.135-0.084,0.174-0.205,0.24-0.308
					c0.656-1.077,1.314-2.156,1.971-3.236c0.044-0.07,0.091-0.14,0.133-0.22c0.059-0.114,0.137-0.117,0.24-0.049
					c0.261,0.161,0.51,0.331,0.785,0.478c0.179,0.095,0.174,0.184,0.07,0.343c-0.424,0.687-0.839,1.381-1.26,2.071
					c-0.06,0.103-0.151,0.192-0.168,0.338c0.204,0.128,0.418,0.248,0.612,0.39c0.155,0.104,0.223,0.07,0.315-0.076
					c0.348-0.583,0.701-1.161,1.051-1.733c0.135-0.218,0.21-0.555,0.43-0.611c0.242-0.07,0.453,0.22,0.688,0.351
					c0.32,0.18,0.277,0.157,0.114,0.433c-0.644,1.059-1.286,2.114-1.931,3.173c-0.059,0.103-0.143,0.192-0.162,0.33
					c0.206,0.13,0.411,0.241,0.6,0.377c0.162,0.118,0.25,0.063,0.338-0.089c0.501-0.831,1.004-1.657,1.51-2.483
					c0.401-0.651,0.789-1.3,1.197-1.965c-0.064-0.046-0.091-0.074-0.122-0.093C119.395,99.063,117.973,98.192,116.545,97.324z"/>
			</g>
			<g>
				<path fill="#182E6F" d="M52.197,33.802c0.133,0.279,0.134,0.279,0.422,0.141c1.204-0.58,2.404-1.16,3.609-1.742
					c0.317-0.151,0.643-0.306,0.96-0.466c0.244-0.118,0.244-0.121,0.121-0.38c-0.069-0.152-0.16-0.303-0.222-0.465
					c-0.06-0.138-0.127-0.14-0.252-0.08c-0.426,0.215-0.862,0.421-1.292,0.627c-0.815,0.395-1.635,0.786-2.447,1.19
					c-0.167,0.079-0.257,0.071-0.332-0.108c-0.111-0.274-0.248-0.537-0.385-0.8c-0.067-0.136-0.058-0.22,0.09-0.282
					c0.237-0.104,0.465-0.221,0.695-0.335c0.556-0.268,1.108-0.535,1.655-0.806c0.082-0.036,0.226-0.06,0.166-0.192
					c-0.114-0.256-0.216-0.517-0.385-0.748c-0.224,0.021-0.4,0.169-0.599,0.247c-0.042,0.019-0.086,0.043-0.135,0.065
					c-0.597,0.284-1.192,0.566-1.781,0.861c-0.176,0.095-0.265,0.065-0.342-0.113c-0.068-0.179-0.166-0.354-0.248-0.527
					c-0.125-0.271-0.125-0.273,0.143-0.405c0.972-0.473,1.948-0.935,2.912-1.411c0.249-0.122,0.528-0.198,0.735-0.396
					c-0.095-0.279-0.239-0.537-0.377-0.791c-0.003-0.011-0.011-0.017-0.05-0.048c-1.614,0.779-3.241,1.568-4.88,2.358
					c0.042,0.098,0.066,0.166,0.099,0.234C50.784,30.883,51.489,32.342,52.197,33.802z"/>
			</g>
			<g>
				<path fill="#182E6F" d="M63.188,26.392c0.184,0.972,0.376,1.945,0.551,2.927c0.036,0.173,0.079,0.251,0.283,0.21
					c1.668-0.321,3.345-0.64,5.021-0.958c0.306-0.056,0.306-0.062,0.258-0.366c-0.023-0.134-0.051-0.261-0.078-0.393
					c-0.049-0.267-0.053-0.272-0.297-0.224c-1.17,0.219-2.337,0.444-3.506,0.665c-0.238,0.046-0.529,0.202-0.706,0.096
					c-0.209-0.127-0.15-0.469-0.202-0.716c-0.116-0.557-0.104-0.555,0.471-0.66c0.737-0.139,1.474-0.284,2.206-0.424
					c0.115-0.016,0.231-0.024,0.193-0.179c-0.007-0.041-0.007-0.063-0.012-0.085c-0.027-0.146-0.048-0.294-0.078-0.438
					c-0.062-0.297-0.07-0.303-0.353-0.247c-0.686,0.129-1.374,0.269-2.063,0.392c-0.202,0.038-0.441,0.18-0.601,0.081
					c-0.185-0.116-0.116-0.406-0.179-0.612c-0.006-0.014-0.008-0.026-0.012-0.038c-0.075-0.519-0.111-0.406,0.355-0.503
					c1.203-0.236,2.408-0.456,3.61-0.683c0.278-0.049,0.278-0.052,0.229-0.323c-0.026-0.157-0.075-0.31-0.081-0.47
					c-0.017-0.216-0.114-0.218-0.291-0.182c-1.617,0.313-3.232,0.611-4.841,0.921c-0.289,0.05-0.291,0.057-0.23,0.367
					C62.954,25.16,63.071,25.777,63.188,26.392z"/>
			</g>
			<g>
				<path fill="#182E6F" d="M37.568,104.555c0.09-0.468,0.054-0.931-0.078-1.385c-0.283-0.984-0.816-1.8-1.65-2.399
					c-0.658-0.475-1.395-0.741-2.213-0.6c-1.363,0.233-2.245,1.324-2.236,2.738c0.005,0.447,0.074,0.881,0.259,1.294
					c0.511,1.158,1.275,2.062,2.534,2.44C35.77,107.12,37.282,106.18,37.568,104.555z M34.17,105.552
					c-0.944-0.376-1.74-1.555-1.74-2.573c0.006-1.353,1.334-2.185,2.536-1.551c0.907,0.484,1.454,1.287,1.603,2.297
					C36.761,105.097,35.458,106.068,34.17,105.552z"/>
			</g>
			<g>
				<path fill="#182E6F" d="M26.494,81.94c0.972-0.285,1.537-0.989,1.83-1.909c0.351-1.094,0.258-2.175-0.222-3.219
					c-0.149-0.33-0.36-0.613-0.612-0.87c-0.514-0.524-1.137-0.791-1.878-0.796c-0.154,0.015-0.317,0.021-0.476,0.044
					c-1.066,0.194-1.725,0.877-2.109,1.847c-0.341,0.862-0.313,1.751-0.092,2.636c0.146,0.581,0.428,1.095,0.841,1.527
					C24.533,81.99,25.446,82.24,26.494,81.94z M24.175,77.052c0.672-1.017,2.051-1.071,2.812-0.118
					c0.349,0.439,0.479,0.956,0.526,1.503c0.011,0.108,0.002,0.221,0.002,0.329c0.007,0.512-0.092,0.995-0.386,1.43
					c-0.601,0.888-1.848,1.014-2.62,0.261c-0.507-0.486-0.685-1.114-0.73-1.788C23.741,78.091,23.848,77.54,24.175,77.052z"/>
			</g>
			<g>
				<path fill="#182E6F" d="M104.482,38.641c0.9-1.013,1.77-2.004,2.672-3.016c0.08,0.174,0.064,0.303,0.064,0.437
					c0.043,1.397,0.068,2.793,0.104,4.193c0.027,0.938,0.027,0.938,0.739,1.537c0.218,0.19,0.221,0.191,0.421-0.04
					c1.063-1.207,2.128-2.415,3.189-3.614c0.066-0.076,0.158-0.13,0.15-0.261c-0.171-0.149-0.342-0.304-0.517-0.453
					c-0.253-0.222-0.214-0.242-0.447,0.021c-0.747,0.846-1.487,1.697-2.242,2.542c-0.07,0.079-0.123,0.209-0.274,0.213
					c-0.019-0.631-0.046-1.239-0.063-1.855c-0.031-1.139-0.058-2.281-0.087-3.421c-0.009-0.136,0.002-0.261-0.129-0.364
					c-0.265-0.216-0.519-0.447-0.802-0.698c-1.199,1.359-2.387,2.709-3.592,4.064C103.959,38.179,104.215,38.401,104.482,38.641z"/>
			</g>
			<g>
				<path fill="#182E6F" d="M120.889,62.684c-0.519,1.012-0.463,2.062-0.127,3.113c0.235,0.728,0.636,1.349,1.261,1.804
					c1.253,0.921,3.009,0.573,3.815-0.745c0.345-0.56,0.517-1.167,0.496-1.778c0-0.36-0.027-0.682-0.092-0.992
					c-0.207-0.927-0.623-1.725-1.398-2.305C123.501,60.769,121.653,61.196,120.889,62.684z M125.291,64.424
					c0.094,0.509,0.051,1-0.133,1.487c-0.477,1.229-2.059,1.437-2.877,0.554c-0.462-0.5-0.763-1.292-0.768-2.178
					c-0.01-0.265,0.053-0.564,0.16-0.851c0.402-1.063,1.827-1.502,2.773-0.648C124.938,63.229,125.178,63.799,125.291,64.424z"/>
			</g>
			<g>
				<path fill="#182E6F" d="M121.835,68.965c-0.308,0.021-0.31,0.019-0.294,0.345c0.01,0.183,0.039,0.361,0.041,0.548
					c0.001,0.162,0.071,0.199,0.229,0.187c0.84-0.062,1.686-0.121,2.532-0.172c0.416-0.03,0.846-0.049,1.277-0.074
					c-0.029,0.151-0.14,0.222-0.221,0.308c-1.122,1.188-2.239,2.375-3.354,3.559c-0.102,0.105-0.228,0.191-0.212,0.368
					c0.034,0.309,0.053,0.613,0.07,0.916c0.007,0.095,0.04,0.139,0.134,0.139c0.071-0.003,0.142-0.008,0.22-0.011
					c1.271-0.079,2.541-0.155,3.813-0.24c0.347-0.018,0.688-0.046,1.029-0.06c0.17-0.008,0.25-0.063,0.224-0.243
					c-0.028-0.206-0.045-0.413-0.045-0.626c0-0.18-0.073-0.232-0.245-0.218c-0.516,0.043-1.023,0.076-1.547,0.104
					c-0.741,0.052-1.482,0.095-2.226,0.142c-0.009-0.027-0.015-0.049-0.027-0.076c0.079-0.085,0.146-0.163,0.222-0.24
					c0.99-1.041,1.979-2.082,2.96-3.13c0.194-0.205,0.462-0.384,0.552-0.629c0.092-0.272,0.01-0.603,0-0.906
					c-0.014-0.307-0.022-0.312-0.324-0.293c-0.998,0.061-2.006,0.117-3.004,0.184C123.035,68.877,122.436,68.927,121.835,68.965z"/>
			</g>
			<g>
				<path fill="#182E6F" d="M113.639,103.164c-0.188-0.159-0.376-0.317-0.566-0.471c-0.06-0.054-0.125-0.09-0.186-0.009
					c-0.203,0.239-0.408,0.48-0.612,0.729c1.038,0.872,2.045,1.717,3.049,2.562c0.011,0.006,0.011,0.021,0.011,0.031
					c-0.006,0.051-0.043-0.011-0.018,0.031c-0.053,0.05-0.113,0.042-0.176,0.046c-1.465,0.079-2.934,0.158-4.406,0.239
					c-0.306,0.019-0.641-0.043-0.905,0.09c-0.264,0.131-0.412,0.442-0.609,0.672c-0.182,0.218-0.212,0.204,0.052,0.428
					c0.672,0.551,1.336,1.109,2.002,1.664c0.589,0.489,1.176,0.972,1.755,1.465c0.126,0.111,0.221,0.125,0.327-0.027
					c0.157-0.213,0.338-0.414,0.528-0.646c-1.029-0.896-2.077-1.709-3.122-2.638c0.172-0.021,0.262-0.036,0.341-0.039
					c1.113-0.056,2.23-0.116,3.339-0.172c0.571-0.035,1.131-0.069,1.691-0.104c0.123-0.008,0.235-0.027,0.322-0.139
					c0.212-0.271,0.438-0.53,0.662-0.802c-0.086-0.08-0.153-0.146-0.225-0.207C115.807,104.962,114.723,104.064,113.639,103.164z"/>
			</g>
			<g>
				<path fill="#182E6F" d="M77.834,28.218c0.599,0.285,1.231,0.398,1.892,0.405c0.817,0.01,1.582-0.177,2.241-0.681
					c0.896-0.696,1.201-1.627,0.97-2.709c-0.205-0.98-0.878-1.592-1.751-1.997c-0.619-0.293-1.293-0.396-1.97-0.368
					c-0.845,0.037-1.61,0.292-2.254,0.864c-1.053,0.942-1.156,2.577-0.234,3.646C77.04,27.735,77.402,28.02,77.834,28.218z
					 M78.126,24.174c0.414-0.216,0.848-0.314,1.311-0.305c0.703,0.021,1.364,0.183,1.898,0.676c0.555,0.506,0.699,1.136,0.479,1.844
					c-0.158,0.502-0.508,0.846-0.988,1.025c-0.974,0.379-1.933,0.287-2.818-0.268C76.864,26.436,76.968,24.786,78.126,24.174z"/>
			</g>
			<g>
				<path fill="#182E6F" d="M30.614,49.131c0.274,1.422,1.707,2.331,3.126,2.036c1.731-0.356,3.203-2.482,2.979-4.25
					c-0.209-1.588-1.675-2.609-3.226-2.276c-1.809,0.393-2.991,2.429-2.948,3.817C30.531,48.671,30.566,48.897,30.614,49.131z
					 M33.597,45.679c0.979-0.243,2.176,0.562,2.114,1.744c0,1.033-0.849,2.252-1.788,2.628c-0.99,0.397-2.149-0.272-2.341-1.312
					C31.364,47.516,32.395,45.981,33.597,45.679z"/>
			</g>
			<g>
				<path fill="#182E6F" d="M114.342,49.469c0.167,0.292,0.323,0.57,0.466,0.854c0.065,0.12,0.161,0.127,0.279,0.126
					c0.257-0.015,0.52-0.001,0.769-0.036c0.266-0.036,0.392,0.082,0.508,0.3c0.426,0.799,0.863,1.598,1.314,2.387
					c0.115,0.204,0.143,0.361-0.016,0.558c-0.178,0.206-0.299,0.446-0.46,0.662c-0.08,0.117-0.085,0.218-0.009,0.338
					c0.15,0.261,0.291,0.533,0.457,0.822c0.047-0.041,0.065-0.052,0.079-0.073c1.065-1.618,2.13-3.235,3.195-4.853
					c0.09-0.136,0.083-0.236,0.002-0.367c-0.13-0.22-0.257-0.442-0.368-0.675c-0.076-0.158-0.18-0.213-0.351-0.202
					c-0.306,0.021-0.612,0.027-0.917,0.03c-1.362,0.024-2.725,0.035-4.085,0.062C114.929,49.407,114.648,49.374,114.342,49.469z
					 M119.771,50.398c-0.447,0.685-0.873,1.333-1.303,1.98c-0.196-0.2-0.966-1.576-1.096-1.98
					C118.174,50.398,118.938,50.398,119.771,50.398z"/>
			</g>
			<g>
				<path fill="#182E6F" d="M121.19,88.849c-0.795,0.168-1.403,0.627-1.866,1.279c-0.447,0.632-0.698,1.338-0.831,2.101
					c-0.139,0.758-0.008,1.463,0.337,2.141c0.043,0.08,0.058,0.186,0.184,0.224c0.201-0.178,0.396-0.357,0.612-0.525
					c0.118-0.094,0.118-0.182,0.058-0.312c-0.253-0.54-0.288-1.115-0.139-1.69c0.165-0.676,0.442-1.301,0.99-1.765
					c1.031-0.857,2.479-0.271,2.784,0.854c0.278,1.031-0.243,2.511-1.16,3.178c-0.167,0.118-0.438,0.138-0.492,0.346
					c-0.06,0.205-0.022,0.438-0.022,0.659c0,0.088,0.011,0.171,0.018,0.287c0.572-0.15,1.043-0.409,1.436-0.777
					c0.686-0.667,1.063-1.49,1.249-2.412c0.151-0.739,0.075-1.462-0.25-2.149C123.586,89.202,122.356,88.597,121.19,88.849z"/>
			</g>
			<g>
				<path fill="#182E6F" d="M111.546,45.417c0.22,0.942,0.763,1.692,1.453,2.344c0.584,0.556,1.283,0.839,2.076,0.92
					c0.177,0.012,0.221-0.037,0.193-0.203c-0.028-0.214-0.06-0.434-0.085-0.653c-0.016-0.13-0.078-0.187-0.209-0.208
					c-1.274-0.239-1.997-1.099-2.377-2.254c-0.368-1.117,0.322-2.179,1.456-2.293c0.619-0.06,1.156,0.192,1.595,0.614
					c0.729,0.7,1.21,1.513,1.104,2.572c-0.011,0.106,0.003,0.192,0.104,0.251c0.239,0.149,0.469,0.308,0.742,0.482
					c0.195-0.604,0.235-1.161,0.1-1.717c-0.357-1.429-1.164-2.507-2.56-3.068c-0.823-0.33-1.651-0.295-2.425,0.205
					C111.689,43.066,111.258,44.19,111.546,45.417z"/>
			</g>
			<g>
				<path fill="#182E6F" d="M71.19,28.294c1.062,0.324,2.134,0.241,3.165-0.181c0.586-0.238,1.035-0.646,1.41-1.18
					c-0.276-0.139-0.53-0.259-0.777-0.391c-0.124-0.066-0.2-0.026-0.281,0.066c-0.515,0.576-1.185,0.807-1.934,0.864
					c-0.61,0.04-1.198-0.038-1.733-0.364c-0.982-0.599-1.058-1.993-0.288-2.701c0.261-0.237,0.55-0.43,0.885-0.521
					c1.055-0.281,2.065-0.248,2.953,0.49c0.089,0.068,0.155,0.091,0.263,0.045c0.257-0.117,0.52-0.223,0.805-0.341
					c-0.449-0.575-0.993-0.947-1.653-1.159c-0.755-0.239-1.521-0.244-2.291-0.095c-0.653,0.131-1.229,0.412-1.722,0.863
					c-0.759,0.692-1.008,1.559-0.799,2.54C69.418,27.33,70.161,27.973,71.19,28.294z"/>
			</g>
			<g>
				<path fill="#182E6F" d="M48.692,113.849c-0.235-0.186-0.477-0.366-0.705-0.571c-0.123-0.104-0.232-0.102-0.365-0.029
					c-0.24,0.119-0.496,0.214-0.734,0.339c-0.177,0.089-0.304,0.089-0.462-0.042c-0.754-0.613-1.514-1.213-2.282-1.807
					c-0.131-0.104-0.185-0.197-0.14-0.368c0.072-0.273,0.115-0.555,0.16-0.832c0.021-0.117,0.055-0.234-0.074-0.329
					c-0.256-0.193-0.502-0.391-0.752-0.586c-0.11,0.113-0.102,0.239-0.124,0.356c-0.138,0.732-0.271,1.467-0.407,2.204
					c-0.203,1.072-0.396,2.141-0.603,3.212c-0.033,0.173,0.014,0.276,0.155,0.37c0.167,0.119,0.337,0.249,0.484,0.393
					c0.186,0.161,0.342,0.193,0.586,0.083c1.654-0.748,3.317-1.468,4.977-2.2C48.503,113.993,48.619,113.977,48.692,113.849z
					 M43.328,115.138c0.104-0.838,0.301-1.606,0.427-2.388c0.271,0.133,1.449,1.043,1.812,1.402
					C44.826,114.476,44.111,114.793,43.328,115.138z"/>
			</g>
			<g>
				<path fill="#182E6F" d="M108.051,108.793c-1.469,0.329-2.47,1.263-3.087,2.601c-0.214,0.462-0.269,0.964-0.207,1.482
					c0.276,0.004,0.511-0.109,0.771-0.145c0.17-0.025,0.234-0.096,0.246-0.289c0.065-1.365,1.445-2.454,2.344-2.635
					c1.418-0.296,2.39,1.035,2.09,2.097c-0.084,0.289-0.183,0.557-0.347,0.802c-0.389,0.558-0.894,0.979-1.516,1.257
					c-0.226,0.099-0.466,0.203-0.708,0.169c-0.447-0.058-0.68,0.148-0.811,0.536c-0.039,0.122-0.14,0.228-0.172,0.396
					c0.399,0.077,0.771,0.12,1.16,0.06c1.453-0.244,2.471-1.082,3.154-2.35c0.313-0.598,0.419-1.263,0.288-1.931
					C110.957,109.393,109.527,108.458,108.051,108.793z"/>
			</g>
			<g>
				<path fill="#182E6F" d="M43.217,33.105c0.09,0.16,0.186,0.157,0.32,0.06c0.284-0.194,0.578-0.38,0.863-0.565
					c0.472-0.31,0.942-0.615,1.431-0.93c0.081,0.114,0.155,0.211,0.221,0.312c0.82,1.251,1.641,2.507,2.461,3.758
					c0.055,0.081,0.104,0.165,0.164,0.246c0.043,0.068,0.108,0.092,0.181,0.041c0.302-0.212,0.629-0.377,0.908-0.624
					c-0.057-0.094-0.108-0.181-0.16-0.263c-0.858-1.313-1.724-2.622-2.579-3.938c-0.14-0.216-0.139-0.223,0.069-0.362
					c0.535-0.351,1.071-0.695,1.6-1.05c0.216-0.142,0.449-0.262,0.637-0.436c-0.064-0.271-0.269-0.467-0.405-0.694
					c-0.166-0.271-0.175-0.269-0.438-0.098c-1.204,0.786-2.4,1.57-3.604,2.354c-0.656,0.432-1.313,0.866-1.973,1.286
					c-0.142,0.09-0.191,0.17-0.079,0.317C42.974,32.709,43.1,32.904,43.217,33.105z"/>
			</g>
			<g>
				<path fill="#182E6F" d="M98.824,33.575c0.012,0.641,0.319,1.153,0.727,1.605c0.561,0.609,1.234,1.05,1.992,1.357
					c0.436,0.183,0.892,0.266,1.364,0.235c0.534-0.035,0.971-0.249,1.271-0.698c0.145-0.213,0.287-0.429,0.423-0.646
					c0.469-0.718,0.938-1.435,1.406-2.154c0.168-0.245,0.168-0.249-0.092-0.411c-0.194-0.135-0.398-0.27-0.633-0.417
					c-0.098,0.139-0.169,0.236-0.234,0.338c-0.523,0.799-1.045,1.604-1.573,2.401c-0.355,0.539-0.727,0.683-1.351,0.49
					c-0.744-0.229-1.365-0.659-1.883-1.238c-0.082-0.089-0.143-0.195-0.202-0.304c-0.163-0.33-0.165-0.662,0.032-0.981
					c0.05-0.068,0.096-0.145,0.143-0.213c0.533-0.821,1.073-1.647,1.613-2.462c0.107-0.16,0.107-0.244-0.064-0.34
					c-0.234-0.132-0.455-0.294-0.672-0.432c-0.034,0.023-0.064,0.031-0.075,0.051c-0.663,1.012-1.337,2.029-2.001,3.044
					C98.873,33.035,98.82,33.301,98.824,33.575z"/>
			</g>
			<g>
				<path fill="#182E6F" d="M53.985,117.083c-0.076-0.036-0.145-0.079-0.225-0.126c-1.397-0.789-2.795-1.585-4.193-2.371
					c-0.224-0.127-0.436-0.271-0.677-0.361c-0.206,0.186-0.296,0.443-0.432,0.676c-0.176,0.3-0.194,0.254,0.144,0.45
					c1.185,0.669,2.371,1.338,3.555,2.013c0.105,0.056,0.223,0.104,0.299,0.2c-0.016,0.128-0.098,0.225-0.154,0.329
					c-0.727,1.281-1.453,2.561-2.179,3.842c-0.051,0.094-0.104,0.197-0.16,0.289c-0.072,0.105-0.054,0.17,0.06,0.236
					c0.271,0.143,0.538,0.295,0.799,0.451c0.097,0.053,0.158,0.043,0.213-0.057c0.034-0.074,0.084-0.145,0.122-0.223
					c0.932-1.633,1.855-3.264,2.78-4.896c0.032-0.063,0.063-0.132,0.108-0.189C54.124,117.233,54.124,117.144,53.985,117.083z"/>
			</g>
			<g>
				<path fill="#182E6F" d="M27.325,54.517c1.134,0.55,2.27,1.096,3.411,1.651c0.379,0.184,0.766,0.373,1.17,0.567
					c0.13-0.263,0.24-0.51,0.371-0.745c0.084-0.155,0.082-0.244-0.109-0.329c-0.559-0.256-1.102-0.532-1.655-0.793
					c-0.175-0.082-0.234-0.159-0.118-0.325c0.038-0.065,0.061-0.136,0.095-0.206c0.341-0.706,0.679-1.412,1.029-2.115
					c0.07-0.149,0.077-0.242-0.095-0.311c-0.222-0.098-0.438-0.207-0.688-0.326c-0.444,0.912-0.886,1.81-1.336,2.733
					c-0.345-0.165-0.668-0.325-1.007-0.486c0.062-0.141,0.113-0.252,0.162-0.361c0.523-1.081,1.048-2.165,1.575-3.249
					c0.033-0.063,0.059-0.126,0.096-0.194c0.061-0.111,0.029-0.177-0.086-0.229c-0.16-0.064-0.316-0.148-0.463-0.226
					c-0.315-0.162-0.277-0.099-0.398,0.147c-0.703,1.455-1.413,2.913-2.119,4.365C27.024,54.364,27.025,54.372,27.325,54.517z"/>
			</g>
			<g>
				<path fill="#182E6F" d="M122.162,54.991c0.176,0.44,0.204,0.371-0.222,0.539c-1.121,0.455-2.245,0.905-3.372,1.362
					c-0.371,0.144-0.371,0.144-0.227,0.5c0.051,0.111,0.089,0.226,0.143,0.339c0.118,0.299,0.118,0.299,0.41,0.185
					c0.043-0.02,0.096-0.04,0.135-0.06c1.145-0.458,2.276-0.915,3.413-1.37c0.272-0.109,0.276-0.107,0.392,0.168
					c0.156,0.392,0.316,0.795,0.48,1.188c0.092,0.226,0.183,0.457,0.271,0.686c0.03,0.068,0.06,0.131,0.174,0.122
					c0.23-0.101,0.483-0.199,0.73-0.307c0.045-0.022,0.061-0.071,0.043-0.126c-0.031-0.076-0.059-0.153-0.102-0.239
					c-0.611-1.533-1.231-3.067-1.859-4.598c-0.087-0.22-0.098-0.557-0.31-0.622c-0.21-0.068-0.446,0.155-0.681,0.227
					c-0.185,0.052-0.181,0.152-0.116,0.301C121.702,53.849,121.932,54.422,122.162,54.991z"/>
			</g>
			<g>
				<path fill="#182E6F" d="M25.418,88.024c-0.13-0.627-0.264-1.247-0.392-1.87c-0.049-0.27-0.046-0.272,0.228-0.33
					c0.447-0.101,0.889-0.19,1.334-0.282c0.827-0.171,1.657-0.339,2.484-0.516c0.104-0.014,0.238-0.005,0.219-0.186
					c-0.032-0.158-0.061-0.324-0.095-0.496c-0.088-0.414-0.09-0.415-0.51-0.332c-1.221,0.256-2.447,0.51-3.668,0.763
					c-0.248,0.048-0.253,0.044-0.31-0.21c-0.138-0.634-0.267-1.272-0.398-1.904c-0.061-0.271-0.066-0.271-0.323-0.221
					c-0.122,0.019-0.241,0.059-0.362,0.069c-0.299,0.033-0.352,0.035-0.271,0.399c0.242,1.164,0.479,2.327,0.723,3.491
					c0.123,0.618,0.258,1.244,0.38,1.872c0.036,0.179,0.106,0.256,0.296,0.198c0.143-0.046,0.284-0.063,0.43-0.098
					C25.479,88.302,25.479,88.302,25.418,88.024z"/>
			</g>
			<g>
				<path fill="#182E6F" d="M26.731,65.996c0.192-0.12,0.376-0.146,0.59-0.094c0.505,0.111,1.006,0.212,1.51,0.312
					c0.241,0.053,0.255,0.044,0.297-0.181c0.048-0.196,0.063-0.393,0.122-0.583c0.069-0.201-0.021-0.256-0.193-0.291
					c-0.521-0.099-1.032-0.216-1.553-0.303c-0.213-0.036-0.349-0.138-0.473-0.308c-0.723-0.989-1.448-1.976-2.185-2.962
					c-0.071-0.102-0.128-0.23-0.29-0.307c-0.07,0.358-0.127,0.695-0.213,1.024c-0.037,0.173-0.005,0.301,0.1,0.441
					c0.52,0.686,1.029,1.38,1.534,2.069c0.074,0.095,0.158,0.18,0.192,0.297c-0.078,0.116-0.199,0.156-0.303,0.219
					c-0.731,0.441-1.474,0.878-2.21,1.318c-0.104,0.063-0.224,0.104-0.252,0.25c-0.069,0.383-0.145,0.77-0.224,1.148
					c0.131-0.006,0.204-0.069,0.292-0.123C24.557,67.285,25.646,66.646,26.731,65.996z"/>
			</g>
			<g>
				<path fill="#182E6F" d="M58.212,31.065c0.082,0.237,0.088,0.24,0.33,0.16c0.839-0.28,1.677-0.561,2.516-0.835
					c0.618-0.209,1.231-0.411,1.847-0.614c0.088-0.03,0.204-0.035,0.199-0.172c-0.063-0.177-0.115-0.354-0.174-0.526
					c-0.104-0.307-0.106-0.308-0.41-0.204c-1.056,0.35-2.115,0.701-3.174,1.052c-0.342,0.112-0.343,0.112-0.458-0.22
					c-0.347-1.052-0.688-2.102-1.041-3.146c-0.078-0.237-0.065-0.583-0.29-0.675c-0.214-0.088-0.479,0.132-0.729,0.189
					c-0.18,0.044-0.23,0.116-0.168,0.312C57.185,27.945,57.697,29.501,58.212,31.065z"/>
			</g>
			<g>
				<path fill="#182E6F" d="M119.707,60.354c-0.234,0.074-0.234,0.079-0.154,0.334c0.049,0.179,0.109,0.352,0.164,0.528
					c0.082,0.234,0.082,0.237,0.339,0.155c0.964-0.303,1.937-0.61,2.909-0.918c0.6-0.186,1.195-0.374,1.782-0.564
					c0.088-0.027,0.221-0.02,0.184-0.202c-0.067-0.208-0.161-0.437-0.21-0.676c-0.049-0.209-0.141-0.199-0.316-0.141
					C122.846,59.365,121.275,59.856,119.707,60.354z"/>
			</g>
			<g>
				<path fill="#182E6F" d="M109.018,42.863c0.218,0.237,0.44,0.48,0.694,0.757c0.135-0.121,0.243-0.215,0.351-0.319
					c1.037-0.952,2.066-1.909,3.1-2.872c0.171-0.16,0.454-0.288,0.461-0.495c0.016-0.231-0.276-0.372-0.438-0.551
					c-0.211-0.254-0.194-0.258-0.444-0.027c-1.179,1.094-2.354,2.187-3.532,3.276C109.142,42.699,109.048,42.749,109.018,42.863z"/>
			</g>
			<g>
				<path fill="#182E6F" d="M118.043,95.407c-0.234-0.113-0.496-0.385-0.719-0.284c-0.207,0.095-0.246,0.456-0.386,0.688
					c-0.095,0.171-0.027,0.233,0.124,0.305c0.365,0.168,0.729,0.353,1.089,0.526c1.112,0.546,2.226,1.089,3.335,1.626
					c0.236,0.115,0.243,0.112,0.351-0.108c0.117-0.229,0.228-0.463,0.351-0.719c-0.077-0.047-0.132-0.082-0.184-0.109
					C120.682,96.69,119.362,96.042,118.043,95.407z"/>
			</g>
		</g>
		<g>
			<g>
				<g>
					<path fill="#182E6F" d="M49.357,37.794c0,0,66.329,13.978,32.342,75.866c-3.696,6.729-3.704,5.308-2.721,3.342
						c10.536-21.132,23.208-54.517-22.955-75.986C51.372,38.85,48.724,37.756,49.357,37.794z"/>
				</g>
			</g>
			<g>
				<g>
					<path fill="#182E6F" d="M70.175,117.936c0,0-56.228-37.861-1.489-82.463c5.946-4.844,5.424-3.53,3.774-2.072
						c-17.698,15.633-41.979,41.813-7.251,79.041C68.709,116.194,70.743,118.205,70.175,117.936z"/>
				</g>
			</g>
			<g>
				<g>
					<path fill="#182E6F" d="M117.495,70.882c0,0-52.464-42.928-79.386,22.345c-2.926,7.098-1.818,6.209-0.902,4.215
						c9.865-21.451,27.938-52.254,73.601-29.736C115.41,69.978,117.924,71.348,117.495,70.882z"/>
				</g>
			</g>
			<g>
				<g>
					<path fill="#182E6F" d="M43.159,105.719c0,0,67.326,7.876,54.822-61.612c-1.36-7.556-1.822-6.211-1.517-4.034
						c3.257,23.385,4.636,59.067-45.962,64.716C45.406,105.357,42.547,105.554,43.159,105.719z"/>
				</g>
			</g>
			<g>
				<g>
					<path fill="#182E6F" d="M74.942,114.176c-5.283,0-10.418-1.036-15.242-3.081c-4.67-1.973-8.857-4.798-12.454-8.394
						c-3.596-3.602-6.422-7.79-8.398-12.454c-2.039-4.829-3.075-9.96-3.075-15.249c0-5.288,1.036-10.416,3.075-15.248
						c1.977-4.664,4.803-8.852,8.398-12.453c3.597-3.595,7.784-6.42,12.454-8.393c4.824-2.045,9.959-3.08,15.242-3.08
						c5.289,0,10.424,1.035,15.249,3.08c4.669,1.973,8.856,4.798,12.454,8.393c3.597,3.602,6.42,7.789,8.393,12.453
						c2.045,4.832,3.08,9.96,3.08,15.248c0,5.289-1.035,10.42-3.08,15.249c-1.973,4.664-4.796,8.853-8.393,12.454
						c-3.598,3.596-7.785,6.421-12.454,8.394C85.366,113.14,80.231,114.176,74.942,114.176z M74.942,36.739
						c-21.095,0-38.255,17.165-38.255,38.259c0,21.097,17.16,38.262,38.255,38.262c21.094,0,38.26-17.165,38.26-38.262
						C113.202,53.904,96.036,36.739,74.942,36.739z"/>
				</g>
			</g>
		</g>
	</g>
</g>
</svg>
