<?xml version="1.0" encoding="utf-8"?>
<!-- Generator: Adobe Illustrator 18.1.1, SVG Export Plug-In . SVG Version: 6.00 Build 0)  -->
<svg version="1.1" id="Layer_1" xmlns="http://www.w3.org/2000/svg" xmlns:xlink="http://www.w3.org/1999/xlink" x="0px" y="0px"
	 viewBox="-164 166 170 170" enable-background="new -164 166 170 170" xml:space="preserve">
<g id="guides">
</g>
<g id="Layer_2">
	<g>
		<g>
			<g>
				<g>
					<path fill="#E72130" d="M-112.7,268.8c-3.1-4.3-2.5-10.3,1.6-18c1.7-3.1,3.8-6.2,6.3-9.1c0-0.3-0.1-0.6-0.1-1
						c-3.1,3.3-5.6,6.6-7.8,10.1c-4.9,7.9-5.9,13.9-3,17.9c1.7,2.4,4.5,3.7,8.4,4C-109.5,272-111.3,270.6-112.7,268.8z"/>
					<path fill="#E72130" d="M-90.7,229c9.3-6.7,18.3-10.8,27.1-12.3c8.6-1.5,14.5-0.1,17.6,4.2c2.5,3.5,2.6,8.1,0.3,13.9
						c4.8-7.8,5.8-13.7,2.9-17.8c-2.9-4.1-8.9-5.1-17.9-3.1c-9.3,2.1-19,6.7-29.1,13.9c-2.4,1.7-4.7,3.4-6.8,5.2
						c0.1,0.1,0.2,0.3,0.2,0.4C-94.6,232-92.7,230.5-90.7,229z"/>
				</g>
			</g>
			<g>
				<path fill="#231F20" d="M-90.3,250.3c0,7-0.1,19.8-9.6,19.8s-9.6-12.8-9.6-19.8c0-7,0.1-19.8,9.6-19.8S-90.3,243.3-90.3,250.3z
					 M-104.4,250.3c0,8.2,0.5,15,4.4,15c3.9,0,4.4-6.8,4.4-15s-0.5-15-4.4-15C-103.8,235.3-104.4,242.1-104.4,250.3z"/>
				<path fill="#231F20" d="M-86.8,269.6V231h5.9c4.2,0,9.6,0.4,9.6,10.3c0,7.8-2.9,11.5-10.6,11.2v17.1
					C-81.9,269.6-86.8,269.6-86.8,269.6z M-81.9,235.3v12.8c4.2,0.3,5.4-2.1,5.4-6.4c0-3.5-1-6.4-4.7-6.4L-81.9,235.3L-81.9,235.3z"
					/>
				<path fill="#231F20" d="M-64.7,269.6h-4.9V231h4.9V269.6z"/>
				<path fill="#231F20" d="M-49.2,236.9c-1.3-1-2.5-1.6-4.2-1.6c-2.7,0-4.4,2.3-4.4,5c0,1.7,0.4,2.9,1.4,4.2l3.7,4.2
					c3.3,3.5,5.3,6.1,5.3,11.3c0,5.4-3.2,10.1-8.7,10.1c-1.9,0-3.9-0.6-5.4-1.8v-5.2c1.5,1.1,2.9,2,4.9,2c3,0,4.3-2.5,4.3-5.4
					c0-7.7-10.4-9.2-10.4-19.3c0-5.4,2.7-9.9,8.3-9.9c1.9,0,3.6,0.3,5.2,1.3L-49.2,236.9z"/>
			</g>
		</g>
		<g>
			<path fill="#231F20" d="M-137.6,279.1c0,2.1,0,5.9-3,5.9c-3,0-3-3.8-3-5.9c0-2.1,0-5.9,3-5.9C-137.6,273.1-137.6,277-137.6,279.1
				z M-142,279.1c0,2.5,0.2,4.5,1.4,4.5s1.4-2,1.4-4.5c0-2.5-0.2-4.5-1.4-4.5S-142,276.6-142,279.1z"/>
			<path fill="#231F20" d="M-135,284.8h-1.2v-9.3h1.2V284.8z"/>
			<path fill="#231F20" d="M-132.2,275.5v8.2h2.1v1.1h-3.3v-9.3H-132.2z"/>
			<path fill="#231F20" d="M-126.7,284.8v-11.6h1.8c1.3,0,3,0.1,3,3.1c0,2.3-0.9,3.4-3.3,3.3v5.1
				C-125.1,284.8-126.7,284.8-126.7,284.8z M-125.1,274.6v3.8c1.3,0.1,1.7-0.6,1.7-1.9c0-1-0.3-1.9-1.5-1.9H-125.1z"/>
			<path fill="#231F20" d="M-120.9,275.5h1.5c0.9,0,2.3,0,2.3,2.4c0,0.9-0.3,2.2-1.3,2.4l1.7,4.5h-1.3l-1.7-4.6h0v4.6h-1.2V275.5z
				 M-118.4,278.2c0-0.9-0.1-1.6-1.1-1.6h-0.2v3.1C-118.7,279.7-118.4,279.1-118.4,278.2z"/>
			<path fill="#231F20" d="M-114.5,284.8h-1.2v-9.3h1.2V284.8z"/>
			<path fill="#231F20" d="M-109.4,276.8c-0.2-0.1-0.5-0.2-0.8-0.2c-1.7,0-1.7,2.5-1.7,3.7c0,1.2,0.1,3.6,1.8,3.6
				c0.3,0,0.5-0.1,0.7-0.2v1.1c-0.3,0.2-0.6,0.3-1,0.3c-2.5,0-2.9-2.7-2.9-4.6c0-1.9,0.2-4.9,2.8-4.9c0.4,0,0.7,0.1,1.1,0.3
				L-109.4,276.8L-109.4,276.8z"/>
			<path fill="#231F20" d="M-105.1,275.5v1.1h-2.1v2.9h1.9v1.1h-1.9v3.2h2.1v1.1h-3.3v-9.3C-108.4,275.5-105.1,275.5-105.1,275.5z"
				/>
			<path fill="#231F20" d="M-99.9,284.8h-1.5v-11.6h1.5V284.8z"/>
			<path fill="#231F20" d="M-97.2,278.3l0.2,3.1v3.4h-1.2v-9.3h1.2l2.2,7.1l0,0l-0.3-3.7v-3.3h1.2v9.3H-95l-2.2-7.2l0,0L-97.2,278.3
				z"/>
			<path fill="#231F20" d="M-89,275.5v1.1h-2.1v2.9h1.9v1.1h-1.9v4.2h-1.2v-9.3C-92.4,275.5-89,275.5-89,275.5z"/>
			<path fill="#231F20" d="M-83.5,280.2c0,1.7,0,4.8-2.4,4.8s-2.4-3.1-2.4-4.8c0-1.7,0-4.8,2.4-4.8S-83.5,278.5-83.5,280.2z
				 M-87.1,280.2c0,2,0.1,3.6,1.1,3.6s1.1-1.6,1.1-3.6s-0.1-3.6-1.1-3.6S-87.1,278.2-87.1,280.2z"/>
			<path fill="#231F20" d="M-82.3,275.5h1.5c0.9,0,2.3,0,2.3,2.4c0,0.9-0.3,2.2-1.3,2.4l1.7,4.5h-1.3l-1.7-4.6h0v4.6h-1.2V275.5z
				 M-79.8,278.2c0-0.9-0.1-1.6-1.1-1.6H-81v3.1C-80.1,279.7-79.8,279.1-79.8,278.2z"/>
			<path fill="#231F20" d="M-75.8,275.5l1.3,6.7h0l0-0.4l0.4-2.2l0.8-4.1h1.1l0.9,9.3h-1.2l-0.2-3.5l-0.1-1.7l0-1.2h0l-0.2,1.3
				l-1,5.1h-0.9l-1.2-6.4h0l-0.4,6.4h-1.2l0.8-9.3L-75.8,275.5L-75.8,275.5z"/>
			<path fill="#231F20" d="M-67.9,275.5l2,9.3h-1.2l-0.3-1.8h-1.9l-0.3,1.8h-1.2l2-9.3H-67.9z M-67.9,280.7l-0.5-3.4h0l-0.7,4.7h1.5
				L-67.9,280.7z"/>
			<path fill="#231F20" d="M-62.2,275.5v1.1h-1.4v8.2h-1.2v-8.2h-1.5v-1.1H-62.2z"/>
			<path fill="#231F20" d="M-60.3,284.8h-1.2v-9.3h1.2V284.8z"/>
			<path fill="#231F20" d="M-54.2,280.2c0,1.7,0,4.8-2.4,4.8s-2.4-3.1-2.4-4.8c0-1.7,0-4.8,2.4-4.8S-54.2,278.5-54.2,280.2z
				 M-57.7,280.2c0,2,0.1,3.6,1.1,3.6s1.1-1.6,1.1-3.6s-0.1-3.6-1.1-3.6S-57.7,278.2-57.7,280.2z"/>
			<path fill="#231F20" d="M-51.9,278.3l0.2,3.1v3.4h-1.2v-9.3h1.2l2.2,7.1l0,0l-0.3-3.7v-3.3h1.2v9.3h-1.2l-2.2-7.2l0,0
				L-51.9,278.3z"/>
			<path fill="#231F20" d="M-40.8,275.1c-0.4-0.3-0.8-0.5-1.3-0.5c-0.8,0-1.4,0.7-1.4,1.5c0,0.5,0.1,0.9,0.4,1.3l1.2,1.3
				c1,1.1,1.6,1.8,1.6,3.4c0,1.6-1,3-2.7,3c-0.6,0-1.2-0.2-1.7-0.6v-1.5c0.5,0.3,0.9,0.6,1.5,0.6c1,0,1.3-0.8,1.3-1.6
				c0-2.3-3.2-2.8-3.2-5.8c0-1.6,0.9-3,2.6-3c0.6,0,1.1,0.1,1.6,0.4L-40.8,275.1z"/>
			<path fill="#231F20" d="M-35.8,275.5v1.1h-2.1v2.9h1.9v1.1h-1.9v3.2h2.1v1.1h-3.3v-9.3C-39.1,275.5-35.8,275.5-35.8,275.5z"/>
			<path fill="#231F20" d="M-34.8,275.5h1.5c0.9,0,2.3,0,2.3,2.4c0,0.9-0.3,2.2-1.3,2.4l1.7,4.5h-1.3l-1.7-4.6h0v4.6h-1.2
				L-34.8,275.5L-34.8,275.5z M-32.3,278.2c0-0.9-0.1-1.6-1.1-1.6h-0.2v3.1C-32.7,279.7-32.3,279.1-32.3,278.2z"/>
			<path fill="#231F20" d="M-29.2,275.5l1.1,7h0l0.1-0.6l0.5-3.1l0.6-3.3h1.2l-1.8,9.3h-1l-1.8-9.3H-29.2z"/>
			<path fill="#231F20" d="M-23.8,284.8H-25v-9.3h1.2V284.8z"/>
			<path fill="#231F20" d="M-18.7,276.8c-0.2-0.1-0.5-0.2-0.8-0.2c-1.7,0-1.7,2.5-1.7,3.7c0,1.2,0.1,3.6,1.8,3.6
				c0.3,0,0.5-0.1,0.7-0.2v1.1c-0.3,0.2-0.6,0.3-1,0.3c-2.5,0-2.9-2.7-2.9-4.6c0-1.9,0.2-4.9,2.8-4.9c0.4,0,0.7,0.1,1.1,0.3
				L-18.7,276.8L-18.7,276.8z"/>
			<path fill="#231F20" d="M-14.4,275.5v1.1h-2.1v2.9h1.9v1.1h-1.9v3.2h2.1v1.1h-3.3v-9.3C-17.7,275.5-14.4,275.5-14.4,275.5z"/>
		</g>
	</g>
</g>
</svg>
