<?xml version="1.0" encoding="utf-8"?>
<!-- Generator: Adobe Illustrator 18.1.1, SVG Export Plug-In . SVG Version: 6.00 Build 0)  -->
<svg version="1.1" id="Layer_1" xmlns="http://www.w3.org/2000/svg" xmlns:xlink="http://www.w3.org/1999/xlink" x="0px" y="0px"
	 viewBox="0 0 500 500" enable-background="new 0 0 500 500" xml:space="preserve">
<g id="guides">
</g>
<g id="Layer_2">
	<g>
		<polygon fill="#004FA2" points="295.5,217.6 241.8,217.6 241.8,235.1 259.8,235.1 259.8,272.5 277.3,272.5 277.3,235.1 
			295.5,235.1 		"/>
		<polygon fill="#004FA2" points="347.8,272.2 331,217.6 309.6,217.6 292.7,272.2 310.3,272.2 320.2,233.5 330.3,272.2 		"/>
		<polygon fill="#004FA2" points="401.3,217.6 347.6,217.6 347.6,235.1 365.6,235.1 365.6,272.5 383.1,272.5 383.1,235.1 
			401.3,235.1 		"/>
		<polygon fill="#004FA2" points="452.9,272.2 436.1,217.6 414.9,217.6 398,272.2 415.6,272.2 425.5,233.5 435.6,272.2 		"/>
		<path fill="#004FA2" d="M111.6,276.2c3.9-16.1,6.7-32,6.7-32s1.4-5.3-1.4-8.8c-2.8-3.5-11.5-2.3-11.5-2.3s-13.6,0.2-27.4,1.8
			c-12.4,1.4-24.9,3.9-29.5,4.8c-0.9,3.2-1.4,6.7-1.4,10.1c0,24.4,24.4,44.9,58.1,52.3C106.6,296,109.3,286.1,111.6,276.2
			L111.6,276.2z"/>
		<path fill="#004FA2" d="M136.8,266c-0.2-19.6,0.5-37.8,0.5-37.8s-0.7-2.8,1.2-4.1c1.8-1.4,6-1.4,6-1.4s16.1,0.5,34.3,2.8
			c13.4,1.6,27.6,4.4,34.1,5.8c-12-21.2-43.3-36.4-80.4-36.4c-37.1,0-68.7,15.4-80.4,36.6c5.8-1.2,21.2-4.1,35.3-6
			c18.2-2.3,34.3-2.8,34.3-2.8s4.1,0,6,1.4c1.8,1.4,1.2,4.1,1.2,4.1s0.5,18.2,0.5,37.8c-0.2,15-0.7,30.6-0.9,39.2c1.4,0,2.8,0,4.4,0
			c1.8,0,3.7,0,5.3-0.2C137.4,296.7,137,281,136.8,266L136.8,266z"/>
		<path fill="#004FA2" d="M187.7,235.1c-13.8-1.6-27.4-1.8-27.4-1.8s-8.8-1.2-11.5,2.3c-2.8,3.5-1.4,8.8-1.4,8.8s2.8,15.7,6.7,32
			c2.3,9.7,4.8,19.6,6.7,26c33.2-7.6,57.1-28.1,57.1-52.1c0-3.7-0.5-7.1-1.6-10.4C210.7,238.6,199.2,236.5,187.7,235.1L187.7,235.1z
			"/>
	</g>
</g>
</svg>
