<?xml version="1.0" encoding="utf-8"?>
<!-- Generator: Adobe Illustrator 18.1.0, SVG Export Plug-In . SVG Version: 6.00 Build 0)  -->
<svg version="1.1" xmlns="http://www.w3.org/2000/svg" xmlns:xlink="http://www.w3.org/1999/xlink" x="0px" y="0px"
	 viewBox="0 0 20 20" enable-background="new 0 0 20 20" xml:space="preserve">
<g id="Guides">
	<g>
		<rect x="-1210" y="-1480" fill="#806D60" width="100" height="100"/>
		<rect x="-1210" y="-1380" fill="#A68E7C" width="100" height="100"/>
		<rect x="-1210" y="-1280" fill="#E5D8CF" width="100" height="100"/>
		<rect x="-1210" y="-1180" fill="#FFFFFF" width="100" height="100"/>
		<rect x="-1210" y="-1080" fill="#FF4046" width="100" height="100"/>
		<rect x="-1210" y="-980" fill="#FF7040" width="100" height="100"/>
		<rect x="-1210" y="-880" fill="#FFAF40" width="100" height="100"/>
		<rect x="-1210" y="-780" fill="#FFEF40" width="100" height="100"/>
		<rect x="-1210" y="-680" fill="#1A2E33" width="100" height="100"/>
		<rect x="-1210" y="-580" fill="#538DA6" width="100" height="100"/>
		<rect x="-1210" y="-480" fill="#CCF2FF" width="100" height="100"/>
	</g>
</g>
<g id="_x31_2_Col_Grid" opacity="0.1" enable-background="new    ">
	<g>
		<g>
			<rect x="360" y="-1450" fill="#FF0000" width="60" height="1020"/>
		</g>
		<g>
			<rect x="280" y="-1450" fill="#FF0000" width="60" height="1020"/>
		</g>
		<g>
			<rect x="200" y="-1450" fill="#FF0000" width="60" height="1020"/>
		</g>
		<g>
			<rect x="120" y="-1450" fill="#FF0000" width="60" height="1020"/>
		</g>
		<g>
			<rect x="40" y="-1450" fill="#FF0000" width="60" height="1020"/>
		</g>
		<g>
			<rect x="-40" y="-1450" fill="#FF0000" width="60" height="1020"/>
		</g>
		<g>
			<rect x="-120" y="-1450" fill="#FF0000" width="60" height="1020"/>
		</g>
		<g>
			<rect x="-200" y="-1450" fill="#FF0000" width="60" height="1020"/>
		</g>
		<g>
			<rect x="-280" y="-1450" fill="#FF0000" width="60" height="1020"/>
		</g>
		<g>
			<rect x="-360" y="-1450" fill="#FF0000" width="60" height="1020"/>
		</g>
		<g>
			<rect x="-440" y="-1450" fill="#FF0000" width="60" height="1020"/>
		</g>
		<g>
			<rect x="-520" y="-1450" fill="#FF0000" width="60" height="1020"/>
		</g>
	</g>
</g>
<g id="daytime">
	<rect x="-1010" y="-1480" fill="#CCF2FF" width="1920" height="560"/>
	<polygon fill="#FFFFFF" points="-540,-1250 -540,-1260 -550,-1260 -550,-1270 -570,-1270 -570,-1260 -580,-1260 -580,-1270 
		-590,-1270 -590,-1280 -610,-1280 -610,-1270 -620,-1270 -620,-1260 -630,-1260 -630,-1250 -640,-1250 -640,-1230 -630,-1230 
		-630,-1220 -600,-1220 -600,-1210 -560,-1210 -560,-1220 -540,-1220 -540,-1230 -530,-1230 -530,-1250 	"/>
	<polygon fill="#FFFFFF" points="530,-1090 530,-1100 520,-1100 520,-1110 510,-1110 510,-1120 490,-1120 490,-1110 480,-1110 
		480,-1100 470,-1100 470,-1110 460,-1110 460,-1120 450,-1120 450,-1130 430,-1130 430,-1120 420,-1120 420,-1110 410,-1110 
		410,-1100 400,-1100 400,-1090 390,-1090 390,-1070 400,-1070 400,-1060 410,-1060 410,-1050 510,-1050 510,-1060 530,-1060 
		530,-1070 540,-1070 540,-1090 	"/>
</g>
<g id="nighttime" display="none">
	<rect x="-1010" y="-1480" display="inline" fill="#1A2E33" width="1920" height="560"/>
	<rect x="-730" y="-1385" display="inline" fill="#FFFFFF" width="10" height="10"/>
	<rect x="-710" y="-1205" display="inline" fill="#FFFFFF" width="10" height="10"/>
	<rect x="-570" y="-1055" display="inline" fill="#FFFFFF" width="10" height="10"/>
	<rect x="-680" y="-930" display="inline" fill="#FFAF40" width="10" height="10"/>
	<rect x="-690" y="-930" display="inline" fill="#FFEF40" width="10" height="10"/>
	<rect x="-700" y="-970" display="inline" fill="#FFEF40" width="10" height="10"/>
	<rect x="-680" y="-1000" display="inline" fill="#FFEF40" width="10" height="10"/>
	<rect x="-690" y="-940" display="inline" fill="#FFAF40" width="10" height="10"/>
	<rect x="-700" y="-930" display="inline" fill="#FFAF40" width="10" height="10"/>
	<rect x="-940" y="-1045" display="inline" fill="#FFFFFF" width="10" height="10"/>
	<rect x="-910" y="-1255" display="inline" fill="#FFFFFF" width="10" height="10"/>
	<rect x="-560" y="-1365" display="inline" fill="#FFFFFF" width="10" height="10"/>
	<rect x="340" y="-1175" display="inline" fill="#FFFFFF" width="10" height="10"/>
	<rect x="550" y="-1445" display="inline" fill="#FFFFFF" width="10" height="10"/>
	<rect x="580" y="-1295" display="inline" fill="#FFFFFF" width="10" height="10"/>
	<rect x="750" y="-1195" display="inline" fill="#FFFFFF" width="10" height="10"/>
	<rect x="640" y="-1025" display="inline" fill="#FFFFFF" width="10" height="10"/>
	<rect x="450" y="-1055" display="inline" fill="#FFFFFF" width="10" height="10"/>
</g>
<g id="home">
	<g>
		<polygon fill="#FFFFFF" points="250,-1390 240,-1390 240,-1400 -340,-1400 -340,-1390 -350,-1390 -350,-1380 -360,-1380 
			-360,-920 260,-920 260,-1380 250,-1380 		"/>
	</g>
	<g>
		<g>
			<g>
				<polygon fill="#FF7040" points="-52.7,-1315.8 -52.7,-1318.4 -55.3,-1318.4 -55.3,-1315.8 -60.7,-1315.8 -60.7,-1305.1 
					-58,-1305.1 -58,-1313.1 -50,-1313.1 -50,-1315.8 				"/>
				<polygon fill="#FF4046" points="-55.3,-1323.8 -55.3,-1321.1 -58,-1321.1 -58,-1318.4 -60.7,-1318.4 -60.7,-1315.8 
					-55.3,-1315.8 -55.3,-1318.4 -52.7,-1318.4 -52.7,-1323.8 				"/>
				<rect x="-52.7" y="-1326.5" fill="#FF4046" width="2.7" height="2.7"/>
				<rect x="-44.7" y="-1318.4" fill="#FF4046" width="2.7" height="2.7"/>
				<rect x="-47.3" y="-1321.1" fill="#FF4046" width="2.7" height="2.7"/>
				<polygon fill="#FF7040" points="-42,-1313.1 -42,-1315.8 -47.3,-1315.8 -47.3,-1313.1 -44.7,-1313.1 -44.7,-1310.4 -42,-1310.4 
					-42,-1305.1 -39.3,-1305.1 -39.3,-1313.1 				"/>
				<polygon fill="#FFAF40" points="-44.7,-1310.4 -44.7,-1313.1 -58,-1313.1 -58,-1302.4 -55.3,-1302.4 -55.3,-1310.4 
					-47.3,-1310.4 -47.3,-1307.8 -44.7,-1307.8 -44.7,-1302.4 -42,-1302.4 -42,-1310.4 				"/>
				<path fill="#FFEF40" d="M-47.3-1307.8v-2.7h-8v10.7h10.7v-8H-47.3z M-47.3-1302.4h-5.3v-5.3h2.7v2.7h2.7V-1302.4z"/>
				<polygon fill="#FFFFFF" points="-50,-1305.1 -50,-1307.8 -52.7,-1307.8 -52.7,-1302.4 -47.3,-1302.4 -47.3,-1305.1 				"/>
			</g>
			<g>
				<path fill="#806D60" d="M-28.7-1287.7c0,2.2-1.8,4-4,4l0,0c-2.2,0-4-1.8-4-4l0,0c0-2.2,1.8-4,4-4l0,0
					C-30.4-1291.8-28.7-1290-28.7-1287.7L-28.7-1287.7z"/>
				<path fill="#806D60" d="M-68.5-1291.6L-68.5-1291.6c0,0,0.1,0,0.1,0L-68.5-1291.6z"/>
				<path fill="#806D60" d="M-28.7-1295.8c0-2.2-1.8-4-4-4c-0.4,0-0.7,0.1-1,0.1l0,0l-34.4,7.9c0.2,0,0.5-0.1,0.7-0.1
					c2.2,0,4,1.8,4,4c0,1.9-1.3,3.4-3,3.9l0,0l34.7-8l0,0C-29.9-1292.4-28.7-1293.9-28.7-1295.8z"/>
				<path fill="#A68E7C" d="M-63.3-1287.7c0,2.2-1.8,4-4,4l0,0c-2.2,0-4-1.8-4-4l0,0c0-2.2,1.8-4,4-4l0,0
					C-65.1-1291.8-63.3-1290-63.3-1287.7L-63.3-1287.7z"/>
				<path fill="#A68E7C" d="M-36.7-1287.7c0-2.2,1.8-4,4-4c0.3,0,0.5,0,0.7,0.1l-34.4-7.9l0,0c-0.3-0.1-0.7-0.1-1-0.1
					c-2.2,0-3.9,1.8-3.9,4c0,1.8,1.4,3.4,3,3.9l0,0c0.1,0,0.2,0.1,0.3,0.1l34.3,7.9l0,0C-35.4-1284.3-36.7-1285.9-36.7-1287.7z"/>
				<path fill="#A68E7C" d="M-31.5-1291.6L-31.5-1291.6l-0.1,0C-31.6-1291.6-31.6-1291.6-31.5-1291.6z"/>
			</g>
		</g>
		<g>
			<path fill="#806D60" d="M-15.8-1318.1c-0.2-0.5-0.5-1-0.7-1.5l-0.5,0.2c0.2,0.5,0.5,1,0.7,1.4L-15.8-1318.1z"/>
			<path fill="#806D60" d="M-15.8-1286.7c0.2-0.5,0.4-1,0.6-1.5l-0.5-0.2c-0.2,0.5-0.4,1-0.6,1.5L-15.8-1286.7z"/>
			<path fill="#806D60" d="M-13.6-1312c-0.1-0.5-0.3-1-0.4-1.6l-0.5,0.2c0.2,0.5,0.3,1,0.4,1.5L-13.6-1312z"/>
			<path fill="#806D60" d="M-14.6-1315.1c-0.2-0.5-0.4-1-0.6-1.5l-0.5,0.2c0.2,0.5,0.4,1,0.6,1.5L-14.6-1315.1z"/>
			<path fill="#806D60" d="M-13.4-1308.8l0.5-0.1c-0.1-0.5-0.2-1.1-0.3-1.6l-0.5,0.1C-13.6-1309.8-13.5-1309.3-13.4-1308.8z"/>
			<path fill="#806D60" d="M-19-1323.8c-0.3-0.4-0.6-0.9-0.9-1.3l-0.4,0.3c0.3,0.4,0.6,0.9,0.9,1.3L-19-1323.8z"/>
			<path fill="#806D60" d="M-23.1-1328.8c-0.4-0.4-0.8-0.8-1.2-1.1l-0.4,0.4c0.4,0.4,0.8,0.7,1.1,1.1L-23.1-1328.8z"/>
			<path fill="#806D60" d="M-21-1326.4c-0.3-0.4-0.7-0.8-1.1-1.2l-0.4,0.4c0.4,0.4,0.7,0.8,1,1.2L-21-1326.4z"/>
			<path fill="#806D60" d="M-25.5-1331c-0.4-0.4-0.8-0.7-1.3-1l-0.3,0.4c0.4,0.3,0.8,0.7,1.2,1L-25.5-1331z"/>
			<path fill="#806D60" d="M-17.3-1321c-0.3-0.5-0.5-0.9-0.8-1.4l-0.4,0.3c0.3,0.5,0.6,0.9,0.8,1.4L-17.3-1321z"/>
			<path fill="#806D60" d="M-19-1281.1c0.3-0.5,0.6-0.9,0.9-1.4l-0.4-0.3c-0.3,0.5-0.6,0.9-0.9,1.3L-19-1281.1z"/>
			<path fill="#806D60" d="M-13-1305.6l0.5-0.1c-0.1-0.5-0.1-1.1-0.2-1.6l-0.5,0.1C-13.1-1306.7-13.1-1306.2-13-1305.6z"/>
			<path fill="#806D60" d="M-87.3-1297.6c0.1,0.5,0.1,1.1,0.2,1.6l0.5-0.1c-0.1-0.5-0.2-1.1-0.2-1.6L-87.3-1297.6z"/>
			<path fill="#806D60" d="M-28-1333c-0.4-0.3-0.9-0.6-1.3-0.9l-0.3,0.4c0.4,0.3,0.9,0.6,1.3,0.9L-28-1333z"/>
			<path fill="#806D60" d="M-87.6-1300.8c0,0.5,0.1,1.1,0.1,1.6l0.5,0c0-0.5-0.1-1.1-0.1-1.6L-87.6-1300.8z"/>
			<path fill="#806D60" d="M-84.4-1288.5l-0.5,0.2c0.2,0.5,0.4,1,0.6,1.5l0.5-0.2C-84-1287.5-84.2-1288-84.4-1288.5z"/>
			<path fill="#806D60" d="M-12.9-1302.4L-12.9-1302.4l0.5,0v0c0-0.5,0-1.1,0-1.6l-0.5,0C-12.9-1303.5-12.9-1303-12.9-1302.4z"/>
			<path fill="#806D60" d="M-83-1285.5l-0.5,0.2c0.2,0.5,0.5,1,0.8,1.4l0.5-0.3C-82.5-1284.6-82.8-1285.1-83-1285.5z"/>
			<path fill="#806D60" d="M-86.8-1294.4c0.1,0.5,0.2,1.1,0.4,1.6l0.5-0.1c-0.1-0.5-0.3-1-0.4-1.5L-86.8-1294.4z"/>
			<path fill="#806D60" d="M-84.9-1289.9c-0.2-0.5-0.4-1-0.5-1.5l-0.5,0.2c0.2,0.5,0.3,1,0.5,1.5L-84.9-1289.9z"/>
			<path fill="#806D60" d="M-14.1-1292.9l0.5,0.1c0.1-0.5,0.3-1,0.4-1.6l-0.5-0.1C-13.9-1293.9-14-1293.4-14.1-1292.9z"/>
			<path fill="#806D60" d="M-15.1-1289.8l0.5,0.2c0.2-0.5,0.4-1,0.5-1.5l-0.5-0.2C-14.8-1290.8-14.9-1290.3-15.1-1289.8z"/>
			<path fill="#806D60" d="M-12.4-1300.7l-0.5,0c0,0.5-0.1,1.1-0.1,1.6l0.5,0C-12.5-1299.7-12.4-1300.2-12.4-1300.7z"/>
			<path fill="#806D60" d="M-81.5-1282.8l-0.5,0.3c0.3,0.5,0.6,0.9,0.9,1.3l0.4-0.3C-80.9-1281.9-81.2-1282.3-81.5-1282.8z"/>
			<path fill="#806D60" d="M-13.5-1296l0.5,0.1c0.1-0.5,0.2-1.1,0.2-1.6l-0.5-0.1C-13.3-1297.1-13.4-1296.5-13.5-1296z"/>
			<path fill="#806D60" d="M-17.3-1283.8c0.3-0.5,0.5-0.9,0.8-1.4l-0.5-0.2c-0.2,0.5-0.5,0.9-0.8,1.4L-17.3-1283.8z"/>
			<path fill="#806D60" d="M-79.6-1324.8l-0.4-0.3c-0.3,0.4-0.6,0.9-0.9,1.3l0.4,0.3C-80.3-1323.9-79.9-1324.3-79.6-1324.8z"/>
			<path fill="#806D60" d="M-83-1319.4l-0.5-0.2c-0.2,0.5-0.5,1-0.7,1.5l0.5,0.2C-83.5-1318.4-83.3-1318.9-83-1319.4z"/>
			<path fill="#806D60" d="M-81.4-1322.1l-0.4-0.3c-0.3,0.5-0.6,0.9-0.8,1.4l0.5,0.3C-82-1321.2-81.7-1321.7-81.4-1322.1z"/>
			<path fill="#806D60" d="M-70.4-1333.4l-0.3-0.4c-0.4,0.3-0.9,0.6-1.3,0.9l0.3,0.4C-71.2-1332.9-70.8-1333.2-70.4-1333.4z"/>
			<path fill="#806D60" d="M-72.9-1331.6l-0.3-0.4c-0.4,0.3-0.9,0.7-1.3,1l0.3,0.4C-73.8-1330.9-73.4-1331.3-72.9-1331.6z"/>
			<path fill="#806D60" d="M-75.4-1329.5l-0.4-0.4c-0.4,0.4-0.8,0.7-1.2,1.1l0.4,0.4C-76.1-1328.8-75.7-1329.1-75.4-1329.5z"/>
			<path fill="#806D60" d="M-77.6-1327.2l-0.4-0.4c-0.4,0.4-0.7,0.8-1.1,1.2l0.4,0.3C-78.3-1326.4-77.9-1326.8-77.6-1327.2z"/>
			<path fill="#806D60" d="M-86.8-1307.2l-0.5-0.1c-0.1,0.5-0.1,1.1-0.2,1.6l0.5,0C-86.9-1306.2-86.8-1306.7-86.8-1307.2z"/>
			<path fill="#806D60" d="M-87-1304l-0.5,0c0,0.5,0,1.1,0,1.6h0.5C-87.1-1303-87.1-1303.5-87-1304z"/>
			<path fill="#806D60" d="M-85.4-1313.5l-0.5-0.2c-0.2,0.5-0.3,1-0.4,1.6l0.5,0.1C-85.7-1312.5-85.6-1313-85.4-1313.5z"/>
			<path fill="#806D60" d="M-84.3-1316.5l-0.5-0.2c-0.2,0.5-0.4,1-0.6,1.5l0.5,0.2C-84.7-1315.5-84.5-1316-84.3-1316.5z"/>
			<path fill="#806D60" d="M-86.2-1310.4l-0.5-0.1c-0.1,0.5-0.2,1-0.3,1.6l0.5,0.1C-86.5-1309.3-86.3-1309.9-86.2-1310.4z"/>
			<path fill="#806D60" d="M-61.7-1337.6l-0.2-0.5c-0.5,0.2-1,0.3-1.5,0.5l0.2,0.5C-62.8-1337.3-62.2-1337.5-61.7-1337.6z"/>
			<path fill="#806D60" d="M-50-1339.5c0.3,0,0.5,0,0.8,0l0-0.5c-0.3,0-0.5,0-0.8,0c-0.3,0-0.6,0-0.8,0l0,0.5
				C-50.5-1339.5-50.3-1339.5-50-1339.5z"/>
			<path fill="#806D60" d="M-42.7-1339.4c-0.5-0.1-1.1-0.2-1.6-0.3l-0.1,0.5c0.5,0.1,1.1,0.2,1.6,0.3L-42.7-1339.4z"/>
			<path fill="#806D60" d="M-45.9-1339.8c-0.5-0.1-1.1-0.1-1.6-0.1l0,0.5c0.5,0,1.1,0.1,1.6,0.1L-45.9-1339.8z"/>
			<path fill="#806D60" d="M-67.6-1335.1l-0.3-0.5c-0.5,0.3-0.9,0.5-1.4,0.8l0.3,0.5C-68.5-1334.6-68.1-1334.8-67.6-1335.1z"/>
			<path fill="#806D60" d="M-36.5-1337.6c-0.5-0.2-1-0.4-1.5-0.5l-0.2,0.5c0.5,0.2,1,0.4,1.5,0.5L-36.5-1337.6z"/>
			<path fill="#806D60" d="M-33.6-1336.3c-0.5-0.2-1-0.5-1.5-0.7l-0.2,0.5c0.5,0.2,1,0.4,1.4,0.7L-33.6-1336.3z"/>
			<path fill="#806D60" d="M-39.6-1338.6c-0.5-0.2-1-0.3-1.6-0.4l-0.1,0.5c0.5,0.1,1,0.3,1.6,0.4L-39.6-1338.6z"/>
			<path fill="#806D60" d="M-30.7-1334.7c-0.5-0.3-0.9-0.5-1.4-0.8l-0.3,0.5c0.5,0.3,0.9,0.5,1.4,0.8L-30.7-1334.7z"/>
			<path fill="#806D60" d="M-64.7-1336.5l-0.2-0.5c-0.5,0.2-1,0.4-1.5,0.7l0.2,0.5C-65.7-1336.1-65.2-1336.3-64.7-1336.5z"/>
			<path fill="#806D60" d="M-55.6-1339.1l-0.1-0.5c-0.5,0.1-1.1,0.2-1.6,0.3l0.1,0.5C-56.6-1338.9-56.1-1339-55.6-1339.1z"/>
			<path fill="#806D60" d="M-58.7-1338.5l-0.1-0.5c-0.5,0.1-1.1,0.3-1.6,0.4l0.1,0.5C-59.7-1338.2-59.2-1338.4-58.7-1338.5z"/>
			<path fill="#806D60" d="M-52.4-1339.5l0-0.5c-0.5,0-1.1,0.1-1.6,0.1l0.1,0.5C-53.4-1339.4-52.9-1339.4-52.4-1339.5z"/>
		</g>
		<g>
			<path fill="#FF7040" d="M-76.5-1268.6c0,0.8-0.1,1.5-0.3,2.1c-0.2,0.6-0.5,1.2-0.9,1.7c-0.4,0.5-0.8,0.9-1.4,1.1
				c-0.5,0.3-1.2,0.4-1.8,0.4c-1.5,0-3.2-0.2-5-0.6v-3.2v-9.3c-0.3,0-0.5-0.1-0.6-0.1c-0.2,0-0.3,0-0.3-0.1c-0.1,0-0.1,0-0.1,0
				c-0.3-0.1-0.5-0.3-0.5-0.6v-1.2h1.6h2.5v5.9c0.4-0.4,0.9-0.8,1.4-1c0.5-0.3,1.1-0.4,1.8-0.4c0.6,0,1.1,0.1,1.5,0.3
				c0.5,0.2,0.9,0.6,1.2,1c0.3,0.5,0.6,1,0.8,1.6C-76.6-1270.2-76.5-1269.4-76.5-1268.6z M-79.1-1268.6c0-0.6-0.1-1.1-0.1-1.5
				c-0.1-0.4-0.2-0.8-0.4-1c-0.2-0.3-0.4-0.4-0.7-0.6c-0.3-0.1-0.5-0.2-0.9-0.2c-0.5,0-1,0.1-1.3,0.3c-0.4,0.2-0.7,0.5-1,0.9v5.4
				c0.7,0.1,1.3,0.2,2,0.2c0.4,0,0.7-0.1,1-0.2c0.3-0.1,0.6-0.4,0.8-0.6c0.2-0.3,0.4-0.6,0.5-1.1
				C-79.2-1267.4-79.1-1268-79.1-1268.6z"/>
			<path fill="#FF7040" d="M-70.1-1264.5v1.2h-1.5h-2.5h-1.5v-1.2c0-0.3,0.2-0.6,0.5-0.6c0,0,0.1,0,0.1,0c0.1,0,0.2,0,0.3-0.1
				c0.1,0,0.3-0.1,0.6-0.1v-6.4c-0.3,0-0.4-0.1-0.6-0.1c-0.1,0-0.2,0-0.3-0.1c-0.1,0-0.1,0-0.1,0c-0.3-0.1-0.5-0.3-0.5-0.6v-1.2h1.5
				h2.5v8.3c0.3,0,0.4,0.1,0.6,0.1c0.1,0,0.2,0.1,0.3,0.1c0.1,0,0.1,0,0.1,0C-70.3-1265.1-70.1-1264.8-70.1-1264.5z M-71.4-1276.1
				c-0.1,0.2-0.2,0.4-0.4,0.5c-0.1,0.1-0.3,0.3-0.5,0.3c-0.2,0.1-0.4,0.1-0.6,0.1c-0.2,0-0.4,0-0.6-0.1c-0.2-0.1-0.3-0.2-0.5-0.3
				c-0.1-0.1-0.2-0.3-0.3-0.5c-0.1-0.2-0.1-0.4-0.1-0.6c0-0.2,0-0.4,0.1-0.6c0.1-0.2,0.2-0.4,0.3-0.5c0.2-0.1,0.3-0.3,0.5-0.3
				c0.2-0.1,0.4-0.1,0.6-0.1c0.2,0,0.4,0,0.6,0.1c0.2,0.1,0.4,0.2,0.5,0.3c0.1,0.1,0.3,0.3,0.4,0.5c0.1,0.2,0.1,0.4,0.1,0.6
				C-71.3-1276.4-71.3-1276.2-71.4-1276.1z"/>
			<path fill="#FF7040" d="M-67.5-1263.9c-0.5-0.5-0.7-1.2-0.7-2.1v-5.8h-1c-0.1,0-0.2-0.1-0.3-0.1c-0.1-0.1-0.1-0.2-0.1-0.4v-1
				l1.7-0.3l0.5-2.8c0-0.1,0.1-0.2,0.2-0.3c0.1-0.1,0.2-0.1,0.4-0.1h1.3v3.2h2.7v1.8h-2.7v5.6c0,0.3,0.1,0.6,0.2,0.7
				c0.2,0.2,0.4,0.3,0.6,0.3c0.2,0,0.3,0,0.4-0.1c0.1,0,0.2-0.1,0.3-0.1c0.1,0,0.1-0.1,0.2-0.1c0.1,0,0.1-0.1,0.2-0.1
				c0.1,0,0.1,0,0.2,0.1c0,0,0.1,0.1,0.1,0.2l0.7,1.2c-0.4,0.3-0.8,0.5-1.2,0.7c-0.5,0.2-1,0.2-1.4,0.2
				C-66.3-1263.2-67-1263.4-67.5-1263.9z"/>
			<path fill="#FF7040" d="M-53.5-1264.8c-0.3,0.3-0.6,0.6-0.9,0.8c-0.3,0.2-0.6,0.4-1,0.5c-0.4,0.1-0.7,0.2-1.1,0.3
				c-0.4,0.1-0.7,0.1-1.1,0.1c-0.6,0-1.2-0.1-1.8-0.4c-0.6-0.2-1-0.6-1.5-1c-0.4-0.5-0.7-1-1-1.7c-0.2-0.7-0.4-1.4-0.4-2.3
				c0-0.8,0.1-1.5,0.3-2.1c0.2-0.7,0.5-1.2,1-1.7c0.4-0.5,0.9-0.8,1.6-1.1c0.6-0.3,1.3-0.4,2.2-0.4c0.8,0,1.9,0.2,3.2,0.7v3.2H-54
				h-0.2h-0.8c-0.3,0-0.4-0.1-0.5-0.4c0-0.2-0.1-0.7-0.2-1.5c-0.5-0.1-1-0.2-1.3-0.2c-0.4,0-0.8,0.1-1.2,0.2
				c-0.3,0.2-0.6,0.4-0.8,0.7c-0.2,0.3-0.4,0.7-0.5,1.1c-0.1,0.4-0.2,0.9-0.2,1.4c0,0.5,0.1,1,0.2,1.5c0.1,0.4,0.3,0.8,0.5,1.1
				c0.2,0.3,0.5,0.5,0.8,0.7c0.3,0.1,0.7,0.2,1.1,0.2c0.4,0,0.7,0,0.9-0.1c0.2-0.1,0.5-0.2,0.6-0.3c0.2-0.1,0.3-0.2,0.4-0.3
				c0.1-0.1,0.3-0.1,0.4-0.1c0.2,0,0.3,0.1,0.4,0.2L-53.5-1264.8z"/>
			<path fill="#FF7040" d="M-42.6-1264.5v1.2h-1.3h-0.3h-0.8c-0.2,0-0.4,0-0.6-0.1c-0.1-0.1-0.2-0.2-0.3-0.4l-0.2-0.7
				c-0.3,0.2-0.5,0.4-0.8,0.6c-0.3,0.2-0.5,0.3-0.8,0.4c-0.3,0.1-0.6,0.2-0.9,0.3c-0.3,0.1-0.6,0.1-1,0.1c-0.4,0-0.8-0.1-1.2-0.2
				c-0.4-0.1-0.7-0.3-0.9-0.5c-0.3-0.2-0.5-0.5-0.6-0.9c-0.1-0.4-0.2-0.8-0.2-1.2c0-0.4,0.1-0.8,0.3-1.2c0.2-0.4,0.5-0.7,1-1
				c0.5-0.3,1.1-0.6,1.9-0.8c0.8-0.2,1.8-0.3,2.9-0.3v-0.6c0-0.7-0.1-1.2-0.4-1.5c-0.3-0.3-0.7-0.5-1.3-0.5c-0.4,0-0.7,0.1-1,0.1
				c-0.3,0.1-0.5,0.2-0.7,0.3c-0.2,0.1-0.4,0.2-0.5,0.3c-0.2,0.1-0.3,0.2-0.6,0.2c-0.2,0-0.3-0.1-0.4-0.1c-0.1-0.1-0.2-0.2-0.3-0.3
				l-0.5-0.8c1.2-1.1,2.6-1.6,4.3-1.6c0.6,0,1.1,0.1,1.6,0.3c0.5,0.2,0.9,0.5,1.2,0.8c0.3,0.3,0.6,0.8,0.8,1.3
				c0.2,0.5,0.2,1,0.2,1.6v4.6c0.2,0,0.4,0.1,0.5,0.1c0.1,0,0.2,0,0.2,0C-42.7-1265.1-42.6-1264.9-42.6-1264.5z M-46.2-1267.7
				c-0.7,0-1.3,0-1.8,0.1c-0.5,0.1-0.9,0.2-1.2,0.4c-0.3,0.1-0.5,0.3-0.6,0.5c-0.1,0.2-0.2,0.4-0.2,0.6c0,0.4,0.1,0.7,0.4,0.9
				c0.3,0.2,0.6,0.3,1,0.3c0.2,0,0.5,0,0.7-0.1c0.2,0,0.4-0.1,0.6-0.2c0.2-0.1,0.4-0.2,0.6-0.3c0.2-0.1,0.4-0.3,0.5-0.5
				L-46.2-1267.7L-46.2-1267.7z"/>
			<path fill="#FF7040" d="M-23.8-1264.5v1.2h-1.5h-2.5v-6.6c0-0.7-0.1-1.2-0.4-1.5c-0.3-0.3-0.7-0.5-1.3-0.5c-0.3,0-0.5,0-0.7,0.1
				c-0.2,0.1-0.4,0.2-0.6,0.4c-0.2,0.2-0.3,0.4-0.4,0.6c-0.1,0.2-0.1,0.5-0.1,0.9v4.6c0.2,0,0.4,0.1,0.6,0.1c0.1,0,0.2,0.1,0.3,0.1
				c0.1,0,0.1,0,0.1,0c0.3,0.1,0.5,0.3,0.5,0.6v1.2h-1.5h-2.5v-6.6c0-0.7-0.1-1.2-0.4-1.5c-0.3-0.3-0.7-0.5-1.2-0.5
				c-0.3,0-0.7,0.1-1,0.3c-0.3,0.2-0.6,0.4-0.9,0.7v5.6c0.3,0,0.4,0.1,0.6,0.1c0.2,0,0.2,0.1,0.3,0.1c0.1,0,0.1,0,0.1,0
				c0.3,0.1,0.5,0.3,0.5,0.6v1.2h-1.5h-2.5h-1.5v-1.2c0-0.3,0.2-0.6,0.5-0.6c0,0,0.1,0,0.1,0c0.1,0,0.2,0,0.3-0.1
				c0.1,0,0.3-0.1,0.6-0.1v-6.4c-0.2,0-0.4-0.1-0.6-0.1c-0.1,0-0.2,0-0.3-0.1c-0.1,0-0.1,0-0.1,0c-0.3-0.1-0.5-0.3-0.5-0.6v-1.2h1.5
				h1.5c0.3,0,0.5,0.2,0.6,0.5l0.2,0.8c0.2-0.2,0.4-0.4,0.6-0.6c0.2-0.2,0.4-0.3,0.6-0.4c0.2-0.1,0.5-0.2,0.7-0.3
				c0.2-0.1,0.5-0.1,0.8-0.1c0.7,0,1.2,0.2,1.6,0.5c0.4,0.3,0.7,0.8,0.9,1.4c0.2-0.3,0.4-0.6,0.6-0.9c0.2-0.2,0.5-0.4,0.8-0.6
				c0.3-0.2,0.6-0.3,0.9-0.3c0.3-0.1,0.7-0.1,1-0.1c0.6,0,1.1,0.1,1.5,0.3c0.4,0.2,0.8,0.4,1.1,0.8c0.3,0.3,0.5,0.7,0.7,1.2
				c0.2,0.5,0.2,1,0.2,1.7v4.6c0.2,0,0.4,0.1,0.6,0.1c0.1,0,0.2,0.1,0.3,0.1c0.1,0,0.1,0,0.1,0C-24-1265.1-23.8-1264.8-23.8-1264.5z
				"/>
			<path fill="#FF7040" d="M-12.4-1268.6c0,0.8-0.1,1.5-0.3,2.2c-0.2,0.6-0.5,1.2-0.9,1.7c-0.4,0.5-0.8,0.9-1.4,1.1
				c-0.5,0.3-1.2,0.4-1.8,0.4c-0.6,0-1.1-0.1-1.5-0.3c-0.4-0.2-0.8-0.4-1.1-0.7v2.2c0.3,0,0.4,0.1,0.6,0.1c0.1,0,0.2,0.1,0.3,0.1
				c0.1,0,0.1,0,0.1,0c0.3,0.1,0.5,0.3,0.5,0.6v1.2h-1.5h-2.5h-1.5v-1.2c0-0.3,0.2-0.6,0.5-0.6c0,0,0.1,0,0.1,0c0.1,0,0.2,0,0.3-0.1
				c0.1,0,0.3-0.1,0.6-0.1v-9.7c-0.2,0-0.5-0.1-0.6-0.1c-0.1,0-0.2,0-0.3-0.1c-0.1,0-0.1,0-0.1,0c-0.3-0.1-0.5-0.3-0.5-0.6v-1.2h1.5
				h1.5c0.2,0,0.3,0,0.4,0.1c0.1,0.1,0.2,0.2,0.2,0.3l0.2,1c0.4-0.5,0.9-0.9,1.4-1.2c0.5-0.3,1.2-0.4,1.9-0.4c0.6,0,1.1,0.1,1.5,0.3
				c0.5,0.2,0.9,0.6,1.2,1c0.3,0.4,0.6,1,0.8,1.7C-12.5-1270.2-12.4-1269.4-12.4-1268.6z M-14.9-1268.6c0-0.6-0.1-1.1-0.2-1.5
				c-0.1-0.4-0.2-0.8-0.4-1c-0.2-0.3-0.4-0.4-0.7-0.6c-0.3-0.1-0.6-0.2-0.9-0.2c-0.5,0-1,0.1-1.3,0.3c-0.4,0.2-0.7,0.5-1,0.9v4.6
				c0.3,0.4,0.6,0.6,0.9,0.7c0.3,0.1,0.7,0.2,1.1,0.2c0.4,0,0.7-0.1,1-0.2c0.3-0.1,0.6-0.4,0.8-0.6c0.2-0.3,0.4-0.6,0.5-1.1
				C-15-1267.4-14.9-1268-14.9-1268.6z"/>
		</g>
	</g>
	<text transform="matrix(1 0 0 1 -184.395 -1149.1033)" fill="#538DA6" font-family="'Aleo-Regular'" font-size="36">April 10-12, 2015</text>
	<g>
		<g>
			<path fill="#FFFFFF" d="M180-1036c0-2.2-1.8-4-4-4h-452c-2.2,0-4,1.8-4,4v72c0,2.2,1.8,4,4,4h452c2.2,0,4-1.8,4-4V-1036z"/>
			<path fill="none" stroke="#E5D8CF" stroke-width="2" stroke-miterlimit="10" d="M180-1036c0-2.2-1.8-4-4-4h-452c-2.2,0-4,1.8-4,4
				v72c0,2.2,1.8,4,4,4h452c2.2,0,4-1.8,4-4V-1036z"/>
		</g>
		<g>
			<path fill="#538DA6" d="M40-984c0,2.2,1.8,4,4,4h112c2.2,0,4-1.8,4-4v-32c0-2.2-1.8-4-4-4H44c-2.2,0-4,1.8-4,4V-984z"/>
		</g>
		<text transform="matrix(1 0 0 1 72.3199 -994)" fill="#FFFFFF" font-family="'Lato-Bold'" font-size="18">submit</text>
		
			<text transform="matrix(1 0 0 1 -249.9999 -992.3018)" opacity="0.65" fill="#538DA6" font-family="'Lato-Regular'" font-size="24">email address</text>
	</g>
	<text transform="matrix(1 0 0 1 -518 494.2552)" fill="#538DA6" font-family="'Lato-Regular'" font-size="18">© Bitcamp 2015</text>
	<text transform="matrix(1 0 0 1 134.0118 494.2552)"><tspan x="0" y="0" fill="#538DA6" font-family="'Lato-Bold'" font-size="18">2014 </tspan><tspan x="45.2" y="0" fill="#538DA6" font-family="'Lato-Bold'" font-size="18">W</tspan><tspan x="63.7" y="0" fill="#538DA6" font-family="'Lato-Bold'" font-size="18">ebsite    </tspan><tspan x="126.8" y="0" fill="#538DA6" font-family="'Lato-Bold'" font-size="18" letter-spacing="-1">V</tspan><tspan x="138.5" y="0" fill="#538DA6" font-family="'Lato-Bold'" font-size="18">olunteer    Contact</tspan></text>
	<rect x="-280" y="-1120" fill="none" width="460" height="38.2"/>
	<text transform="matrix(1 0 0 1 -260.9751 -1106.7339)"><tspan x="0" y="0" fill="#538DA6" font-family="'Lato-Regular'" font-size="18">W</tspan><tspan x="18.1" y="0" fill="#538DA6" font-family="'Lato-Regular'" font-size="18">e</tspan><tspan x="26.7" y="0" fill="#538DA6" font-family="'Lato-Regular'" font-size="18">’re gearing up for another session of Bitcamp! Now </tspan><tspan x="-7.7" y="21.6" fill="#538DA6" font-family="'Lato-Regular'" font-size="18">something catc</tspan><tspan x="111" y="21.6" fill="#538DA6" font-family="'Lato-Regular'" font-size="18">h</tspan><tspan x="120.7" y="21.6" fill="#538DA6" font-family="'Lato-Regular'" font-size="18">y about w</tspan><tspan x="196.6" y="21.6" fill="#538DA6" font-family="'Lato-Regular'" font-size="18">h</tspan><tspan x="206.3" y="21.6" fill="#538DA6" font-family="'Lato-Regular'" font-size="18">y this </tspan><tspan x="251.6" y="21.6" fill="#538DA6" font-family="'Lato-Regular'" font-size="18">y</tspan><tspan x="260.6" y="21.6" fill="#538DA6" font-family="'Lato-Regular'" font-size="18">ear is cool + different.</tspan></text>
	<g>
		<g>
			<text transform="matrix(1 0 0 1 -293.4556 -529.1035)"><tspan x="0" y="0" fill="#FF7040" font-family="'Aleo-Regular'" font-size="36">Sp</tspan><tspan x="40.1" y="0" fill="#FF7040" font-family="'Aleo-Regular'" font-size="36">on</tspan><tspan x="81.6" y="0" fill="#FF7040" font-family="'Aleo-Regular'" font-size="36">s</tspan><tspan x="97.3" y="0" fill="#FF7040" font-family="'Aleo-Regular'" font-size="36">ors help ma</tspan><tspan x="283.4" y="0" fill="#FF7040" font-family="'Aleo-Regular'" font-size="36" letter-spacing="-1">k</tspan><tspan x="303.1" y="0" fill="#FF7040" font-family="'Aleo-Regular'" font-size="36">e this hap</tspan><tspan x="458.1" y="0" fill="#FF7040" font-family="'Aleo-Regular'" font-size="36">p</tspan><tspan x="479.1" y="0" fill="#FF7040" font-family="'Aleo-Regular'" font-size="36">en.</tspan></text>
		</g>
		<g>
			<rect x="-323.4" y="-550" fill="#FF7040" width="10" height="10"/>
			<rect x="-333.4" y="-550" fill="#FF7040" width="10" height="10"/>
			<rect x="-323.4" y="-540" fill="#FFAF40" width="10" height="10"/>
			<rect x="-333.4" y="-540" fill="#FF7040" width="10" height="10"/>
			<rect x="-333.4" y="-540" fill="#FF7040" width="10" height="10"/>
		</g>
	</g>
	<g>
		<g>
			<text transform="matrix(1 0 0 1 -262.5872 -39.1035)"><tspan x="0" y="0" fill="#FF7040" font-family="'Aleo-Regular'" font-size="36">We’</tspan><tspan x="65.1" y="0" fill="#FF7040" font-family="'Aleo-Regular'" font-size="36">r</tspan><tspan x="80" y="0" fill="#FF7040" font-family="'Aleo-Regular'" font-size="36">e all o</tspan><tspan x="171.6" y="0" fill="#FF7040" font-family="'Aleo-Regular'" font-size="36">v</tspan><tspan x="192.1" y="0" fill="#FF7040" font-family="'Aleo-Regular'" font-size="36">er the interwebs.</tspan></text>
		</g>
		<g>
			<rect x="-292.6" y="-60" fill="#FFFFFF" width="10" height="10"/>
			<rect x="-302.6" y="-60" fill="#FF4046" width="10" height="10"/>
			<rect x="-292.6" y="-50" fill="#FF4046" width="10" height="10"/>
			<rect x="-302.6" y="-50" fill="#FF7040" width="10" height="10"/>
			<rect x="-302.6" y="-50" fill="#FFFFFF" width="10" height="10"/>
		</g>
	</g>
	<g>
		<g>
			<text transform="matrix(1 0 0 1 -402.7784 -809.1035)"><tspan x="0" y="0" fill="#FF7040" font-family="'Aleo-Regular'" font-size="36">36-hour hack</tspan><tspan x="215.5" y="0" fill="#FF7040" font-family="'Aleo-Regular'" font-size="36" letter-spacing="-1">a</tspan><tspan x="232.9" y="0" fill="#FF7040" font-family="'Aleo-Regular'" font-size="36">thon </tspan><tspan x="317.8" y="0" fill="#FF7040" font-family="'Aleo-Regular'" font-size="36" letter-spacing="-1">a</tspan><tspan x="335.2" y="0" fill="#FF7040" font-family="'Aleo-Regular'" font-size="36">t Uni</tspan><tspan x="415.9" y="0" fill="#FF7040" font-family="'Aleo-Regular'" font-size="36">v</tspan><tspan x="436.4" y="0" fill="#FF7040" font-family="'Aleo-Regular'" font-size="36">ersity of Mar</tspan><tspan x="645.7" y="0" fill="#FF7040" font-family="'Aleo-Regular'" font-size="36">y</tspan><tspan x="666.2" y="0" fill="#FF7040" font-family="'Aleo-Regular'" font-size="36">land.</tspan></text>
		</g>
		<g>
			<rect x="-432.8" y="-830" fill="#FFAF40" width="10" height="10"/>
			<rect x="-442.8" y="-830" fill="#FFAF40" width="10" height="10"/>
			<rect x="-432.8" y="-820" fill="#FFAF40" width="10" height="10"/>
			<rect x="-442.8" y="-820" fill="#FF7040" width="10" height="10"/>
			<rect x="-442.8" y="-820" fill="#FFEF40" width="10" height="10"/>
		</g>
	</g>
	<g>
		<rect x="-520" y="-470" fill="#E5D8CF" width="140" height="70"/>
		<rect x="-520" y="-380" fill="#E5D8CF" width="140" height="70"/>
		<rect x="-360" y="-470" fill="#E5D8CF" width="140" height="70"/>
		<rect x="-360" y="-380" fill="#E5D8CF" width="140" height="70"/>
		<rect x="-200" y="-470" fill="#E5D8CF" width="140" height="70"/>
		<rect x="-200" y="-380" fill="#E5D8CF" width="140" height="70"/>
		<rect x="-40" y="-470" fill="#E5D8CF" width="140" height="70"/>
		<rect x="-40" y="-380" fill="#E5D8CF" width="140" height="70"/>
		<rect x="120" y="-470" fill="#E5D8CF" width="140" height="70"/>
		<rect x="120" y="-380" fill="#E5D8CF" width="140" height="70"/>
		<rect x="280" y="-470" fill="#E5D8CF" width="140" height="70"/>
		<rect x="280" y="-380" fill="#E5D8CF" width="140" height="70"/>
	</g>
	<g>
		<g>
			<path fill="#538DA6" d="M-190-154c0,2.2,1.8,4,4,4H86c2.2,0,4-1.8,4-4v-52c0-2.2-1.8-4-4-4h-272c-2.2,0-4,1.8-4,4V-154z"/>
		</g>
		<text transform="matrix(1 0 0 1 -145.8725 -171.6602)" fill="#FFFFFF" font-family="'Lato-Bold'" font-size="24">become a sponsor</text>
	</g>
	<rect x="-520" y="60" fill="#E5D8CF" width="140" height="140"/>
	<rect x="-360" y="60" fill="#E5D8CF" width="140" height="140"/>
	<rect x="-520" y="220" fill="#E5D8CF" width="140" height="140"/>
	<rect x="-360" y="220" fill="#E5D8CF" width="140" height="140"/>
	<rect x="-40" y="60" fill="#E5D8CF" width="140" height="140"/>
	<rect x="120" y="60" fill="#E5D8CF" width="140" height="140"/>
	<rect x="-200" y="60" fill="#E5D8CF" width="140" height="140"/>
	<rect x="-200" y="220" fill="#E5D8CF" width="140" height="140"/>
	<rect x="280" y="60" fill="#E5D8CF" width="140" height="140"/>
	<rect x="-40" y="220" fill="#E5D8CF" width="140" height="140"/>
	<rect x="120" y="220" fill="#E5D8CF" width="140" height="140"/>
	<rect x="280" y="220" fill="#E5D8CF" width="140" height="140"/>
	<text transform="matrix(1 0 0 1 -137.6035 -1204.7451)"><tspan x="0" y="0" fill="#538DA6" font-family="'Lato-Bold'" font-size="18">Mark </tspan><tspan x="46.9" y="0" fill="#538DA6" font-family="'Lato-Bold'" font-size="18">y</tspan><tspan x="56.2" y="0" fill="#538DA6" font-family="'Lato-Bold'" font-size="18">our calendars.</tspan></text>
	<line fill="none" stroke="#E5D8CF" stroke-miterlimit="10" x1="-520" y1="439.5" x2="420" y2="439.5"/>
	<rect x="-280" y="-750" fill="none" width="460" height="103"/>
	<text transform="matrix(1 0 0 1 -272.522 -736.7339)"><tspan x="0" y="0" fill="#538DA6" font-family="'Lato-Regular'" font-size="18" letter-spacing="-2">T</tspan><tspan x="8.4" y="0" fill="#538DA6" font-family="'Lato-Regular'" font-size="18">a</tspan><tspan x="17.5" y="0" fill="#538DA6" font-family="'Lato-Regular'" font-size="18">k</tspan><tspan x="26.4" y="0" fill="#538DA6" font-family="'Lato-Regular'" font-size="18">e what </tspan><tspan x="82.4" y="0" fill="#538DA6" font-family="'Lato-Regular'" font-size="18">y</tspan><tspan x="91.4" y="0" fill="#538DA6" font-family="'Lato-Regular'" font-size="18">ou l</tspan><tspan x="119.5" y="0" fill="#538DA6" font-family="'Lato-Regular'" font-size="18">ov</tspan><tspan x="138.2" y="0" fill="#538DA6" font-family="'Lato-Regular'" font-size="18">e, fuse it with tech, and build something </tspan><tspan x="7.7" y="21.6" fill="#538DA6" font-family="'Lato-Regular'" font-size="18">the world has n</tspan><tspan x="127" y="21.6" fill="#538DA6" font-family="'Lato-Regular'" font-size="18">ev</tspan><tspan x="145.2" y="21.6" fill="#538DA6" font-family="'Lato-Regular'" font-size="18">er seen. Organic health goth art party </tspan><tspan x="5.8" y="43.2" fill="#538DA6" font-family="'Lato-Regular'" font-size="18">hashtag, farm-to-table lomo semiotics what</tspan><tspan x="345.1" y="43.2" fill="#538DA6" font-family="'Lato-Regular'" font-size="18">ev</tspan><tspan x="363.3" y="43.2" fill="#538DA6" font-family="'Lato-Regular'" font-size="18">er occu</tspan><tspan x="420.3" y="43.2" fill="#538DA6" font-family="'Lato-Regular'" font-size="18">p</tspan><tspan x="430" y="43.2" fill="#538DA6" font-family="'Lato-Regular'" font-size="18">y </tspan><tspan x="-3.8" y="64.8" fill="#538DA6" font-family="'Lato-Regular'" font-size="18">fixie bespo</tspan><tspan x="80.3" y="64.8" fill="#538DA6" font-family="'Lato-Regular'" font-size="18">k</tspan><tspan x="89.2" y="64.8" fill="#538DA6" font-family="'Lato-Regular'" font-size="18">e actuall</tspan><tspan x="154.7" y="64.8" fill="#538DA6" font-family="'Lato-Regular'" font-size="18" letter-spacing="-1">y</tspan><tspan x="162.7" y="64.8" fill="#538DA6" font-family="'Lato-Regular'" font-size="18">. Squid distillery freegan artisan pork </tspan><tspan x="95.8" y="86.4" fill="#538DA6" font-family="'Lato-Regular'" font-size="18">belly stumptown organic ethical.</tspan></text>
	<text transform="matrix(1 0 0 1 -231.9502 -254.7451)"><tspan x="0" y="0" fill="#538DA6" font-family="'Lato-Italic'" font-size="18">These a</tspan><tspan x="55.5" y="0" fill="#538DA6" font-family="'Lato-Italic'" font-size="18">r</tspan><tspan x="61.4" y="0" fill="#538DA6" font-family="'Lato-Italic'" font-size="18">e some of our friends f</tspan><tspan x="220.7" y="0" fill="#538DA6" font-family="'Lato-Italic'" font-size="18">r</tspan><tspan x="226.6" y="0" fill="#538DA6" font-family="'Lato-Italic'" font-size="18">om Bitcamp 2014. </tspan><tspan x="57.9" y="21.6" fill="#538DA6" font-family="'Lato-Italic'" font-size="18">Inte</tspan><tspan x="86.9" y="21.6" fill="#538DA6" font-family="'Lato-Italic'" font-size="18">r</tspan><tspan x="92.8" y="21.6" fill="#538DA6" font-family="'Lato-Italic'" font-size="18">ested in taking part this </tspan><tspan x="267.4" y="21.6" fill="#538DA6" font-family="'Lato-Italic'" font-size="18">y</tspan><tspan x="275.7" y="21.6" fill="#538DA6" font-family="'Lato-Italic'" font-size="18">ear?</tspan></text>
	<g>
		<rect x="-1195" y="-155" fill="#A68E7C" width="10" height="10"/>
		<rect x="-1205" y="-155" fill="#A68E7C" width="10" height="10"/>
		<rect x="-1205" y="-165" fill="#A68E7C" width="10" height="10"/>
		<rect x="-1195" y="-165" fill="#A68E7C" width="10" height="10"/>
		<rect x="-1185" y="-175" fill="#A68E7C" width="10" height="10"/>
		<rect x="-1195" y="-175" fill="#A68E7C" width="10" height="10"/>
		<rect x="-1175" y="-175" fill="#A68E7C" width="10" height="10"/>
		<rect x="-1155" y="-175" fill="#A68E7C" width="10" height="10"/>
		<rect x="-1145" y="-175" fill="#A68E7C" width="10" height="10"/>
		<rect x="-1135" y="-175" fill="#A68E7C" width="10" height="10"/>
		<rect x="-1185" y="-165" fill="#A68E7C" width="10" height="10"/>
		<rect x="-1165" y="-175" fill="#A68E7C" width="10" height="10"/>
		<rect x="-1165" y="-165" fill="#A68E7C" width="10" height="10"/>
		<rect x="-1175" y="-165" fill="#A68E7C" width="10" height="10"/>
		<rect x="-1155" y="-165" fill="#A68E7C" width="10" height="10"/>
		<rect x="-1145" y="-165" fill="#A68E7C" width="10" height="10"/>
		<rect x="-1135" y="-165" fill="#A68E7C" width="10" height="10"/>
		<rect x="-1125" y="-165" fill="#A68E7C" width="10" height="10"/>
		<rect x="-1195" y="-145" fill="#A68E7C" width="10" height="10"/>
		<rect x="-1195" y="-135" fill="#A68E7C" width="10" height="10"/>
		<rect x="-1195" y="-125" fill="#A68E7C" width="10" height="10"/>
		<rect x="-1215" y="-155" fill="#A68E7C" width="10" height="10"/>
		<rect x="-1215" y="-145" fill="#A68E7C" width="10" height="10"/>
		<rect x="-1215" y="-135" fill="#A68E7C" width="10" height="10"/>
		<rect x="-1215" y="-125" fill="#A68E7C" width="10" height="10"/>
		<rect x="-1175" y="-155" fill="#A68E7C" width="10" height="10"/>
		<rect x="-1185" y="-155" fill="#A68E7C" width="10" height="10"/>
		<rect x="-1175" y="-145" fill="#A68E7C" width="10" height="10"/>
		<rect x="-1175" y="-135" fill="#A68E7C" width="10" height="10"/>
		<rect x="-1175" y="-125" fill="#A68E7C" width="10" height="10"/>
		<rect x="-1155" y="-155" fill="#A68E7C" width="10" height="10"/>
		<rect x="-1165" y="-155" fill="#A68E7C" width="10" height="10"/>
		<rect x="-1155" y="-145" fill="#A68E7C" width="10" height="10"/>
		<rect x="-1155" y="-135" fill="#A68E7C" width="10" height="10"/>
		<rect x="-1155" y="-125" fill="#A68E7C" width="10" height="10"/>
		<rect x="-1135" y="-155" fill="#A68E7C" width="10" height="10"/>
		<rect x="-1145" y="-155" fill="#A68E7C" width="10" height="10"/>
		<rect x="-1135" y="-145" fill="#A68E7C" width="10" height="10"/>
		<rect x="-1135" y="-135" fill="#A68E7C" width="10" height="10"/>
		<rect x="-1135" y="-125" fill="#A68E7C" width="10" height="10"/>
		<rect x="-1115" y="-155" fill="#A68E7C" width="10" height="10"/>
		<rect x="-1125" y="-155" fill="#A68E7C" width="10" height="10"/>
		<rect x="-1195" y="-95" fill="#A68E7C" width="10" height="10"/>
		<rect x="-1205" y="-95" fill="#A68E7C" width="10" height="10"/>
		<rect x="-1215" y="-95" fill="#A68E7C" width="10" height="10"/>
		<rect x="-1175" y="-95" fill="#A68E7C" width="10" height="10"/>
		<rect x="-1185" y="-95" fill="#A68E7C" width="10" height="10"/>
		<rect x="-1155" y="-95" fill="#A68E7C" width="10" height="10"/>
		<rect x="-1165" y="-95" fill="#A68E7C" width="10" height="10"/>
		<rect x="-1135" y="-95" fill="#A68E7C" width="10" height="10"/>
		<rect x="-1145" y="-95" fill="#A68E7C" width="10" height="10"/>
		<rect x="-1115" y="-95" fill="#A68E7C" width="10" height="10"/>
		<rect x="-1125" y="-95" fill="#A68E7C" width="10" height="10"/>
		<rect x="-1195" y="-85" fill="#A68E7C" width="10" height="10"/>
		<rect x="-1205" y="-85" fill="#A68E7C" width="10" height="10"/>
		<rect x="-1215" y="-85" fill="#A68E7C" width="10" height="10"/>
		<rect x="-1175" y="-85" fill="#A68E7C" width="10" height="10"/>
		<rect x="-1185" y="-85" fill="#A68E7C" width="10" height="10"/>
		<rect x="-1155" y="-85" fill="#A68E7C" width="10" height="10"/>
		<rect x="-1165" y="-85" fill="#A68E7C" width="10" height="10"/>
		<rect x="-1135" y="-85" fill="#A68E7C" width="10" height="10"/>
		<rect x="-1145" y="-85" fill="#A68E7C" width="10" height="10"/>
		<rect x="-1115" y="-85" fill="#A68E7C" width="10" height="10"/>
		<rect x="-1105" y="-85" fill="#A68E7C" width="10" height="10"/>
		<rect x="-1225" y="-85" fill="#A68E7C" width="10" height="10"/>
		<rect x="-1125" y="-85" fill="#A68E7C" width="10" height="10"/>
		<rect x="-1115" y="-145" fill="#A68E7C" width="10" height="10"/>
		<rect x="-1115" y="-135" fill="#A68E7C" width="10" height="10"/>
		<rect x="-1115" y="-125" fill="#A68E7C" width="10" height="10"/>
		<rect x="-1195" y="-115" fill="#A68E7C" width="10" height="10"/>
		<rect x="-1195" y="-105" fill="#A68E7C" width="10" height="10"/>
		<rect x="-1215" y="-115" fill="#A68E7C" width="10" height="10"/>
		<rect x="-1215" y="-105" fill="#A68E7C" width="10" height="10"/>
		<rect x="-1175" y="-115" fill="#A68E7C" width="10" height="10"/>
		<rect x="-1175" y="-105" fill="#A68E7C" width="10" height="10"/>
		<rect x="-1155" y="-115" fill="#A68E7C" width="10" height="10"/>
		<rect x="-1155" y="-105" fill="#A68E7C" width="10" height="10"/>
		<rect x="-1135" y="-115" fill="#A68E7C" width="10" height="10"/>
		<rect x="-1135" y="-105" fill="#A68E7C" width="10" height="10"/>
		<rect x="-1115" y="-115" fill="#A68E7C" width="10" height="10"/>
		<rect x="-1115" y="-105" fill="#A68E7C" width="10" height="10"/>
	</g>
	<path fill="#538DA6" d="M-40,3.8c-0.7,0.3-1.5,0.5-2.4,0.6c0.8-0.5,1.5-1.3,1.8-2.3c-0.8,0.5-1.7,0.8-2.6,1c-0.7-0.8-1.8-1.3-3-1.3
		c-2.3,0-4.1,1.8-4.1,4.1c0,0.3,0,0.6,0.1,0.9c-3.4-0.2-6.4-1.8-8.5-4.3c-0.4,0.6-0.6,1.3-0.6,2.1c0,1.4,0.7,2.7,1.8,3.4
		c-0.7,0-1.3-0.2-1.9-0.5c0,0,0,0,0,0.1c0,2,1.4,3.6,3.3,4c-0.3,0.1-0.7,0.1-1.1,0.1c-0.3,0-0.5,0-0.8-0.1c0.5,1.6,2,2.8,3.8,2.8
		c-1.4,1.1-3.2,1.8-5.1,1.8c-0.3,0-0.7,0-1-0.1c1.8,1.2,4,1.8,6.3,1.8c7.5,0,11.7-6.3,11.7-11.7c0-0.2,0-0.4,0-0.5
		C-41.2,5.3-40.6,4.6-40,3.8z"/>
	<path fill="#538DA6" d="M-107.6,1.6h2.3v-3.5h-3.1c-4.3,0-4.2,3.4-4.2,3.9c0,0.5,0,2.8,0,2.8h-2v3.4h2v10h4.1v-10h2.8
		c0,0,0.3-1.6,0.4-3.4c-0.4,0-3.2,0-3.2,0s0-2,0-2.3C-108.5,2.1-108,1.6-107.6,1.6z"/>
	<path fill-rule="evenodd" clip-rule="evenodd" fill="#538DA6" d="M17.9,0H2.1C1,0,0,1,0,2.1v15.7C0,19,1,20,2.1,20h15.7
		c1.2,0,2.1-1,2.1-2.1V2.1C20,1,19,0,17.9,0z M10,5.7c2.4,0,4.3,1.9,4.3,4.3s-1.9,4.3-4.3,4.3c-2.4,0-4.3-1.9-4.3-4.3
		S7.6,5.7,10,5.7z M17.9,16.4c0,0.8-0.6,1.4-1.4,1.4H3.6c-0.8,0-1.4-0.6-1.4-1.4V8.6h1.6C3.6,9,3.6,9.5,3.6,10
		c0,3.6,2.9,6.4,6.4,6.4c3.6,0,6.4-2.9,6.4-6.4c0-0.5-0.1-1-0.2-1.4h1.6V16.4z M17.9,5.7c0,0.4-0.3,0.7-0.7,0.7h-2.9
		c-0.4,0-0.7-0.3-0.7-0.7V2.9c0-0.4,0.3-0.7,0.7-0.7h2.9c0.4,0,0.7,0.3,0.7,0.7V5.7z"/>
</g>
<g id="frame">
	<g>
		<path fill="#F2F2F2" d="M900-1540h-1900c-5.5,0-10,4.5-10,10v50H910v-50C910-1535.5,905.5-1540,900-1540z"/>
		<circle fill="#CCCCCC" cx="880" cy="-1510" r="10"/>
		<circle fill="#CCCCCC" cx="840" cy="-1510" r="10"/>
		<circle fill="#CCCCCC" cx="800" cy="-1510" r="10"/>
	</g>
</g>
<g id="Layer_7">
</g>
</svg>
