<?xml version="1.0" encoding="utf-8"?>
<!-- Generator: Adobe Illustrator 18.1.0, SVG Export Plug-In . SVG Version: 6.00 Build 0)  -->
<svg version="1.1" xmlns="http://www.w3.org/2000/svg" xmlns:xlink="http://www.w3.org/1999/xlink" x="0px" y="0px"
	 viewBox="0 0 20 16.3" enable-background="new 0 0 20 16.3" xml:space="preserve">
<g id="Guides">
	<g>
		<rect x="-1150" y="-1481.9" fill="#806D60" width="100" height="100"/>
		<rect x="-1150" y="-1381.9" fill="#A68E7C" width="100" height="100"/>
		<rect x="-1150" y="-1281.9" fill="#E5D8CF" width="100" height="100"/>
		<rect x="-1150" y="-1181.9" fill="#FFFFFF" width="100" height="100"/>
		<rect x="-1150" y="-1081.9" fill="#FF4046" width="100" height="100"/>
		<rect x="-1150" y="-981.9" fill="#FF7040" width="100" height="100"/>
		<rect x="-1150" y="-881.9" fill="#FFAF40" width="100" height="100"/>
		<rect x="-1150" y="-781.9" fill="#FFEF40" width="100" height="100"/>
		<rect x="-1150" y="-681.9" fill="#1A2E33" width="100" height="100"/>
		<rect x="-1150" y="-581.9" fill="#538DA6" width="100" height="100"/>
		<rect x="-1150" y="-481.9" fill="#CCF2FF" width="100" height="100"/>
	</g>
</g>
<g id="_x31_2_Col_Grid" opacity="0.1" enable-background="new    ">
	<g>
		<g>
			<rect x="420" y="-1451.9" fill="#FF0000" width="60" height="1020"/>
		</g>
		<g>
			<rect x="340" y="-1451.9" fill="#FF0000" width="60" height="1020"/>
		</g>
		<g>
			<rect x="260" y="-1451.9" fill="#FF0000" width="60" height="1020"/>
		</g>
		<g>
			<rect x="180" y="-1451.9" fill="#FF0000" width="60" height="1020"/>
		</g>
		<g>
			<rect x="100" y="-1451.9" fill="#FF0000" width="60" height="1020"/>
		</g>
		<g>
			<rect x="20" y="-1451.9" fill="#FF0000" width="60" height="1020"/>
		</g>
		<g>
			<rect x="-60" y="-1451.9" fill="#FF0000" width="60" height="1020"/>
		</g>
		<g>
			<rect x="-140" y="-1451.9" fill="#FF0000" width="60" height="1020"/>
		</g>
		<g>
			<rect x="-220" y="-1451.9" fill="#FF0000" width="60" height="1020"/>
		</g>
		<g>
			<rect x="-300" y="-1451.9" fill="#FF0000" width="60" height="1020"/>
		</g>
		<g>
			<rect x="-380" y="-1451.9" fill="#FF0000" width="60" height="1020"/>
		</g>
		<g>
			<rect x="-460" y="-1451.9" fill="#FF0000" width="60" height="1020"/>
		</g>
	</g>
</g>
<g id="daytime">
	<rect x="-950" y="-1481.9" fill="#CCF2FF" width="1920" height="560"/>
	<polygon fill="#FFFFFF" points="-480,-1251.9 -480,-1261.9 -490,-1261.9 -490,-1271.9 -510,-1271.9 -510,-1261.9 -520,-1261.9 
		-520,-1271.9 -530,-1271.9 -530,-1281.9 -550,-1281.9 -550,-1271.9 -560,-1271.9 -560,-1261.9 -570,-1261.9 -570,-1251.9 
		-580,-1251.9 -580,-1231.9 -570,-1231.9 -570,-1221.9 -540,-1221.9 -540,-1211.9 -500,-1211.9 -500,-1221.9 -480,-1221.9 
		-480,-1231.9 -470,-1231.9 -470,-1251.9 	"/>
	<polygon fill="#FFFFFF" points="590,-1091.9 590,-1101.9 580,-1101.9 580,-1111.9 570,-1111.9 570,-1121.9 550,-1121.9 
		550,-1111.9 540,-1111.9 540,-1101.9 530,-1101.9 530,-1111.9 520,-1111.9 520,-1121.9 510,-1121.9 510,-1131.9 490,-1131.9 
		490,-1121.9 480,-1121.9 480,-1111.9 470,-1111.9 470,-1101.9 460,-1101.9 460,-1091.9 450,-1091.9 450,-1071.9 460,-1071.9 
		460,-1061.9 470,-1061.9 470,-1051.9 570,-1051.9 570,-1061.9 590,-1061.9 590,-1071.9 600,-1071.9 600,-1091.9 	"/>
</g>
<g id="nighttime" display="none">
	<rect x="-950" y="-1481.9" display="inline" fill="#1A2E33" width="1920" height="560"/>
	<rect x="-670" y="-1386.9" display="inline" fill="#FFFFFF" width="10" height="10"/>
	<rect x="-650" y="-1206.9" display="inline" fill="#FFFFFF" width="10" height="10"/>
	<rect x="-510" y="-1056.9" display="inline" fill="#FFFFFF" width="10" height="10"/>
	<rect x="-620" y="-931.9" display="inline" fill="#FFAF40" width="10" height="10"/>
	<rect x="-630" y="-931.9" display="inline" fill="#FFEF40" width="10" height="10"/>
	<rect x="-640" y="-971.9" display="inline" fill="#FFEF40" width="10" height="10"/>
	<rect x="-620" y="-1001.9" display="inline" fill="#FFEF40" width="10" height="10"/>
	<rect x="-630" y="-941.9" display="inline" fill="#FFAF40" width="10" height="10"/>
	<rect x="-640" y="-931.9" display="inline" fill="#FFAF40" width="10" height="10"/>
	<rect x="-880" y="-1046.9" display="inline" fill="#FFFFFF" width="10" height="10"/>
	<rect x="-850" y="-1256.9" display="inline" fill="#FFFFFF" width="10" height="10"/>
	<rect x="-500" y="-1366.9" display="inline" fill="#FFFFFF" width="10" height="10"/>
	<rect x="400" y="-1176.9" display="inline" fill="#FFFFFF" width="10" height="10"/>
	<rect x="610" y="-1446.9" display="inline" fill="#FFFFFF" width="10" height="10"/>
	<rect x="640" y="-1296.9" display="inline" fill="#FFFFFF" width="10" height="10"/>
	<rect x="810" y="-1196.9" display="inline" fill="#FFFFFF" width="10" height="10"/>
	<rect x="700" y="-1026.9" display="inline" fill="#FFFFFF" width="10" height="10"/>
	<rect x="510" y="-1056.9" display="inline" fill="#FFFFFF" width="10" height="10"/>
</g>
<g id="home">
	<g>
		<polygon fill="#FFFFFF" points="310,-1391.9 300,-1391.9 300,-1401.9 -280,-1401.9 -280,-1391.9 -290,-1391.9 -290,-1381.9 
			-300,-1381.9 -300,-921.9 320,-921.9 320,-1381.9 310,-1381.9 		"/>
	</g>
	<g>
		<g>
			<g>
				<polygon fill="#FF7040" points="7.3,-1317.6 7.3,-1320.3 4.7,-1320.3 4.7,-1317.6 -0.7,-1317.6 -0.7,-1307 2,-1307 2,-1315 
					10,-1315 10,-1317.6 				"/>
				<polygon fill="#FF4046" points="4.7,-1325.7 4.7,-1323 2,-1323 2,-1320.3 -0.7,-1320.3 -0.7,-1317.6 4.7,-1317.6 4.7,-1320.3 
					7.3,-1320.3 7.3,-1325.7 				"/>
				<rect x="7.3" y="-1328.3" fill="#FF4046" width="2.7" height="2.7"/>
				<rect x="15.3" y="-1320.3" fill="#FF4046" width="2.7" height="2.7"/>
				<rect x="12.7" y="-1323" fill="#FF4046" width="2.7" height="2.7"/>
				<polygon fill="#FF7040" points="18,-1315 18,-1317.6 12.7,-1317.6 12.7,-1315 15.3,-1315 15.3,-1312.3 18,-1312.3 18,-1307 
					20.7,-1307 20.7,-1315 				"/>
				<polygon fill="#FFAF40" points="15.3,-1312.3 15.3,-1315 2,-1315 2,-1304.3 4.7,-1304.3 4.7,-1312.3 12.7,-1312.3 12.7,-1309.6 
					15.3,-1309.6 15.3,-1304.3 18,-1304.3 18,-1312.3 				"/>
				<path fill="#FFEF40" d="M12.7-1309.6v-2.7h-8v10.7h10.7v-8H12.7z M12.7-1304.3H7.3v-5.3H10v2.7h2.7V-1304.3z"/>
				<polygon fill="#FFFFFF" points="10,-1307 10,-1309.6 7.3,-1309.6 7.3,-1304.3 12.7,-1304.3 12.7,-1307 				"/>
			</g>
			<g>
				<path fill="#806D60" d="M31.3-1289.6c0,2.2-1.8,4-4,4l0,0c-2.2,0-4-1.8-4-4l0,0c0-2.2,1.8-4,4-4l0,0
					C29.6-1293.6,31.3-1291.8,31.3-1289.6L31.3-1289.6z"/>
				<path fill="#806D60" d="M-8.5-1293.5L-8.5-1293.5c0,0,0.1,0,0.1,0L-8.5-1293.5z"/>
				<path fill="#806D60" d="M31.3-1297.6c0-2.2-1.8-4-4-4c-0.4,0-0.7,0.1-1,0.1l0,0l-34.4,7.9c0.2,0,0.5-0.1,0.7-0.1
					c2.2,0,4,1.8,4,4c0,1.9-1.3,3.4-3,3.9l0,0l34.7-8l0,0C30.1-1294.2,31.3-1295.8,31.3-1297.6z"/>
				<path fill="#A68E7C" d="M-3.3-1289.6c0,2.2-1.8,4-4,4l0,0c-2.2,0-4-1.8-4-4l0,0c0-2.2,1.8-4,4-4l0,0
					C-5.1-1293.6-3.3-1291.8-3.3-1289.6L-3.3-1289.6z"/>
				<path fill="#A68E7C" d="M23.3-1289.6c0-2.2,1.8-4,4-4c0.3,0,0.5,0,0.7,0.1l-34.4-7.9l0,0c-0.3-0.1-0.7-0.1-1-0.1
					c-2.2,0-3.9,1.8-3.9,4c0,1.8,1.4,3.4,3,3.9l0,0c0.1,0,0.2,0.1,0.3,0.1l34.3,7.9l0,0C24.6-1286.2,23.3-1287.8,23.3-1289.6z"/>
				<path fill="#A68E7C" d="M28.5-1293.5L28.5-1293.5l-0.1,0C28.4-1293.5,28.4-1293.5,28.5-1293.5z"/>
			</g>
		</g>
		<g>
			<path fill="#806D60" d="M44.2-1320c-0.2-0.5-0.5-1-0.7-1.5l-0.5,0.2c0.2,0.5,0.5,1,0.7,1.4L44.2-1320z"/>
			<path fill="#806D60" d="M44.2-1288.5c0.2-0.5,0.4-1,0.6-1.5l-0.5-0.2c-0.2,0.5-0.4,1-0.6,1.5L44.2-1288.5z"/>
			<path fill="#806D60" d="M46.4-1313.9c-0.1-0.5-0.3-1-0.4-1.6l-0.5,0.2c0.2,0.5,0.3,1,0.4,1.5L46.4-1313.9z"/>
			<path fill="#806D60" d="M45.4-1317c-0.2-0.5-0.4-1-0.6-1.5l-0.5,0.2c0.2,0.5,0.4,1,0.6,1.5L45.4-1317z"/>
			<path fill="#806D60" d="M46.6-1310.7l0.5-0.1c-0.1-0.5-0.2-1.1-0.3-1.6l-0.5,0.1C46.4-1311.7,46.5-1311.2,46.6-1310.7z"/>
			<path fill="#806D60" d="M41-1325.6c-0.3-0.4-0.6-0.9-0.9-1.3l-0.4,0.3c0.3,0.4,0.6,0.9,0.9,1.3L41-1325.6z"/>
			<path fill="#806D60" d="M36.9-1330.6c-0.4-0.4-0.8-0.8-1.2-1.1l-0.4,0.4c0.4,0.4,0.8,0.7,1.1,1.1L36.9-1330.6z"/>
			<path fill="#806D60" d="M39-1328.2c-0.3-0.4-0.7-0.8-1.1-1.2l-0.4,0.4c0.4,0.4,0.7,0.8,1,1.2L39-1328.2z"/>
			<path fill="#806D60" d="M34.5-1332.8c-0.4-0.4-0.8-0.7-1.3-1l-0.3,0.4c0.4,0.3,0.8,0.7,1.2,1L34.5-1332.8z"/>
			<path fill="#806D60" d="M42.7-1322.9c-0.3-0.5-0.5-0.9-0.8-1.4l-0.4,0.3c0.3,0.5,0.6,0.9,0.8,1.4L42.7-1322.9z"/>
			<path fill="#806D60" d="M41-1282.9c0.3-0.5,0.6-0.9,0.9-1.4l-0.4-0.3c-0.3,0.5-0.6,0.9-0.9,1.3L41-1282.9z"/>
			<path fill="#806D60" d="M47-1307.5l0.5-0.1c-0.1-0.5-0.1-1.1-0.2-1.6l-0.5,0.1C46.9-1308.6,46.9-1308,47-1307.5z"/>
			<path fill="#806D60" d="M-27.3-1299.5c0.1,0.5,0.1,1.1,0.2,1.6l0.5-0.1c-0.1-0.5-0.2-1.1-0.2-1.6L-27.3-1299.5z"/>
			<path fill="#806D60" d="M32-1334.8c-0.4-0.3-0.9-0.6-1.3-0.9l-0.3,0.4c0.4,0.3,0.9,0.6,1.3,0.9L32-1334.8z"/>
			<path fill="#806D60" d="M-27.6-1302.7c0,0.5,0.1,1.1,0.1,1.6l0.5,0c0-0.5-0.1-1.1-0.1-1.6L-27.6-1302.7z"/>
			<path fill="#806D60" d="M-24.4-1290.3l-0.5,0.2c0.2,0.5,0.4,1,0.6,1.5l0.5-0.2C-24-1289.3-24.2-1289.8-24.4-1290.3z"/>
			<path fill="#806D60" d="M47.1-1304.3L47.1-1304.3l0.5,0v0c0-0.5,0-1.1,0-1.6l-0.5,0C47.1-1305.4,47.1-1304.8,47.1-1304.3z"/>
			<path fill="#806D60" d="M-23-1287.4l-0.5,0.2c0.2,0.5,0.5,1,0.8,1.4l0.5-0.3C-22.5-1286.5-22.8-1286.9-23-1287.4z"/>
			<path fill="#806D60" d="M-26.8-1296.3c0.1,0.5,0.2,1.1,0.4,1.6l0.5-0.1c-0.1-0.5-0.3-1-0.4-1.5L-26.8-1296.3z"/>
			<path fill="#806D60" d="M-24.9-1291.8c-0.2-0.5-0.4-1-0.5-1.5l-0.5,0.2c0.2,0.5,0.3,1,0.5,1.5L-24.9-1291.8z"/>
			<path fill="#806D60" d="M45.9-1294.8l0.5,0.1c0.1-0.5,0.3-1,0.4-1.6l-0.5-0.1C46.1-1295.8,46-1295.3,45.9-1294.8z"/>
			<path fill="#806D60" d="M44.9-1291.7l0.5,0.2c0.2-0.5,0.4-1,0.5-1.5l-0.5-0.2C45.2-1292.7,45.1-1292.2,44.9-1291.7z"/>
			<path fill="#806D60" d="M47.6-1302.6l-0.5,0c0,0.5-0.1,1.1-0.1,1.6l0.5,0C47.5-1301.5,47.6-1302.1,47.6-1302.6z"/>
			<path fill="#806D60" d="M-21.5-1284.6l-0.5,0.3c0.3,0.5,0.6,0.9,0.9,1.3l0.4-0.3C-20.9-1283.7-21.2-1284.2-21.5-1284.6z"/>
			<path fill="#806D60" d="M46.5-1297.9l0.5,0.1c0.1-0.5,0.2-1.1,0.2-1.6l-0.5-0.1C46.7-1298.9,46.6-1298.4,46.5-1297.9z"/>
			<path fill="#806D60" d="M42.7-1285.7c0.3-0.5,0.5-0.9,0.8-1.4l-0.5-0.2c-0.2,0.5-0.5,0.9-0.8,1.4L42.7-1285.7z"/>
			<path fill="#806D60" d="M-19.6-1326.6l-0.4-0.3c-0.3,0.4-0.6,0.9-0.9,1.3l0.4,0.3C-20.3-1325.8-19.9-1326.2-19.6-1326.6z"/>
			<path fill="#806D60" d="M-23-1321.2l-0.5-0.2c-0.2,0.5-0.5,1-0.7,1.5l0.5,0.2C-23.5-1320.3-23.3-1320.8-23-1321.2z"/>
			<path fill="#806D60" d="M-21.4-1324l-0.4-0.3c-0.3,0.5-0.6,0.9-0.8,1.4l0.5,0.3C-22-1323.1-21.7-1323.6-21.4-1324z"/>
			<path fill="#806D60" d="M-10.4-1335.3l-0.3-0.4c-0.4,0.3-0.9,0.6-1.3,0.9l0.3,0.4C-11.2-1334.7-10.8-1335-10.4-1335.3z"/>
			<path fill="#806D60" d="M-12.9-1333.5l-0.3-0.4c-0.4,0.3-0.9,0.7-1.3,1l0.3,0.4C-13.8-1332.8-13.4-1333.1-12.9-1333.5z"/>
			<path fill="#806D60" d="M-15.4-1331.4l-0.4-0.4c-0.4,0.4-0.8,0.7-1.2,1.1l0.4,0.4C-16.1-1330.6-15.7-1331-15.4-1331.4z"/>
			<path fill="#806D60" d="M-17.6-1329.1l-0.4-0.4c-0.4,0.4-0.7,0.8-1.1,1.2l0.4,0.3C-18.3-1328.3-17.9-1328.7-17.6-1329.1z"/>
			<path fill="#806D60" d="M-26.8-1309.1l-0.5-0.1c-0.1,0.5-0.1,1.1-0.2,1.6l0.5,0C-26.9-1308.1-26.8-1308.6-26.8-1309.1z"/>
			<path fill="#806D60" d="M-27-1305.9l-0.5,0c0,0.5,0,1.1,0,1.6h0.5C-27.1-1304.8-27.1-1305.4-27-1305.9z"/>
			<path fill="#806D60" d="M-25.4-1315.3l-0.5-0.2c-0.2,0.5-0.3,1-0.4,1.6l0.5,0.1C-25.7-1314.3-25.6-1314.8-25.4-1315.3z"/>
			<path fill="#806D60" d="M-24.3-1318.4l-0.5-0.2c-0.2,0.5-0.4,1-0.6,1.5l0.5,0.2C-24.7-1317.4-24.5-1317.9-24.3-1318.4z"/>
			<path fill="#806D60" d="M-26.2-1312.3l-0.5-0.1c-0.1,0.5-0.2,1-0.3,1.6l0.5,0.1C-26.5-1311.2-26.3-1311.7-26.2-1312.3z"/>
			<path fill="#806D60" d="M-1.7-1339.5l-0.2-0.5c-0.5,0.2-1,0.3-1.5,0.5l0.2,0.5C-2.8-1339.1-2.2-1339.3-1.7-1339.5z"/>
			<path fill="#806D60" d="M10-1341.4c0.3,0,0.5,0,0.8,0l0-0.5c-0.3,0-0.5,0-0.8,0c-0.3,0-0.6,0-0.8,0l0,0.5
				C9.5-1341.4,9.7-1341.4,10-1341.4z"/>
			<path fill="#806D60" d="M17.3-1341.2c-0.5-0.1-1.1-0.2-1.6-0.3l-0.1,0.5c0.5,0.1,1.1,0.2,1.6,0.3L17.3-1341.2z"/>
			<path fill="#806D60" d="M14.1-1341.7c-0.5-0.1-1.1-0.1-1.6-0.1l0,0.5c0.5,0,1.1,0.1,1.6,0.1L14.1-1341.7z"/>
			<path fill="#806D60" d="M-7.6-1337l-0.3-0.5c-0.5,0.3-0.9,0.5-1.4,0.8l0.3,0.5C-8.5-1336.4-8.1-1336.7-7.6-1337z"/>
			<path fill="#806D60" d="M23.5-1339.5c-0.5-0.2-1-0.4-1.5-0.5l-0.2,0.5c0.5,0.2,1,0.4,1.5,0.5L23.5-1339.5z"/>
			<path fill="#806D60" d="M26.4-1338.2c-0.5-0.2-1-0.5-1.5-0.7l-0.2,0.5c0.5,0.2,1,0.4,1.4,0.7L26.4-1338.2z"/>
			<path fill="#806D60" d="M20.4-1340.5c-0.5-0.2-1-0.3-1.6-0.4l-0.1,0.5c0.5,0.1,1,0.3,1.6,0.4L20.4-1340.5z"/>
			<path fill="#806D60" d="M29.3-1336.6c-0.5-0.3-0.9-0.5-1.4-0.8l-0.3,0.5c0.5,0.3,0.9,0.5,1.4,0.8L29.3-1336.6z"/>
			<path fill="#806D60" d="M-4.7-1338.4l-0.2-0.5c-0.5,0.2-1,0.4-1.5,0.7l0.2,0.5C-5.7-1337.9-5.2-1338.1-4.7-1338.4z"/>
			<path fill="#806D60" d="M4.4-1341l-0.1-0.5c-0.5,0.1-1.1,0.2-1.6,0.3l0.1,0.5C3.4-1340.8,3.9-1340.9,4.4-1341z"/>
			<path fill="#806D60" d="M1.3-1340.4l-0.1-0.5c-0.5,0.1-1.1,0.3-1.6,0.4l0.1,0.5C0.3-1340.1,0.8-1340.2,1.3-1340.4z"/>
			<path fill="#806D60" d="M7.6-1341.3l0-0.5c-0.5,0-1.1,0.1-1.6,0.1l0.1,0.5C6.6-1341.2,7.1-1341.3,7.6-1341.3z"/>
		</g>
		<g>
			<path fill="#FF7040" d="M-16.5-1270.4c0,0.8-0.1,1.5-0.3,2.1c-0.2,0.6-0.5,1.2-0.9,1.7c-0.4,0.5-0.8,0.9-1.4,1.1
				c-0.5,0.3-1.2,0.4-1.8,0.4c-1.5,0-3.2-0.2-5-0.6v-3.2v-9.3c-0.3,0-0.5-0.1-0.6-0.1c-0.2,0-0.3,0-0.3-0.1c-0.1,0-0.1,0-0.1,0
				c-0.3-0.1-0.5-0.3-0.5-0.6v-1.2h1.6h2.5v5.9c0.4-0.4,0.9-0.8,1.4-1c0.5-0.3,1.1-0.4,1.8-0.4c0.6,0,1.1,0.1,1.5,0.3
				c0.5,0.2,0.9,0.6,1.2,1c0.3,0.5,0.6,1,0.8,1.6C-16.6-1272-16.5-1271.3-16.5-1270.4z M-19.1-1270.4c0-0.6-0.1-1.1-0.1-1.5
				c-0.1-0.4-0.2-0.8-0.4-1c-0.2-0.3-0.4-0.4-0.7-0.6c-0.3-0.1-0.5-0.2-0.9-0.2c-0.5,0-1,0.1-1.3,0.3c-0.4,0.2-0.7,0.5-1,0.9v5.4
				c0.7,0.1,1.3,0.2,2,0.2c0.4,0,0.7-0.1,1-0.2c0.3-0.1,0.6-0.4,0.8-0.6c0.2-0.3,0.4-0.6,0.5-1.1
				C-19.2-1269.3-19.1-1269.8-19.1-1270.4z"/>
			<path fill="#FF7040" d="M-10.1-1266.4v1.2h-1.5h-2.5h-1.5v-1.2c0-0.3,0.2-0.6,0.5-0.6c0,0,0.1,0,0.1,0c0.1,0,0.2,0,0.3-0.1
				c0.1,0,0.3-0.1,0.6-0.1v-6.4c-0.3,0-0.4-0.1-0.6-0.1c-0.1,0-0.2,0-0.3-0.1c-0.1,0-0.1,0-0.1,0c-0.3-0.1-0.5-0.3-0.5-0.6v-1.2h1.5
				h2.5v8.3c0.3,0,0.4,0.1,0.6,0.1c0.1,0,0.2,0.1,0.3,0.1c0.1,0,0.1,0,0.1,0C-10.3-1266.9-10.1-1266.7-10.1-1266.4z M-11.4-1277.9
				c-0.1,0.2-0.2,0.4-0.4,0.5c-0.1,0.1-0.3,0.3-0.5,0.3c-0.2,0.1-0.4,0.1-0.6,0.1c-0.2,0-0.4,0-0.6-0.1c-0.2-0.1-0.3-0.2-0.5-0.3
				c-0.1-0.1-0.2-0.3-0.3-0.5c-0.1-0.2-0.1-0.4-0.1-0.6c0-0.2,0-0.4,0.1-0.6c0.1-0.2,0.2-0.4,0.3-0.5c0.2-0.1,0.3-0.3,0.5-0.3
				c0.2-0.1,0.4-0.1,0.6-0.1c0.2,0,0.4,0,0.6,0.1c0.2,0.1,0.4,0.2,0.5,0.3c0.1,0.1,0.3,0.3,0.4,0.5c0.1,0.2,0.1,0.4,0.1,0.6
				C-11.3-1278.3-11.3-1278.1-11.4-1277.9z"/>
			<path fill="#FF7040" d="M-7.5-1265.8c-0.5-0.5-0.7-1.2-0.7-2.1v-5.8h-1c-0.1,0-0.2-0.1-0.3-0.1c-0.1-0.1-0.1-0.2-0.1-0.4v-1
				l1.7-0.3l0.5-2.8c0-0.1,0.1-0.2,0.2-0.3c0.1-0.1,0.2-0.1,0.4-0.1h1.3v3.2H-3v1.8h-2.7v5.6c0,0.3,0.1,0.6,0.2,0.7
				c0.2,0.2,0.4,0.3,0.6,0.3c0.2,0,0.3,0,0.4-0.1c0.1,0,0.2-0.1,0.3-0.1c0.1,0,0.1-0.1,0.2-0.1c0.1,0,0.1-0.1,0.2-0.1
				c0.1,0,0.1,0,0.2,0.1c0,0,0.1,0.1,0.1,0.2l0.7,1.2c-0.4,0.3-0.8,0.5-1.2,0.7c-0.5,0.2-1,0.2-1.4,0.2
				C-6.3-1265-7-1265.3-7.5-1265.8z"/>
			<path fill="#FF7040" d="M6.5-1266.7c-0.3,0.3-0.6,0.6-0.9,0.8c-0.3,0.2-0.6,0.4-1,0.5c-0.4,0.1-0.7,0.2-1.1,0.3
				c-0.4,0.1-0.7,0.1-1.1,0.1c-0.6,0-1.2-0.1-1.8-0.4c-0.6-0.2-1-0.6-1.5-1c-0.4-0.5-0.7-1-1-1.7c-0.2-0.7-0.4-1.4-0.4-2.3
				c0-0.8,0.1-1.5,0.3-2.1c0.2-0.7,0.5-1.2,1-1.7c0.4-0.5,0.9-0.8,1.6-1.1c0.6-0.3,1.3-0.4,2.2-0.4c0.8,0,1.9,0.2,3.2,0.7v3.2H6H5.8
				H4.9c-0.3,0-0.4-0.1-0.5-0.4c0-0.2-0.1-0.7-0.2-1.5c-0.5-0.1-1-0.2-1.3-0.2c-0.4,0-0.8,0.1-1.2,0.2c-0.3,0.2-0.6,0.4-0.8,0.7
				c-0.2,0.3-0.4,0.7-0.5,1.1c-0.1,0.4-0.2,0.9-0.2,1.4c0,0.5,0.1,1,0.2,1.5c0.1,0.4,0.3,0.8,0.5,1.1c0.2,0.3,0.5,0.5,0.8,0.7
				c0.3,0.1,0.7,0.2,1.1,0.2c0.4,0,0.7,0,0.9-0.1c0.2-0.1,0.5-0.2,0.6-0.3c0.2-0.1,0.3-0.2,0.4-0.3c0.1-0.1,0.3-0.1,0.4-0.1
				c0.2,0,0.3,0.1,0.4,0.2L6.5-1266.7z"/>
			<path fill="#FF7040" d="M17.4-1266.4v1.2h-1.3h-0.3h-0.8c-0.2,0-0.4,0-0.6-0.1c-0.1-0.1-0.2-0.2-0.3-0.4l-0.2-0.7
				c-0.3,0.2-0.5,0.4-0.8,0.6c-0.3,0.2-0.5,0.3-0.8,0.4c-0.3,0.1-0.6,0.2-0.9,0.3c-0.3,0.1-0.6,0.1-1,0.1c-0.4,0-0.8-0.1-1.2-0.2
				c-0.4-0.1-0.7-0.3-0.9-0.5c-0.3-0.2-0.5-0.5-0.6-0.9c-0.2-0.4-0.2-0.8-0.2-1.2c0-0.4,0.1-0.8,0.3-1.2c0.2-0.4,0.5-0.7,1-1
				c0.5-0.3,1.1-0.6,1.9-0.8c0.8-0.2,1.8-0.3,2.9-0.3v-0.6c0-0.7-0.1-1.2-0.4-1.5c-0.3-0.3-0.7-0.5-1.3-0.5c-0.4,0-0.7,0.1-1,0.1
				c-0.3,0.1-0.5,0.2-0.7,0.3c-0.2,0.1-0.4,0.2-0.5,0.3c-0.2,0.1-0.3,0.2-0.6,0.2c-0.2,0-0.3-0.1-0.4-0.1c-0.1-0.1-0.2-0.2-0.3-0.3
				l-0.5-0.8c1.2-1.1,2.6-1.6,4.3-1.6c0.6,0,1.1,0.1,1.6,0.3c0.5,0.2,0.9,0.5,1.2,0.8c0.3,0.3,0.6,0.8,0.8,1.3
				c0.2,0.5,0.2,1,0.2,1.6v4.6c0.2,0,0.4,0.1,0.5,0.1c0.1,0,0.2,0,0.2,0C17.3-1266.9,17.4-1266.7,17.4-1266.4z M13.8-1269.6
				c-0.7,0-1.3,0-1.8,0.1c-0.5,0.1-0.9,0.2-1.2,0.4c-0.3,0.1-0.5,0.3-0.6,0.5c-0.1,0.2-0.2,0.4-0.2,0.6c0,0.4,0.1,0.7,0.4,0.9
				c0.3,0.2,0.6,0.3,1,0.3c0.2,0,0.5,0,0.7-0.1c0.2,0,0.4-0.1,0.6-0.2c0.2-0.1,0.4-0.2,0.6-0.3c0.2-0.1,0.4-0.3,0.5-0.5L13.8-1269.6
				L13.8-1269.6z"/>
			<path fill="#FF7040" d="M36.2-1266.4v1.2h-1.5h-2.5v-6.6c0-0.7-0.1-1.2-0.4-1.5c-0.3-0.3-0.7-0.5-1.3-0.5c-0.3,0-0.5,0-0.7,0.1
				c-0.2,0.1-0.4,0.2-0.6,0.4c-0.2,0.2-0.3,0.4-0.4,0.6c-0.1,0.2-0.1,0.5-0.1,0.9v4.6c0.2,0,0.4,0.1,0.6,0.1c0.1,0,0.2,0.1,0.3,0.1
				c0.1,0,0.1,0,0.1,0c0.3,0.1,0.5,0.3,0.5,0.6v1.2h-1.5h-2.5v-6.6c0-0.7-0.1-1.2-0.4-1.5c-0.3-0.3-0.7-0.5-1.2-0.5
				c-0.3,0-0.7,0.1-1,0.3c-0.3,0.2-0.6,0.4-0.9,0.7v5.6c0.3,0,0.4,0.1,0.6,0.1c0.2,0,0.2,0.1,0.3,0.1c0.1,0,0.1,0,0.1,0
				c0.3,0.1,0.5,0.3,0.5,0.6v1.2h-1.5h-2.5h-1.5v-1.2c0-0.3,0.2-0.6,0.5-0.6c0,0,0.1,0,0.1,0c0.1,0,0.2,0,0.3-0.1
				c0.1,0,0.3-0.1,0.6-0.1v-6.4c-0.2,0-0.4-0.1-0.6-0.1c-0.1,0-0.2,0-0.3-0.1c-0.1,0-0.1,0-0.1,0c-0.3-0.1-0.5-0.3-0.5-0.6v-1.2h1.5
				h1.5c0.3,0,0.5,0.2,0.6,0.5l0.2,0.8c0.2-0.2,0.4-0.4,0.6-0.6c0.2-0.2,0.4-0.3,0.6-0.4c0.2-0.1,0.5-0.2,0.7-0.3
				c0.2-0.1,0.5-0.1,0.8-0.1c0.7,0,1.2,0.2,1.6,0.5c0.4,0.3,0.7,0.8,0.9,1.4c0.2-0.3,0.4-0.6,0.6-0.9c0.2-0.2,0.5-0.4,0.8-0.6
				c0.3-0.2,0.6-0.3,0.9-0.3c0.3-0.1,0.7-0.1,1-0.1c0.6,0,1.1,0.1,1.5,0.3c0.4,0.2,0.8,0.4,1.1,0.8c0.3,0.3,0.5,0.7,0.7,1.2
				c0.2,0.5,0.2,1,0.2,1.7v4.6c0.2,0,0.4,0.1,0.6,0.1c0.1,0,0.2,0.1,0.3,0.1c0.1,0,0.1,0,0.1,0C36-1266.9,36.2-1266.7,36.2-1266.4z"
				/>
			<path fill="#FF7040" d="M47.6-1270.4c0,0.8-0.1,1.5-0.3,2.2c-0.2,0.6-0.5,1.2-0.9,1.7c-0.4,0.5-0.8,0.9-1.4,1.1
				c-0.5,0.3-1.2,0.4-1.8,0.4c-0.6,0-1.1-0.1-1.5-0.3c-0.4-0.2-0.8-0.4-1.1-0.7v2.2c0.3,0,0.4,0.1,0.6,0.1c0.1,0,0.2,0.1,0.3,0.1
				c0.1,0,0.1,0,0.1,0c0.3,0.1,0.5,0.3,0.5,0.6v1.2h-1.5h-2.5h-1.5v-1.2c0-0.3,0.2-0.6,0.5-0.6c0,0,0.1,0,0.1,0c0.1,0,0.2,0,0.3-0.1
				c0.1,0,0.3-0.1,0.6-0.1v-9.7c-0.2,0-0.5-0.1-0.6-0.1c-0.1,0-0.2,0-0.3-0.1c-0.1,0-0.1,0-0.1,0c-0.3-0.1-0.5-0.3-0.5-0.6v-1.2h1.5
				h1.5c0.2,0,0.3,0,0.4,0.1c0.1,0.1,0.2,0.2,0.2,0.3l0.2,1c0.4-0.5,0.9-0.9,1.4-1.2c0.5-0.3,1.2-0.4,1.9-0.4c0.6,0,1.1,0.1,1.5,0.3
				c0.5,0.2,0.9,0.6,1.2,1c0.3,0.4,0.6,1,0.8,1.7C47.5-1272,47.6-1271.3,47.6-1270.4z M45.1-1270.4c0-0.6-0.1-1.1-0.2-1.5
				c-0.1-0.4-0.2-0.8-0.4-1c-0.2-0.3-0.4-0.4-0.7-0.6c-0.3-0.1-0.6-0.2-0.9-0.2c-0.5,0-1,0.1-1.3,0.3c-0.4,0.2-0.7,0.5-1,0.9v4.6
				c0.3,0.4,0.6,0.6,0.9,0.7c0.3,0.1,0.7,0.2,1.1,0.2c0.4,0,0.7-0.1,1-0.2c0.3-0.1,0.6-0.4,0.8-0.6c0.2-0.3,0.4-0.6,0.5-1.1
				C45-1269.3,45.1-1269.8,45.1-1270.4z"/>
		</g>
	</g>
	<text transform="matrix(1 0 0 1 -124.395 -1150.9767)" fill="#538DA6" font-family="'Aleo-Regular'" font-size="36">April 10-12, 2015</text>
	<g>
		<g>
			<path fill="#FFFFFF" d="M240-1037.9c0-2.2-1.8-4-4-4h-452c-2.2,0-4,1.8-4,4v72c0,2.2,1.8,4,4,4h452c2.2,0,4-1.8,4-4V-1037.9z"/>
			<path fill="none" stroke="#E5D8CF" stroke-width="2" stroke-miterlimit="10" d="M240-1037.9c0-2.2-1.8-4-4-4h-452
				c-2.2,0-4,1.8-4,4v72c0,2.2,1.8,4,4,4h452c2.2,0,4-1.8,4-4V-1037.9z"/>
		</g>
		<g>
			<path fill="#538DA6" d="M100-985.9c0,2.2,1.8,4,4,4h112c2.2,0,4-1.8,4-4v-32c0-2.2-1.8-4-4-4H104c-2.2,0-4,1.8-4,4V-985.9z"/>
		</g>
		<text transform="matrix(1 0 0 1 132.3199 -995.8734)" fill="#FFFFFF" font-family="'Lato-Bold'" font-size="18">submit</text>
		
			<text transform="matrix(1 0 0 1 -189.9999 -994.1751)" opacity="0.65" fill="#538DA6" font-family="'Lato-Regular'" font-size="24">email address</text>
	</g>
	<text transform="matrix(1 0 0 1 -458 492.3819)" fill="#538DA6" font-family="'Lato-Regular'" font-size="18">© Bitcamp 2015</text>
	<text transform="matrix(1 0 0 1 194.0118 492.3819)"><tspan x="0" y="0" fill="#538DA6" font-family="'Lato-Bold'" font-size="18">2014 </tspan><tspan x="45.2" y="0" fill="#538DA6" font-family="'Lato-Bold'" font-size="18">W</tspan><tspan x="63.7" y="0" fill="#538DA6" font-family="'Lato-Bold'" font-size="18">ebsite    </tspan><tspan x="126.8" y="0" fill="#538DA6" font-family="'Lato-Bold'" font-size="18" letter-spacing="-1">V</tspan><tspan x="138.5" y="0" fill="#538DA6" font-family="'Lato-Bold'" font-size="18">olunteer    Contact</tspan></text>
	<rect x="-220" y="-1121.9" fill="none" width="460" height="38.2"/>
	<text transform="matrix(1 0 0 1 -200.9751 -1108.6073)"><tspan x="0" y="0" fill="#538DA6" font-family="'Lato-Regular'" font-size="18">W</tspan><tspan x="18.1" y="0" fill="#538DA6" font-family="'Lato-Regular'" font-size="18">e</tspan><tspan x="26.7" y="0" fill="#538DA6" font-family="'Lato-Regular'" font-size="18">’re gearing up for another session of Bitcamp! Now </tspan><tspan x="-7.7" y="21.6" fill="#538DA6" font-family="'Lato-Regular'" font-size="18">something catc</tspan><tspan x="111" y="21.6" fill="#538DA6" font-family="'Lato-Regular'" font-size="18">h</tspan><tspan x="120.7" y="21.6" fill="#538DA6" font-family="'Lato-Regular'" font-size="18">y about w</tspan><tspan x="196.6" y="21.6" fill="#538DA6" font-family="'Lato-Regular'" font-size="18">h</tspan><tspan x="206.3" y="21.6" fill="#538DA6" font-family="'Lato-Regular'" font-size="18">y this </tspan><tspan x="251.6" y="21.6" fill="#538DA6" font-family="'Lato-Regular'" font-size="18">y</tspan><tspan x="260.6" y="21.6" fill="#538DA6" font-family="'Lato-Regular'" font-size="18">ear is cool + different.</tspan></text>
	<g>
		<g>
			<text transform="matrix(1 0 0 1 -233.4556 -530.9769)"><tspan x="0" y="0" fill="#FF7040" font-family="'Aleo-Regular'" font-size="36">Sp</tspan><tspan x="40.1" y="0" fill="#FF7040" font-family="'Aleo-Regular'" font-size="36">on</tspan><tspan x="81.6" y="0" fill="#FF7040" font-family="'Aleo-Regular'" font-size="36">s</tspan><tspan x="97.3" y="0" fill="#FF7040" font-family="'Aleo-Regular'" font-size="36">ors help ma</tspan><tspan x="283.4" y="0" fill="#FF7040" font-family="'Aleo-Regular'" font-size="36" letter-spacing="-1">k</tspan><tspan x="303.1" y="0" fill="#FF7040" font-family="'Aleo-Regular'" font-size="36">e this hap</tspan><tspan x="458.1" y="0" fill="#FF7040" font-family="'Aleo-Regular'" font-size="36">p</tspan><tspan x="479.1" y="0" fill="#FF7040" font-family="'Aleo-Regular'" font-size="36">en.</tspan></text>
		</g>
		<g>
			<rect x="-263.4" y="-551.9" fill="#FF7040" width="10" height="10"/>
			<rect x="-273.4" y="-551.9" fill="#FF7040" width="10" height="10"/>
			<rect x="-263.4" y="-541.9" fill="#FFAF40" width="10" height="10"/>
			<rect x="-273.4" y="-541.9" fill="#FF7040" width="10" height="10"/>
			<rect x="-273.4" y="-541.9" fill="#FF7040" width="10" height="10"/>
		</g>
	</g>
	<g>
		<g>
			<text transform="matrix(1 0 0 1 -202.5872 -40.9769)"><tspan x="0" y="0" fill="#FF7040" font-family="'Aleo-Regular'" font-size="36">We’</tspan><tspan x="65.1" y="0" fill="#FF7040" font-family="'Aleo-Regular'" font-size="36">r</tspan><tspan x="80" y="0" fill="#FF7040" font-family="'Aleo-Regular'" font-size="36">e all o</tspan><tspan x="171.6" y="0" fill="#FF7040" font-family="'Aleo-Regular'" font-size="36">v</tspan><tspan x="192.1" y="0" fill="#FF7040" font-family="'Aleo-Regular'" font-size="36">er the interwebs.</tspan></text>
		</g>
		<g>
			<rect x="-232.6" y="-61.9" fill="#FFFFFF" width="10" height="10"/>
			<rect x="-242.6" y="-61.9" fill="#FF4046" width="10" height="10"/>
			<rect x="-232.6" y="-51.9" fill="#FF4046" width="10" height="10"/>
			<rect x="-242.6" y="-51.9" fill="#FF7040" width="10" height="10"/>
			<rect x="-242.6" y="-51.9" fill="#FFFFFF" width="10" height="10"/>
		</g>
	</g>
	<g>
		<g>
			<text transform="matrix(1 0 0 1 -342.7784 -810.9769)"><tspan x="0" y="0" fill="#FF7040" font-family="'Aleo-Regular'" font-size="36">36-hour hack</tspan><tspan x="215.5" y="0" fill="#FF7040" font-family="'Aleo-Regular'" font-size="36" letter-spacing="-1">a</tspan><tspan x="232.9" y="0" fill="#FF7040" font-family="'Aleo-Regular'" font-size="36">thon </tspan><tspan x="317.8" y="0" fill="#FF7040" font-family="'Aleo-Regular'" font-size="36" letter-spacing="-1">a</tspan><tspan x="335.2" y="0" fill="#FF7040" font-family="'Aleo-Regular'" font-size="36">t Uni</tspan><tspan x="415.9" y="0" fill="#FF7040" font-family="'Aleo-Regular'" font-size="36">v</tspan><tspan x="436.4" y="0" fill="#FF7040" font-family="'Aleo-Regular'" font-size="36">ersity of Mar</tspan><tspan x="645.7" y="0" fill="#FF7040" font-family="'Aleo-Regular'" font-size="36">y</tspan><tspan x="666.2" y="0" fill="#FF7040" font-family="'Aleo-Regular'" font-size="36">land.</tspan></text>
		</g>
		<g>
			<rect x="-372.8" y="-831.9" fill="#FFAF40" width="10" height="10"/>
			<rect x="-382.8" y="-831.9" fill="#FFAF40" width="10" height="10"/>
			<rect x="-372.8" y="-821.9" fill="#FFAF40" width="10" height="10"/>
			<rect x="-382.8" y="-821.9" fill="#FF7040" width="10" height="10"/>
			<rect x="-382.8" y="-821.9" fill="#FFEF40" width="10" height="10"/>
		</g>
	</g>
	<g>
		<rect x="-460" y="-471.9" fill="#E5D8CF" width="140" height="70"/>
		<rect x="-460" y="-381.9" fill="#E5D8CF" width="140" height="70"/>
		<rect x="-300" y="-471.9" fill="#E5D8CF" width="140" height="70"/>
		<rect x="-300" y="-381.9" fill="#E5D8CF" width="140" height="70"/>
		<rect x="-140" y="-471.9" fill="#E5D8CF" width="140" height="70"/>
		<rect x="-140" y="-381.9" fill="#E5D8CF" width="140" height="70"/>
		<rect x="20" y="-471.9" fill="#E5D8CF" width="140" height="70"/>
		<rect x="20" y="-381.9" fill="#E5D8CF" width="140" height="70"/>
		<rect x="180" y="-471.9" fill="#E5D8CF" width="140" height="70"/>
		<rect x="180" y="-381.9" fill="#E5D8CF" width="140" height="70"/>
		<rect x="340" y="-471.9" fill="#E5D8CF" width="140" height="70"/>
		<rect x="340" y="-381.9" fill="#E5D8CF" width="140" height="70"/>
	</g>
	<g>
		<g>
			<path fill="#538DA6" d="M-130-155.9c0,2.2,1.8,4,4,4h272c2.2,0,4-1.8,4-4v-52c0-2.2-1.8-4-4-4h-272c-2.2,0-4,1.8-4,4V-155.9z"/>
		</g>
		<text transform="matrix(1 0 0 1 -85.8725 -173.5335)" fill="#FFFFFF" font-family="'Lato-Bold'" font-size="24">become a sponsor</text>
	</g>
	<rect x="-460" y="58.1" fill="#E5D8CF" width="140" height="140"/>
	<rect x="-300" y="58.1" fill="#E5D8CF" width="140" height="140"/>
	<rect x="-460" y="218.1" fill="#E5D8CF" width="140" height="140"/>
	<rect x="-300" y="218.1" fill="#E5D8CF" width="140" height="140"/>
	<rect x="20" y="58.1" fill="#E5D8CF" width="140" height="140"/>
	<rect x="180" y="58.1" fill="#E5D8CF" width="140" height="140"/>
	<rect x="-140" y="58.1" fill="#E5D8CF" width="140" height="140"/>
	<rect x="-140" y="218.1" fill="#E5D8CF" width="140" height="140"/>
	<rect x="340" y="58.1" fill="#E5D8CF" width="140" height="140"/>
	<rect x="20" y="218.1" fill="#E5D8CF" width="140" height="140"/>
	<rect x="180" y="218.1" fill="#E5D8CF" width="140" height="140"/>
	<rect x="340" y="218.1" fill="#E5D8CF" width="140" height="140"/>
	<text transform="matrix(1 0 0 1 -77.6035 -1206.6185)"><tspan x="0" y="0" fill="#538DA6" font-family="'Lato-Bold'" font-size="18">Mark </tspan><tspan x="46.9" y="0" fill="#538DA6" font-family="'Lato-Bold'" font-size="18">y</tspan><tspan x="56.2" y="0" fill="#538DA6" font-family="'Lato-Bold'" font-size="18">our calendars.</tspan></text>
	<line fill="none" stroke="#E5D8CF" stroke-miterlimit="10" x1="-460" y1="437.6" x2="480" y2="437.6"/>
	<rect x="-220" y="-751.9" fill="none" width="460" height="103"/>
	<text transform="matrix(1 0 0 1 -212.522 -738.6072)"><tspan x="0" y="0" fill="#538DA6" font-family="'Lato-Regular'" font-size="18" letter-spacing="-2">T</tspan><tspan x="8.4" y="0" fill="#538DA6" font-family="'Lato-Regular'" font-size="18">a</tspan><tspan x="17.5" y="0" fill="#538DA6" font-family="'Lato-Regular'" font-size="18">k</tspan><tspan x="26.4" y="0" fill="#538DA6" font-family="'Lato-Regular'" font-size="18">e what </tspan><tspan x="82.4" y="0" fill="#538DA6" font-family="'Lato-Regular'" font-size="18">y</tspan><tspan x="91.4" y="0" fill="#538DA6" font-family="'Lato-Regular'" font-size="18">ou l</tspan><tspan x="119.5" y="0" fill="#538DA6" font-family="'Lato-Regular'" font-size="18">ov</tspan><tspan x="138.2" y="0" fill="#538DA6" font-family="'Lato-Regular'" font-size="18">e, fuse it with tech, and build something </tspan><tspan x="7.7" y="21.6" fill="#538DA6" font-family="'Lato-Regular'" font-size="18">the world has n</tspan><tspan x="127" y="21.6" fill="#538DA6" font-family="'Lato-Regular'" font-size="18">ev</tspan><tspan x="145.2" y="21.6" fill="#538DA6" font-family="'Lato-Regular'" font-size="18">er seen. Organic health goth art party </tspan><tspan x="5.8" y="43.2" fill="#538DA6" font-family="'Lato-Regular'" font-size="18">hashtag, farm-to-table lomo semiotics what</tspan><tspan x="345.1" y="43.2" fill="#538DA6" font-family="'Lato-Regular'" font-size="18">ev</tspan><tspan x="363.3" y="43.2" fill="#538DA6" font-family="'Lato-Regular'" font-size="18">er occu</tspan><tspan x="420.3" y="43.2" fill="#538DA6" font-family="'Lato-Regular'" font-size="18">p</tspan><tspan x="430" y="43.2" fill="#538DA6" font-family="'Lato-Regular'" font-size="18">y </tspan><tspan x="-3.8" y="64.8" fill="#538DA6" font-family="'Lato-Regular'" font-size="18">fixie bespo</tspan><tspan x="80.3" y="64.8" fill="#538DA6" font-family="'Lato-Regular'" font-size="18">k</tspan><tspan x="89.2" y="64.8" fill="#538DA6" font-family="'Lato-Regular'" font-size="18">e actuall</tspan><tspan x="154.7" y="64.8" fill="#538DA6" font-family="'Lato-Regular'" font-size="18" letter-spacing="-1">y</tspan><tspan x="162.7" y="64.8" fill="#538DA6" font-family="'Lato-Regular'" font-size="18">. Squid distillery freegan artisan pork </tspan><tspan x="95.8" y="86.4" fill="#538DA6" font-family="'Lato-Regular'" font-size="18">belly stumptown organic ethical.</tspan></text>
	<text transform="matrix(1 0 0 1 -171.9502 -256.6185)"><tspan x="0" y="0" fill="#538DA6" font-family="'Lato-Italic'" font-size="18">These a</tspan><tspan x="55.5" y="0" fill="#538DA6" font-family="'Lato-Italic'" font-size="18">r</tspan><tspan x="61.4" y="0" fill="#538DA6" font-family="'Lato-Italic'" font-size="18">e some of our friends f</tspan><tspan x="220.7" y="0" fill="#538DA6" font-family="'Lato-Italic'" font-size="18">r</tspan><tspan x="226.6" y="0" fill="#538DA6" font-family="'Lato-Italic'" font-size="18">om Bitcamp 2014. </tspan><tspan x="57.9" y="21.6" fill="#538DA6" font-family="'Lato-Italic'" font-size="18">Inte</tspan><tspan x="86.9" y="21.6" fill="#538DA6" font-family="'Lato-Italic'" font-size="18">r</tspan><tspan x="92.8" y="21.6" fill="#538DA6" font-family="'Lato-Italic'" font-size="18">ested in taking part this </tspan><tspan x="267.4" y="21.6" fill="#538DA6" font-family="'Lato-Italic'" font-size="18">y</tspan><tspan x="275.7" y="21.6" fill="#538DA6" font-family="'Lato-Italic'" font-size="18">ear?</tspan></text>
	<g>
		<rect x="-1135" y="-156.9" fill="#A68E7C" width="10" height="10"/>
		<rect x="-1145" y="-156.9" fill="#A68E7C" width="10" height="10"/>
		<rect x="-1145" y="-166.9" fill="#A68E7C" width="10" height="10"/>
		<rect x="-1135" y="-166.9" fill="#A68E7C" width="10" height="10"/>
		<rect x="-1125" y="-176.9" fill="#A68E7C" width="10" height="10"/>
		<rect x="-1135" y="-176.9" fill="#A68E7C" width="10" height="10"/>
		<rect x="-1115" y="-176.9" fill="#A68E7C" width="10" height="10"/>
		<rect x="-1095" y="-176.9" fill="#A68E7C" width="10" height="10"/>
		<rect x="-1085" y="-176.9" fill="#A68E7C" width="10" height="10"/>
		<rect x="-1075" y="-176.9" fill="#A68E7C" width="10" height="10"/>
		<rect x="-1125" y="-166.9" fill="#A68E7C" width="10" height="10"/>
		<rect x="-1105" y="-176.9" fill="#A68E7C" width="10" height="10"/>
		<rect x="-1105" y="-166.9" fill="#A68E7C" width="10" height="10"/>
		<rect x="-1115" y="-166.9" fill="#A68E7C" width="10" height="10"/>
		<rect x="-1095" y="-166.9" fill="#A68E7C" width="10" height="10"/>
		<rect x="-1085" y="-166.9" fill="#A68E7C" width="10" height="10"/>
		<rect x="-1075" y="-166.9" fill="#A68E7C" width="10" height="10"/>
		<rect x="-1065" y="-166.9" fill="#A68E7C" width="10" height="10"/>
		<rect x="-1135" y="-146.9" fill="#A68E7C" width="10" height="10"/>
		<rect x="-1135" y="-136.9" fill="#A68E7C" width="10" height="10"/>
		<rect x="-1135" y="-126.9" fill="#A68E7C" width="10" height="10"/>
		<rect x="-1155" y="-156.9" fill="#A68E7C" width="10" height="10"/>
		<rect x="-1155" y="-146.9" fill="#A68E7C" width="10" height="10"/>
		<rect x="-1155" y="-136.9" fill="#A68E7C" width="10" height="10"/>
		<rect x="-1155" y="-126.9" fill="#A68E7C" width="10" height="10"/>
		<rect x="-1115" y="-156.9" fill="#A68E7C" width="10" height="10"/>
		<rect x="-1125" y="-156.9" fill="#A68E7C" width="10" height="10"/>
		<rect x="-1115" y="-146.9" fill="#A68E7C" width="10" height="10"/>
		<rect x="-1115" y="-136.9" fill="#A68E7C" width="10" height="10"/>
		<rect x="-1115" y="-126.9" fill="#A68E7C" width="10" height="10"/>
		<rect x="-1095" y="-156.9" fill="#A68E7C" width="10" height="10"/>
		<rect x="-1105" y="-156.9" fill="#A68E7C" width="10" height="10"/>
		<rect x="-1095" y="-146.9" fill="#A68E7C" width="10" height="10"/>
		<rect x="-1095" y="-136.9" fill="#A68E7C" width="10" height="10"/>
		<rect x="-1095" y="-126.9" fill="#A68E7C" width="10" height="10"/>
		<rect x="-1075" y="-156.9" fill="#A68E7C" width="10" height="10"/>
		<rect x="-1085" y="-156.9" fill="#A68E7C" width="10" height="10"/>
		<rect x="-1075" y="-146.9" fill="#A68E7C" width="10" height="10"/>
		<rect x="-1075" y="-136.9" fill="#A68E7C" width="10" height="10"/>
		<rect x="-1075" y="-126.9" fill="#A68E7C" width="10" height="10"/>
		<rect x="-1055" y="-156.9" fill="#A68E7C" width="10" height="10"/>
		<rect x="-1065" y="-156.9" fill="#A68E7C" width="10" height="10"/>
		<rect x="-1135" y="-96.9" fill="#A68E7C" width="10" height="10"/>
		<rect x="-1145" y="-96.9" fill="#A68E7C" width="10" height="10"/>
		<rect x="-1155" y="-96.9" fill="#A68E7C" width="10" height="10"/>
		<rect x="-1115" y="-96.9" fill="#A68E7C" width="10" height="10"/>
		<rect x="-1125" y="-96.9" fill="#A68E7C" width="10" height="10"/>
		<rect x="-1095" y="-96.9" fill="#A68E7C" width="10" height="10"/>
		<rect x="-1105" y="-96.9" fill="#A68E7C" width="10" height="10"/>
		<rect x="-1075" y="-96.9" fill="#A68E7C" width="10" height="10"/>
		<rect x="-1085" y="-96.9" fill="#A68E7C" width="10" height="10"/>
		<rect x="-1055" y="-96.9" fill="#A68E7C" width="10" height="10"/>
		<rect x="-1065" y="-96.9" fill="#A68E7C" width="10" height="10"/>
		<rect x="-1135" y="-86.9" fill="#A68E7C" width="10" height="10"/>
		<rect x="-1145" y="-86.9" fill="#A68E7C" width="10" height="10"/>
		<rect x="-1155" y="-86.9" fill="#A68E7C" width="10" height="10"/>
		<rect x="-1115" y="-86.9" fill="#A68E7C" width="10" height="10"/>
		<rect x="-1125" y="-86.9" fill="#A68E7C" width="10" height="10"/>
		<rect x="-1095" y="-86.9" fill="#A68E7C" width="10" height="10"/>
		<rect x="-1105" y="-86.9" fill="#A68E7C" width="10" height="10"/>
		<rect x="-1075" y="-86.9" fill="#A68E7C" width="10" height="10"/>
		<rect x="-1085" y="-86.9" fill="#A68E7C" width="10" height="10"/>
		<rect x="-1055" y="-86.9" fill="#A68E7C" width="10" height="10"/>
		<rect x="-1045" y="-86.9" fill="#A68E7C" width="10" height="10"/>
		<rect x="-1165" y="-86.9" fill="#A68E7C" width="10" height="10"/>
		<rect x="-1065" y="-86.9" fill="#A68E7C" width="10" height="10"/>
		<rect x="-1055" y="-146.9" fill="#A68E7C" width="10" height="10"/>
		<rect x="-1055" y="-136.9" fill="#A68E7C" width="10" height="10"/>
		<rect x="-1055" y="-126.9" fill="#A68E7C" width="10" height="10"/>
		<rect x="-1135" y="-116.9" fill="#A68E7C" width="10" height="10"/>
		<rect x="-1135" y="-106.9" fill="#A68E7C" width="10" height="10"/>
		<rect x="-1155" y="-116.9" fill="#A68E7C" width="10" height="10"/>
		<rect x="-1155" y="-106.9" fill="#A68E7C" width="10" height="10"/>
		<rect x="-1115" y="-116.9" fill="#A68E7C" width="10" height="10"/>
		<rect x="-1115" y="-106.9" fill="#A68E7C" width="10" height="10"/>
		<rect x="-1095" y="-116.9" fill="#A68E7C" width="10" height="10"/>
		<rect x="-1095" y="-106.9" fill="#A68E7C" width="10" height="10"/>
		<rect x="-1075" y="-116.9" fill="#A68E7C" width="10" height="10"/>
		<rect x="-1075" y="-106.9" fill="#A68E7C" width="10" height="10"/>
		<rect x="-1055" y="-116.9" fill="#A68E7C" width="10" height="10"/>
		<rect x="-1055" y="-106.9" fill="#A68E7C" width="10" height="10"/>
	</g>
	<path fill="#538DA6" d="M20,1.9c-0.7,0.3-1.5,0.5-2.4,0.6c0.8-0.5,1.5-1.3,1.8-2.3c-0.8,0.5-1.7,0.8-2.6,1C16.1,0.5,15,0,13.8,0
		c-2.3,0-4.1,1.8-4.1,4.1c0,0.3,0,0.6,0.1,0.9C6.4,4.9,3.4,3.2,1.4,0.8C1,1.4,0.8,2.1,0.8,2.8c0,1.4,0.7,2.7,1.8,3.4
		C2,6.2,1.4,6,0.8,5.7c0,0,0,0,0,0.1c0,2,1.4,3.6,3.3,4C3.8,9.9,3.4,9.9,3,9.9c-0.3,0-0.5,0-0.8-0.1c0.5,1.6,2,2.8,3.8,2.8
		c-1.4,1.1-3.2,1.8-5.1,1.8c-0.3,0-0.7,0-1-0.1c1.8,1.2,4,1.8,6.3,1.8C13.8,16.3,18,10,18,4.6c0-0.2,0-0.4,0-0.5
		C18.8,3.5,19.4,2.7,20,1.9z"/>
	<path fill="#538DA6" d="M-47.6-0.2h2.3v-3.5h-3.1c-4.3,0-4.2,3.4-4.2,3.9c0,0.5,0,2.8,0,2.8h-2v3.4h2v10h4.1v-10h2.8
		c0,0,0.3-1.6,0.4-3.4c-0.4,0-3.2,0-3.2,0s0-2,0-2.3C-48.5,0.2-48-0.2-47.6-0.2z"/>
	<path fill-rule="evenodd" clip-rule="evenodd" fill="#538DA6" d="M77.9-1.9H62.1c-1.2,0-2.1,1-2.1,2.1V16c0,1.2,1,2.1,2.1,2.1h15.7
		c1.2,0,2.1-1,2.1-2.1V0.3C80-0.9,79-1.9,77.9-1.9z M70,3.8c2.4,0,4.3,1.9,4.3,4.3s-1.9,4.3-4.3,4.3c-2.4,0-4.3-1.9-4.3-4.3
		S67.6,3.8,70,3.8z M77.9,14.6c0,0.8-0.6,1.4-1.4,1.4H63.6c-0.8,0-1.4-0.6-1.4-1.4V6.7h1.6c-0.1,0.5-0.2,0.9-0.2,1.4
		c0,3.6,2.9,6.4,6.4,6.4c3.6,0,6.4-2.9,6.4-6.4c0-0.5-0.1-1-0.2-1.4h1.6V14.6z M77.9,3.8c0,0.4-0.3,0.7-0.7,0.7h-2.9
		c-0.4,0-0.7-0.3-0.7-0.7V1c0-0.4,0.3-0.7,0.7-0.7h2.9c0.4,0,0.7,0.3,0.7,0.7V3.8z"/>
</g>
<g id="frame">
	<g>
		<path fill="#F2F2F2" d="M960-1541.9H-940c-5.5,0-10,4.5-10,10v50H970v-50C970-1537.4,965.5-1541.9,960-1541.9z"/>
		<circle fill="#CCCCCC" cx="940" cy="-1511.9" r="10"/>
		<circle fill="#CCCCCC" cx="900" cy="-1511.9" r="10"/>
		<circle fill="#CCCCCC" cx="860" cy="-1511.9" r="10"/>
	</g>
</g>
<g id="Layer_7">
</g>
</svg>
